<svg xmlns="http://www.w3.org/2000/svg" xmlns:xlink="http://www.w3.org/1999/xlink" viewBox="0 0 2500 2500"><path style="fill-rule:evenodd;clip-rule:evenodd;fill:#c5f5f2;" d="M0 0h25e2v25e2H0z"/><path style="fill-rule:evenodd;clip-rule:evenodd;fill:#1e8994;stroke:#000;stroke-linecap:round;stroke-linejoin:round;stroke-width:7px" d="M1634.754 2148.807c1.927 5.057.0.0-5.78-15.17l-26.192 2.763.003.001c-29.47 61.966-189.929 58.995-254.948 60.108-259.599 4.447-472.17-48.054-637.709-157.502C580.824 2055.622 354.002 2296.891 3e2 25e2h1618C1826.858 2320.131 1699.317 2185.588 1634.754 2148.807z"/><path style="fill-rule:evenodd;clip-rule:evenodd;fill:#47ab41;stroke:#000000;stroke-width:8.5039;stroke-linecap:round;stroke-linejoin:round;stroke-miterlimit:2.6131;" d="M867.603 1293.527c135.408-338.495 331.41-420.844 588.004-247.048 241.577-117.709 380.271-75.33 416.082 127.137 85.736 16.593 133.412 45.005 143.028 85.238 38.849 13.16 55.222 33.628 49.121 61.401 34.595 16.186 41.096 32.078 19.504 47.676 27.655 37.786 20.431 64.754-21.671 80.905 15.662 25.919-1.675 43.978-52.01 54.177-17.8 44.837-54.641 74.213-110.522 88.128 78.07 53.384 133.361 153.359 109.076 195.761-96.726 186.205-207.247 292.151-331.565 317.84-25.241 2.762-41.134 12.394-47.676 28.895-84.606 9.871-201.87 13.723-351.791 11.557-265.722-14.316-452.573-58.139-560.555-131.47C551.93 1890.923 644.393 1306.53 867.603 1293.527z"/><path style="fill-rule:evenodd;clip-rule:evenodd;fill:#47ab41;stroke:#000000;stroke-width:8.5039;stroke-linecap:round;stroke-linejoin:round;stroke-miterlimit:2.6131;" d="M1602.782 2136.4l.003.001c-29.47 61.966-189.929 58.995-254.948 60.108-259.599 4.447-472.17-48.054-637.709-157.502-.339-9.494 1.828-17.921 6.501-25.282 107.982 73.33 294.833 117.153 560.555 131.47C1412.208 2147.146 1520.737 2144.214 1602.782 2136.4z"/><path style="fill-rule:evenodd;clip-rule:evenodd;fill:none;stroke:#000000;stroke-width:8.5039;stroke-linecap:round;stroke-linejoin:round;stroke-miterlimit:2.6131;" d="M867.603 1293.527c-6.666 40.876-12.204 79.643-16.615 116.301"/><path style="fill-rule:evenodd;clip-rule:evenodd;fill:none;stroke:#000000;stroke-width:8.5039;stroke-linecap:round;stroke-linejoin:round;stroke-miterlimit:2.6131;" d="M1525.676 1561.525c-51.268 27.946-114.836 54.192-190.704 78.737"/><path style="fill-rule:evenodd;clip-rule:evenodd;fill:none;stroke:#000000;stroke-width:8.5039;stroke-linecap:round;stroke-linejoin:round;stroke-miterlimit:2.6131;" d="M1661.48 1575.972c43.172 17.706 78.809 35.524 106.91 53.455"/><path style="fill-rule:evenodd;clip-rule:evenodd;fill:none;stroke:#000000;stroke-width:8.5039;stroke-linecap:round;stroke-linejoin:round;stroke-miterlimit:2.6131;" d="M1899.139 1591.141c-51.724 10.804-107.176 16.714-166.355 17.731"/><path style="fill-rule:evenodd;clip-rule:evenodd;fill:none;stroke:#000000;stroke-width:8.5039;stroke-linecap:round;stroke-linejoin:round;stroke-miterlimit:2.6131;" d="M1153.659 1482.787c60.118 38.148 137.411 57.893 231.879 59.234 39.01-.234 79.221.007 120.635.722 32.19-13.808 57.713-18.865 76.571-15.17 48.169-23.217 60.691-48.499 37.562-75.848"/><path style="fill-rule:evenodd;clip-rule:evenodd;fill:none;stroke:#000000;stroke-width:8.5039;stroke-linecap:round;stroke-linejoin:round;stroke-miterlimit:2.6131;" d="M1455.607 1046.479c34.191 41.927 51.047 84.546 50.566 127.858-162.616-97.202-306.126-95.756-430.529 4.334"/><path style="fill-rule:evenodd;clip-rule:evenodd;fill:none;stroke:#000000;stroke-width:8.5039;stroke-linecap:round;stroke-linejoin:round;stroke-miterlimit:2.6131;" d="M1871.688 1173.615c-13.481 2.256-24.317.329-32.506-5.78-3.124-4.977-8.661-7.145-16.614-6.501-15.036 5.566-26.834 5.807-35.396.723-9.792-4.853-23.998-7.501-42.619-7.946-88.686-4.572-168.146 2.17-238.38 20.226 20.481 29.685 50.58 58.098 90.295 85.239 17.034 9.995 18.72 25.887 5.057 47.676-140.781-70.757-280.197-57.274-418.249 40.452-23.248 12.323-56.235 17.861-98.964 16.615-20.681-3.351-31.758 4.112-33.229 22.393-.159 13.995 10.436 21.459 31.784 22.394 26.147.214 47.337 2.38 63.568 6.501"/><path style="fill-rule:evenodd;clip-rule:evenodd;fill:none;stroke:#000000;stroke-width:8.5039;stroke-linecap:round;stroke-linejoin:round;stroke-miterlimit:2.6131;" d="M1559.124 1231.308c-146.388-18.638-254.816-7.048-325.282 34.77-40.94 36.795-86.93 57.984-137.972 63.568"/><path style="fill-rule:evenodd;clip-rule:evenodd;fill:none;stroke:#000000;stroke-width:8.5039;stroke-linecap:round;stroke-linejoin:round;stroke-miterlimit:2.6131;" d="M1609.225 1290.928c119.034-61.942 254.197-72.633 405.492-32.075"/><path style="fill-rule:evenodd;clip-rule:evenodd;fill:none;stroke:#000000;stroke-width:8.5039;stroke-linecap:round;stroke-linejoin:round;stroke-miterlimit:2.6131;" d="M1618.139 1315.921c160.721-64.233 309.287-62.788 445.699 4.334"/><path style="fill-rule:evenodd;clip-rule:evenodd;fill:#FFFFFF;stroke:#000000;stroke-width:8.5039;stroke-linecap:round;stroke-linejoin:round;stroke-miterlimit:2.6131;" d="M1620.306 1466.956c-183.453 111.72-341.41 96.015-473.87-47.117 81.906-121.626 190.983-172.513 327.231-152.66 89.674 17.696 143.851 45.337 162.532 82.927C1639.566 1382.904 1634.269 1421.854 1620.306 1466.956z"/><path style="fill-rule:evenodd;clip-rule:evenodd;fill:#FFFFFF;stroke:#000000;stroke-width:8.5039;stroke-linecap:round;stroke-linejoin:round;stroke-miterlimit:2.6131;" d="M1630.669 1491.471c-6.027-7.507-11.21-14.636-15.568-21.395 1.734-1.036 3.466-2.061 5.204-3.12 9.248-29.871 14.693-57.043 16.338-81.517h.002C1758.983 1258.423 1857.5 1241.5 2009.5 1309.5c36 18 53 27 73.842 48.144 27.951 47.779 20.728 82.96-21.671 105.543C1921.202 1529.211 1777.535 1538.639 1630.669 1491.471z"/><path style="fill-rule:evenodd;clip-rule:evenodd;" d="M1308.562 1454.551c19.438 4.985 35.894 8.13 49.385 9.566l-6.691-56.031c-16.281-4.479-28.972-10.065-38.027-16.74-10.884-7.962-16.984-17.752-18.365-29.316-1.874-15.694 5.952-29.66 23.47-41.945 6.234-4.387 13.25-8.212 21.042-11.48l-4.362-36.527 25.764-3.077 3.773 31.599c7.615-1.776 15.747-3.181 24.394-4.214 4.552-.544 9.272-.963 14.159-1.26l-3.671-30.741 25.771-3.078 3.98 33.331c11.791.222 24.756 1.033 38.945 2.391l5.453 45.66c-13.957-3.672-27.146-6.352-39.618-8.033l5.4 45.217c23.537 5.932 40.092 12.113 49.704 18.54 11.521 7.747 18.011 17.724 19.479 30.021 2.269 18.998-6.125 35.592-25.188 49.738-8.625 6.379-18.735 11.725-30.341 16.044l4.664 39.06-25.771 3.078-4.162-34.854c-7.492 1.624-15.44 2.936-23.847 3.94-4.721.564-9.629 1.016-14.727 1.359l4.081 34.171-25.764 3.077-4.349-36.423c-12.808-.014-26.936-.625-42.206-1.819L1308.562 1454.551v0zM1384.189 1465.048c4.662-.171 9.264-.528 13.805-1.07 9.765-1.166 17.945-3.216 24.542-6.131l-3.884-32.527c-6.653-2.506-15.021-4.928-25.111-7.26-4.618-1.077-8.181-1.955-10.679-2.541l-4.716-1.074L1384.189 1465.048v0zM1369.45 1341.62l2.565 21.483c3.741 2.003 8.691 3.643 14.893 4.97l25.581 5.644-4.901-41.044c-4.54.0-8.716.228-12.536.684-10.375 1.239-18.331 3.632-23.947 7.141C1370.52 1340.865 1369.969 1341.238 1369.45 1341.62z"/><path style="fill-rule:evenodd;clip-rule:evenodd;" d="M1778.926 1417.397c15.297 8.834 28.503 15.402 39.6 19.818l7.611-49.089c-12.742-7.657-22.176-15.402-28.27-23.207-7.34-9.331-10.191-19.077-8.62-29.208 2.132-13.75 12.078-23.734 29.842-29.996 6.325-2.242 13.18-3.821 20.561-4.744l4.962-32.002 22.572 3.5-4.292 27.684c6.877.3 14.105 1.036 21.68 2.211 3.988.618 8.089 1.382 12.303 2.288l4.176-26.932 22.578 3.501-4.528 29.201c9.943 2.984 20.743 6.745 32.45 11.26l-6.202 40.003c-10.962-6.422-21.508-11.821-31.683-16.203l-6.142 39.615c18.548 10.609 31.118 19.774 37.743 27.502 7.931 9.299 11.067 19.296 9.397 30.07-2.581 16.644-13.631 28.722-33.146 36.196-8.825 3.363-18.663 5.498-29.526 6.409l-5.306 34.22-22.578-3.501 4.734-30.536c-6.737-.4-13.786-1.172-21.152-2.314-4.136-.641-8.405-1.421-12.807-2.339l-6.642 41.938-22.572-3.5 6.948-43.91c-10.855-3.048-22.688-6.916-35.35-11.548L1778.926 1417.397v0zM1840.553 1444.226c3.993.96 7.979 1.748 11.957 2.365 8.555 1.326 15.976 1.528 22.26.62l4.418-28.497c-5.046-3.701-11.567-7.739-19.568-12.108-3.66-2.008-6.473-3.597-8.451-4.686l-3.743-2.029L1840.553 1444.226v0zM1857.319 1336.09l-2.918 18.822c2.697 2.585 6.504 5.149 11.448 7.744l20.349 10.85 5.575-35.959c-3.849-1.076-7.443-1.873-10.79-2.392-9.089-1.409-16.402-1.267-21.995.377C1858.406 1335.704 1857.85 1335.889 1857.319 1336.09z"/><path style="fill-rule:evenodd;clip-rule:evenodd;fill:#C8C8C8;" d="M1282.535 1410.331 1284.232 1364.625 1242.669 1345.535 1288.375 1347.232 1307.465 1305.669 1305.768 1351.375 1347.331 1370.465 1301.625 1368.768z"/><path style="fill-rule:evenodd;clip-rule:evenodd;fill:#C8C8C8;" d="M1964.025 1466.749 1949.895 1435.105 1915.251 1436.025 1946.895 1421.895 1945.975 1387.251 1960.105 1418.895 1994.749 1417.975 1963.105 1432.105z"/><path style="fill-rule:evenodd;clip-rule:evenodd;fill:#C8C8C8;" d="M1510.024 1482.931 1496.188 1465.809 1475.069 1472.024 1492.191 1458.188 1485.976 1437.069 1499.812 1454.191 1520.931 1447.976 1503.809 1461.812z"/><path style="fill-rule:evenodd;clip-rule:evenodd;fill:#42351d;stroke:#000000;stroke-width:8.5039;stroke-linecap:round;stroke-linejoin:round;stroke-miterlimit:2.6131;" d="M1321.058 814.127C1756.325 686.98 1987.64 834.605 2015 1257.003c-369.426-243.26-381.016-216.072-509.953-83.71-302.143-376.727-258.788 121.933-640.339 118.053C689.41 1349.093 615.32 1544.644 642.437 1878 469.028 1048.438 695.235 693.814 1321.058 814.127z"/><path style="fill-rule:evenodd;clip-rule:evenodd;fill:none;stroke:#000000;stroke-width:8.5039;stroke-linecap:round;stroke-linejoin:round;stroke-miterlimit:2.6131;" d="M1505.047 1173.293c-18.288-175.083-79.617-294.806-183.989-359.166"/><path style="fill-rule:evenodd;clip-rule:evenodd;fill:none;stroke:#000000;stroke-width:8.5039;stroke-linecap:round;stroke-linejoin:round;stroke-miterlimit:2.6131;" d="M1725.527 1087.691c-46.513-10.396-98.831-35.205-156.954-74.425"/><path style="fill-rule:evenodd;clip-rule:evenodd;fill:none;stroke:#000000;stroke-width:8.5039;stroke-linecap:round;stroke-linejoin:round;stroke-miterlimit:2.6131;" d="M1248.617 1060.958c36.036-21.815 71.805-52.116 107.306-90.902"/><path style="fill-rule:evenodd;clip-rule:evenodd;fill:none;stroke:#000000;stroke-width:8.5039;stroke-linecap:round;stroke-linejoin:round;stroke-miterlimit:2.6131;" d="M864.708 1291.346c50.212-21.178 102.882-63.882 158.007-128.111"/><path style="fill-rule:evenodd;clip-rule:evenodd;fill:none;stroke:#000000;stroke-width:8.5039;stroke-linecap:round;stroke-linejoin:round;stroke-miterlimit:2.6131;" d="M2007.295 1179.672c-37.879-62.295-79.706-103.548-125.483-123.759"/><path style="fill-rule:evenodd;clip-rule:evenodd;fill:none;stroke:#000000;stroke-width:8.5039;stroke-linecap:round;stroke-linejoin:round;stroke-miterlimit:2.6131;" d="M1460.436 984.867c170.979-114.96 315.301-110.356 432.966 13.81"/><path style="fill-rule:evenodd;clip-rule:evenodd;fill:none;stroke:#000000;stroke-width:8.5039;stroke-linecap:round;stroke-linejoin:round;stroke-miterlimit:2.6131;" d="M1414.786 901.99c93.144-84.082 211.635-98.121 355.474-42.115"/><path style="fill-rule:evenodd;clip-rule:evenodd;fill:none;stroke:#000000;stroke-width:8.5039;stroke-linecap:round;stroke-linejoin:round;stroke-miterlimit:2.6131;" d="M1377.631 858.511c-184.035-31.296-346.768 8.748-488.2 120.132"/><path style="fill-rule:evenodd;clip-rule:evenodd;fill:none;stroke:#000000;stroke-width:8.5039;stroke-linecap:round;stroke-linejoin:round;stroke-miterlimit:2.6131;" d="M1442.152 946.098c-91.3-44.344-202.621-30.634-333.962 41.13"/><path style="fill-rule:evenodd;clip-rule:evenodd;fill:#AC693C;stroke:#000000;stroke-width:8.5039;stroke-linecap:round;stroke-linejoin:round;stroke-miterlimit:2.6131;" d="M1408.653 1817.963c-89.816-18.32-157.236-29.878-202.262-34.673-88.842-11.63-140.612 19.432-155.308 93.185-.759 35.818 18.504 54.118 57.789 54.9 81.009-4.737 161.673 2.968 241.992 23.115 229.51 41.612 419.25 54.374 569.222 38.286 63.522-24.771 79.896-57.518 49.12-98.242 81.821-49.944 94.824-85.821 39.008-107.632C1850.094 1860.848 1650.24 1871.201 1408.653 1817.963z"/><path style="fill-rule:evenodd;clip-rule:evenodd;fill:none;stroke:#000000;stroke-width:8.5039;stroke-linecap:round;stroke-linejoin:round;stroke-miterlimit:2.6131;" d="M1969.207 1894.534c-127.733 19.224-249.637 26.119-365.711 20.687-138.029-6.46-347.82-75.145-452.727-54.638"/><path style="fill-rule:evenodd;clip-rule:evenodd;fill:none;stroke:#000000;stroke-width:8.5039;stroke-linecap:round;stroke-linejoin:round;stroke-miterlimit:2.6131;" d="M994.739 1919.817c11.104 52.276 43.37 79.967 96.796 83.072"/><path style="fill-rule:evenodd;clip-rule:evenodd;stroke:#000000;fill:#6c327a;stroke-width:9.5;stroke-miterlimit:2.6131;" d="M2120.803 1419.139c-3.423-45.098-7.636-88.517-12.639-130.258l-1042.734-80.269-3.995 63.23c-133.967 52.533-303.133 122.147-507.497 208.841-58.48 36.521-64.72 95.016-18.72 175.487 74.091 32.645 106.699-3.76 97.827-109.214 192.749-53.177 332.349-81.693 418.801-85.547 5.177 51.776 21.454 93.187 48.829 124.234 79.13 89.746 295.059 91.547 391.778 28.044 48.001-31.515 85.118-81.132 111.35-148.85 42.402 91.858 107.853 151.827 196.35 179.908C1991.923 1705.594 2128.815 1644.17 2120.803 1419.139z"/><path style="fill-rule:evenodd;clip-rule:evenodd;fill:#fde2dc;" d="M1207.163 1229.146c61.865-.866 112.938.451 153.219 3.951 24.649 26.794 2.684 113.099 23.97 136.602 25.556 28.222 55.834-11.425 79.152 27.976 16.847 28.463 28.783 118.124 42.511 159.845-21.334 34.932-62.395 51.509-123.182 49.73-13.234-24.673-23.772-51.039-31.615-79.098-12.54-44.871-6.443-149.443-61.368-138.037-27.999 5.814-58.845 31.237-79.529-23.176C1194.711 1325.874 1200.666 1259.044 1207.163 1229.146z"/><path style="fill-rule:evenodd;clip-rule:evenodd;fill:#fde2dc;" d="M2030.597 1601.869c-13.389-53.869-17.594-264.866-83.511-233.918-21.697 22.866-39.372 13.867-53.025-26.997-1.375-32.466-9.138-54.292-23.288-65.477-75.152-6.534-130.888-12.183-167.209-16.946-.696 123.502 27.378 166.112 84.221 127.828 24.478-24.564 45.182-6.023 62.113 55.624 11.179 84.366 28.131 144.51 50.854 180.431C1962.522 1627.673 2005.804 1620.825 2030.597 1601.869z"/></svg>