<svg xmlns="http://www.w3.org/2000/svg" xmlns:xlink="http://www.w3.org/1999/xlink" viewBox="0 0 2500 2500"><path style="fill-rule:evenodd;clip-rule:evenodd;fill:#f6afaa;" d="M0 0h25e2v25e2H0z"/><path style="fill-rule:evenodd;clip-rule:evenodd;fill:#62c6b8;stroke:#000000;stroke-width:8.5039;stroke-linecap:round;stroke-linejoin:round;stroke-miterlimit:2.6131;" d="M867.603 1293.527c135.408-338.495 331.41-420.844 588.004-247.048 241.577-117.709 380.271-75.33 416.082 127.137 85.736 16.593 133.412 45.005 143.028 85.238 38.849 13.16 55.222 33.628 49.121 61.401 34.595 16.186 41.096 32.078 19.504 47.676 27.655 37.786 20.431 64.754-21.671 80.905 15.662 25.919-1.675 43.978-52.01 54.177-17.8 44.837-54.641 74.213-110.522 88.128 78.07 53.384 133.361 153.359 109.076 195.761-96.726 186.205-207.247 292.151-331.565 317.84-25.241 2.762-41.134 12.394-47.676 28.895-84.606 9.871-201.87 13.723-351.791 11.557-265.722-14.316-452.573-58.139-560.555-131.47C551.93 1890.923 644.393 1306.53 867.603 1293.527z"/><path style="fill-rule:evenodd;clip-rule:evenodd;fill:#62c6b8;stroke:#000000;stroke-width:8.5039;stroke-linecap:round;stroke-linejoin:round;stroke-miterlimit:2.6131;" d="M1602.782 2136.4l.003.001c-29.47 61.966-189.929 58.995-254.948 60.108-259.599 4.447-472.17-48.054-637.709-157.502-.339-9.494 1.828-17.921 6.501-25.282 107.982 73.33 294.833 117.153 560.555 131.47C1412.208 2147.146 1520.737 2144.214 1602.782 2136.4z"/><path style="fill-rule:evenodd;clip-rule:evenodd;fill:none;stroke:#000000;stroke-width:8.5039;stroke-linecap:round;stroke-linejoin:round;stroke-miterlimit:2.6131;" d="M867.603 1293.527c-6.666 40.876-12.204 79.643-16.615 116.301"/><path style="fill-rule:evenodd;clip-rule:evenodd;fill:none;stroke:#000000;stroke-width:8.5039;stroke-linecap:round;stroke-linejoin:round;stroke-miterlimit:2.6131;" d="M1525.676 1561.525c-51.268 27.946-114.836 54.192-190.704 78.737"/><path style="fill-rule:evenodd;clip-rule:evenodd;fill:none;stroke:#000000;stroke-width:8.5039;stroke-linecap:round;stroke-linejoin:round;stroke-miterlimit:2.6131;" d="M1661.48 1575.972c43.172 17.706 78.809 35.524 106.91 53.455"/><path style="fill-rule:evenodd;clip-rule:evenodd;fill:none;stroke:#000000;stroke-width:8.5039;stroke-linecap:round;stroke-linejoin:round;stroke-miterlimit:2.6131;" d="M1899.139 1591.141c-51.724 10.804-107.176 16.714-166.355 17.731"/><path style="fill-rule:evenodd;clip-rule:evenodd;fill:none;stroke:#000000;stroke-width:8.5039;stroke-linecap:round;stroke-linejoin:round;stroke-miterlimit:2.6131;" d="M1153.659 1482.787c60.118 38.148 137.411 57.893 231.879 59.234 39.01-.234 79.221.007 120.635.722 32.19-13.808 57.713-18.865 76.571-15.17 48.169-23.217 60.691-48.499 37.562-75.848"/><path style="fill-rule:evenodd;clip-rule:evenodd;fill:none;stroke:#000000;stroke-width:8.5039;stroke-linecap:round;stroke-linejoin:round;stroke-miterlimit:2.6131;" d="M1455.607 1046.479c34.191 41.927 51.047 84.546 50.566 127.858-162.616-97.202-306.126-95.756-430.529 4.334"/><path style="fill-rule:evenodd;clip-rule:evenodd;fill:none;stroke:#000000;stroke-width:8.5039;stroke-linecap:round;stroke-linejoin:round;stroke-miterlimit:2.6131;" d="M1871.688 1173.615c-13.481 2.256-24.317.329-32.506-5.78-3.124-4.977-8.661-7.145-16.614-6.501-15.036 5.566-26.834 5.807-35.396.723-9.792-4.853-23.998-7.501-42.619-7.946-88.686-4.572-168.146 2.17-238.38 20.226 20.481 29.685 50.58 58.098 90.295 85.239 17.034 9.995 18.72 25.887 5.057 47.676-140.781-70.757-280.197-57.274-418.249 40.452-23.248 12.323-56.235 17.861-98.964 16.615-20.681-3.351-31.758 4.112-33.229 22.393-.159 13.995 10.436 21.459 31.784 22.394 26.147.214 47.337 2.38 63.568 6.501"/><path style="fill-rule:evenodd;clip-rule:evenodd;fill:none;stroke:#000000;stroke-width:8.5039;stroke-linecap:round;stroke-linejoin:round;stroke-miterlimit:2.6131;" d="M1559.124 1231.308c-146.388-18.638-254.816-7.048-325.282 34.77-40.94 36.795-86.93 57.984-137.972 63.568"/><path style="fill-rule:evenodd;clip-rule:evenodd;fill:none;stroke:#000000;stroke-width:8.5039;stroke-linecap:round;stroke-linejoin:round;stroke-miterlimit:2.6131;" d="M1609.225 1290.928c119.034-61.942 254.197-72.633 405.492-32.075"/><path style="fill-rule:evenodd;clip-rule:evenodd;fill:none;stroke:#000000;stroke-width:8.5039;stroke-linecap:round;stroke-linejoin:round;stroke-miterlimit:2.6131;" d="M1618.139 1315.921c160.721-64.233 309.287-62.788 445.699 4.334"/><path style="fill-rule:evenodd;clip-rule:evenodd;fill:#960010;stroke:#000;stroke-linecap:round;stroke-linejoin:round;stroke-width:7px" d="M1634.754 2148.807c1.927 5.057.0.0-5.78-15.17l-26.192 2.763.003.001c-29.47 61.966-189.929 58.995-254.948 60.108-259.599 4.447-472.17-48.054-637.709-157.502C580.824 2055.622 354.002 2296.891 3e2 25e2h1618C1826.858 2320.131 1699.317 2185.588 1634.754 2148.807z"/><path style="fill-rule:evenodd;clip-rule:evenodd;fill:#D9BF3C;stroke:#000000;stroke-width:8.5039;stroke-miterlimit:2.6131;" d="M641.65 2043.613c13.451-4.146 28.489-1.661 41.923 5.711 11.823 6.487 22.671 17.001 29.74 29.999 1.773 3.262 3.209 6.432 4.316 9.477 4.09 11.252 4.635 22.464 1.985 32.073-3.104 11.25-10.399 20.358-21.487 25.487-1.807.837-3.577 1.526-5.3 2.057-13.454 4.147-28.49 1.661-41.925-5.71-11.822-6.488-22.67-17.002-29.739-30-1.774-3.262-3.209-6.432-4.317-9.477-4.089-11.252-4.634-22.463-1.984-32.072 3.104-11.251 10.398-20.358 21.486-25.488C638.156 2044.833 639.927 2044.143 641.65 2043.613v0zM665.059 2078.245c-4.511-2.476-8.805-3.543-11.811-2.617-.322.099-.511.162-.563.186-1.125.52-1.98 1.858-2.49 3.708-.962 3.49-.589 8.043 1.241 13.081.648 1.781 1.409 3.489 2.279 5.091 3.861 7.1 9.581 12.73 15.702 16.09 4.512 2.476 8.807 3.543 11.811 2.617.323-.098.511-.161.564-.186 1.126-.521 1.98-1.859 2.49-3.708.962-3.49.588-8.043-1.242-13.081-.647-1.781-1.408-3.488-2.278-5.091C676.901 2087.235 671.182 2081.605 665.059 2078.245z"/><path style="fill-rule:evenodd;clip-rule:evenodd;fill:#D9BF3C;stroke:#000000;stroke-width:8.5039;stroke-miterlimit:2.6131;" d="M712.919 2094.626c13.451-4.146 28.489-1.66 41.924 5.711 11.822 6.487 22.67 17.001 29.739 29.999 1.774 3.262 3.209 6.432 4.316 9.477 4.089 11.251 4.635 22.464 1.985 32.072-3.104 11.251-10.398 20.358-21.487 25.487-1.807.837-3.577 1.526-5.3 2.057-13.453 4.146-28.49 1.66-41.925-5.711-11.822-6.488-22.67-17.001-29.739-30-1.774-3.263-3.209-6.432-4.317-9.477-4.089-11.252-4.635-22.463-1.984-32.073 3.104-11.251 10.398-20.358 21.487-25.488C709.425 2095.847 711.195 2095.158 712.919 2094.626v0zM736.328 2129.26c-4.511-2.475-8.805-3.543-11.811-2.617-.322.099-.51.161-.563.186-1.125.52-1.98 1.858-2.49 3.708-.962 3.49-.589 8.043 1.241 13.081.648 1.781 1.409 3.489 2.279 5.091 3.861 7.1 9.58 12.73 15.703 16.09 4.511 2.475 8.806 3.543 11.811 2.618.322-.099.51-.163.563-.186 1.126-.521 1.981-1.86 2.49-3.708.962-3.49.588-8.044-1.242-13.081-.647-1.781-1.408-3.488-2.278-5.09C748.17 2138.249 742.45 2132.618 736.328 2129.26z"/><path style="fill-rule:evenodd;clip-rule:evenodd;fill:#D9BF3C;stroke:#000000;stroke-width:8.5039;stroke-miterlimit:2.6131;" d="M778.519 2148.058c13.452-4.146 28.489-1.661 41.924 5.711 11.823 6.487 22.671 17.001 29.74 29.999 1.773 3.262 3.208 6.432 4.316 9.477 4.089 11.251 4.635 22.463 1.985 32.072-3.104 11.25-10.399 20.358-21.487 25.487-1.807.837-3.577 1.526-5.301 2.057-13.452 4.146-28.489 1.66-41.924-5.711-11.822-6.488-22.67-17.001-29.739-29.999-1.774-3.263-3.21-6.432-4.317-9.477-4.089-11.252-4.635-22.463-1.984-32.073 3.104-11.251 10.398-20.358 21.486-25.488C775.024 2149.279 776.795 2148.59 778.519 2148.058v0zM801.928 2182.692c-4.511-2.475-8.805-3.543-11.811-2.617-.322.099-.51.161-.563.186-1.126.52-1.98 1.858-2.49 3.708-.962 3.49-.589 8.043 1.241 13.081.648 1.781 1.409 3.489 2.278 5.091 3.861 7.1 9.581 12.73 15.703 16.09 4.511 2.475 8.806 3.543 11.811 2.618.323-.099.511-.162.564-.186 1.125-.521 1.98-1.86 2.49-3.708.962-3.49.588-8.044-1.242-13.081-.647-1.781-1.408-3.488-2.279-5.09C813.77 2191.681 808.05 2186.05 801.928 2182.692z"/><path style="fill-rule:evenodd;clip-rule:evenodd;fill:#D9BF3C;stroke:#000000;stroke-width:8.5039;stroke-miterlimit:2.6131;" d="M834.214 2201.089c10.544-8.754 25.393-11.998 40.873-10.163 13.622 1.615 28.084 7.287 40.15 16.632 3.028 2.346 5.706 4.73 8.029 7.12 8.585 8.836 13.905 18.937 15.608 28.739 1.994 11.478-.775 22.528-8.731 31.316-1.297 1.433-2.622 2.717-3.974 3.839-10.545 8.754-25.393 11.998-40.873 10.163-13.622-1.615-28.084-7.288-40.15-16.632-3.028-2.346-5.706-4.73-8.029-7.121-8.585-8.835-13.905-18.935-15.608-28.738-1.993-11.479.775-22.528 8.731-31.318C831.537 2203.495 832.863 2202.211 834.214 2201.089v0zM870.557 2224.306c-5.199-.617-9.593-.019-11.949 1.937-.253.209-.398.336-.436.378-.807.892-1.015 2.436-.688 4.323.619 3.56 2.919 7.606 6.763 11.562 1.359 1.399 2.79 2.688 4.276 3.84 6.59 5.104 14.253 8.176 21.307 9.011 5.198.616 9.593.019 11.949-1.937.254-.21.398-.336.436-.378.807-.892 1.015-2.437.687-4.322-.618-3.56-2.919-7.607-6.762-11.563-1.359-1.398-2.79-2.687-4.276-3.84C885.272 2228.212 877.61 2225.141 870.557 2224.306z"/><path style="fill-rule:evenodd;clip-rule:evenodd;fill:#D9BF3C;stroke:#000000;stroke-width:8.5039;stroke-miterlimit:2.6131;" d="M921.456 2221.763c10.544-8.754 25.392-11.998 40.873-10.163 13.622 1.615 28.084 7.287 40.149 16.631 3.028 2.346 5.706 4.73 8.03 7.121 8.585 8.835 13.905 18.936 15.608 28.739 1.993 11.478-.776 22.528-8.732 31.317-1.296 1.433-2.622 2.717-3.974 3.839-10.544 8.754-25.392 11.998-40.872 10.163-13.623-1.615-28.085-7.288-40.15-16.632-3.028-2.346-5.706-4.73-8.029-7.121-8.585-8.835-13.905-18.936-15.608-28.739-1.993-11.478.775-22.527 8.732-31.317C918.778 2224.169 920.104 2222.885 921.456 2221.763v0zM957.797 2244.979c-5.198-.616-9.592-.019-11.948 1.937-.253.209-.398.336-.436.378-.807.892-1.015 2.436-.688 4.322.619 3.561 2.919 7.606 6.762 11.563 1.36 1.399 2.791 2.688 4.277 3.84 6.59 5.104 14.253 8.176 21.307 9.011 5.198.617 9.593.019 11.949-1.937.254-.21.398-.336.436-.378.808-.892 1.016-2.437.688-4.322-.619-3.561-2.919-7.607-6.762-11.563-1.359-1.398-2.79-2.688-4.277-3.84C972.513 2248.886 964.851 2245.815 957.797 2244.979z"/><path style="fill-rule:evenodd;clip-rule:evenodd;fill:#D9BF3C;stroke:#000000;stroke-width:8.5039;stroke-miterlimit:2.6131;" d="M1004.542 2246.743c10.544-8.755 25.392-11.998 40.872-10.164 13.623 1.615 28.084 7.287 40.15 16.631 3.028 2.346 5.706 4.731 8.03 7.121 8.585 8.835 13.904 18.936 15.608 28.738 1.993 11.479-.776 22.528-8.731 31.317-1.297 1.434-2.622 2.717-3.973 3.838-10.545 8.755-25.392 11.998-40.872 10.164-13.623-1.615-28.085-7.288-40.15-16.632-3.028-2.346-5.706-4.73-8.03-7.121-8.585-8.835-13.905-18.936-15.608-28.738-1.993-11.478.775-22.528 8.732-31.317C1001.864 2249.148 1003.19 2247.864 1004.542 2246.743v0zM1040.883 2269.958c-5.198-.616-9.592-.019-11.949 1.938-.253.209-.398.336-.436.378-.807.892-1.016 2.436-.688 4.323.619 3.56 2.918 7.606 6.762 11.563 1.359 1.399 2.791 2.688 4.277 3.84 6.59 5.104 14.252 8.176 21.307 9.011 5.198.616 9.593.018 11.949-1.937.253-.21.398-.336.436-.378.808-.893 1.016-2.437.688-4.322-.619-3.561-2.919-7.607-6.762-11.563-1.36-1.399-2.791-2.688-4.277-3.84C1055.599 2273.865 1047.937 2270.795 1040.883 2269.958z"/><path style="fill-rule:evenodd;clip-rule:evenodd;fill:#D9BF3C;stroke:#000000;stroke-width:8.5039;stroke-miterlimit:2.6131;" d="M1670.622 2160.939c-12.207-6.728-27.465-7.292-42.262-2.761-13.021 3.987-26 12.103-35.849 23.399-2.471 2.835-4.59 5.647-6.362 8.403-6.542 10.181-9.611 21.03-9.196 30.947.488 11.612 5.556 21.964 15.231 29.182 1.577 1.178 3.151 2.203 4.715 3.065 12.208 6.729 27.465 7.292 42.261 2.762 13.021-3.988 26.001-12.104 35.85-23.398 2.471-2.836 4.59-5.647 6.361-8.403 6.542-10.182 9.612-21.03 9.196-30.947-.488-11.613-5.556-21.964-15.231-29.183C1673.76 2162.827 1672.186 2161.801 1670.622 2160.939v0zM1639.91 2190.126c4.969-1.521 9.407-1.711 12.134-.208.293.161.463.26.509.294.982.732 1.515 2.21 1.595 4.119.151 3.602-1.244 7.977-4.173 12.536-1.035 1.613-2.165 3.129-3.378 4.521-5.379 6.171-12.243 10.534-18.985 12.599-4.969 1.521-9.407 1.71-12.135.207-.293-.161-.462-.26-.508-.293-.983-.734-1.516-2.212-1.595-4.12-.15-3.602 1.245-7.977 4.173-12.536 1.036-1.612 2.165-3.128 3.378-4.521C1626.304 2196.554 1633.167 2192.19 1639.91 2190.126z"/><path style="fill-rule:evenodd;clip-rule:evenodd;fill:#D9BF3C;stroke:#000000;stroke-width:8.5039;stroke-miterlimit:2.6131;" d="M1594.427 2200.101c-12.207-6.728-27.465-7.291-42.262-2.761-13.021 3.987-26 12.103-35.849 23.398-2.471 2.835-4.59 5.647-6.362 8.402-6.542 10.182-9.611 21.03-9.195 30.947.488 11.613 5.556 21.964 15.231 29.183 1.577 1.178 3.151 2.203 4.715 3.064 12.208 6.729 27.465 7.292 42.262 2.762 13.021-3.987 26-12.103 35.849-23.398 2.471-2.835 4.591-5.647 6.362-8.402 6.541-10.182 9.611-21.03 9.196-30.948-.488-11.612-5.556-21.964-15.231-29.183C1597.565 2201.989 1595.991 2200.963 1594.427 2200.101v0zM1563.715 2229.288c4.969-1.522 9.406-1.71 12.134-.208.293.161.463.26.509.294.982.732 1.515 2.21 1.595 4.119.151 3.602-1.244 7.976-4.173 12.536-1.036 1.612-2.165 3.129-3.378 4.521-5.379 6.171-12.243 10.534-18.985 12.599-4.969 1.522-9.408 1.71-12.134.208-.294-.161-.463-.26-.509-.294-.983-.733-1.516-2.211-1.595-4.119-.151-3.602 1.245-7.977 4.173-12.536 1.035-1.612 2.165-3.129 3.378-4.521C1550.109 2235.716 1556.972 2231.352 1563.715 2229.288z"/><path style="fill-rule:evenodd;clip-rule:evenodd;fill:#D9BF3C;stroke:#000000;stroke-width:8.5039;stroke-miterlimit:2.6131;" d="M1528.002 2240.842c-8.324-10.653-22.1-16.778-37.643-18.065-13.678-1.132-29.093 1.533-42.998 8.264-3.489 1.69-6.646 3.487-9.458 5.361-10.388 6.926-17.872 15.738-21.755 24.979-4.544 10.821-4.338 22.17 1.448 32.341.943 1.659 1.947 3.177 3.014 4.542 8.324 10.653 22.1 16.777 37.643 18.065 13.678 1.132 29.093-1.533 42.998-8.264 3.489-1.69 6.646-3.488 9.458-5.36 10.388-6.926 17.872-15.738 21.754-24.979 4.544-10.821 4.339-22.169-1.448-32.341C1530.074 2243.726 1529.068 2242.207 1528.002 2240.842v0zM1487.235 2256.298c5.219.432 9.378 1.89 11.239 4.271.2.254.313.408.341.456.587 1.031.441 2.582-.306 4.361-1.41 3.355-4.573 6.852-9.224 9.953-1.644 1.096-3.334 2.072-5.048 2.902-7.595 3.677-15.778 5.153-22.86 4.566-5.219-.433-9.379-1.891-11.238-4.271-.2-.255-.313-.408-.341-.456-.588-1.033-.441-2.583.306-4.361 1.41-3.355 4.573-6.853 9.224-9.954 1.644-1.097 3.334-2.072 5.048-2.902C1471.97 2257.187 1480.152 2255.711 1487.235 2256.298z"
		/><path style="fill-rule:evenodd;clip-rule:evenodd;fill:#D9BF3C;stroke:#000000;stroke-width:8.5039;stroke-miterlimit:2.6131;" d="M1438.069 2243.685c-8.323-10.653-22.099-16.778-37.643-18.065-13.677-1.133-29.093 1.533-42.998 8.263-3.489 1.69-6.646 3.488-9.457 5.362-10.388 6.926-17.873 15.738-21.755 24.979-4.544 10.82-4.338 22.169 1.448 32.341.943 1.658 1.948 3.176 3.015 4.541 8.324 10.654 22.099 16.778 37.643 18.065 13.677 1.133 29.093-1.532 42.998-8.263 3.489-1.689 6.646-3.487 9.458-5.361 10.388-6.925 17.873-15.738 21.754-24.978 4.545-10.821 4.339-22.169-1.447-32.341C1440.141 2246.569 1439.136 2245.05 1438.069 2243.685v0zM1397.303 2259.141c5.22.432 9.378 1.89 11.239 4.271.2.254.313.407.341.456.587 1.031.442 2.582-.306 4.361-1.41 3.355-4.573 6.852-9.224 9.953-1.645 1.096-3.335 2.071-5.049 2.901-7.595 3.677-15.777 5.153-22.86 4.567-5.22-.433-9.379-1.891-11.239-4.271-.201-.255-.313-.408-.341-.457-.588-1.032-.442-2.583.306-4.36 1.41-3.355 4.573-6.853 9.224-9.954 1.645-1.097 3.335-2.071 5.049-2.901C1382.039 2260.031 1390.22 2258.554 1397.303 2259.141z"/><path style="fill-rule:evenodd;clip-rule:evenodd;fill:#D9BF3C;stroke:#000000;stroke-width:8.5039;stroke-miterlimit:2.6131;" d="M1351.225 2251.563c-8.324-10.653-22.1-16.778-37.643-18.065-13.678-1.133-29.094 1.533-42.998 8.263-3.49 1.69-6.647 3.488-9.458 5.361-10.388 6.926-17.873 15.738-21.754 24.979-4.544 10.82-4.338 22.169 1.447 32.341.943 1.658 1.948 3.176 3.015 4.541 8.324 10.654 22.1 16.778 37.643 18.065 13.677 1.133 29.093-1.532 42.998-8.263 3.489-1.69 6.646-3.488 9.458-5.362 10.388-6.926 17.872-15.738 21.754-24.978 4.544-10.821 4.338-22.169-1.448-32.341C1353.297 2254.446 1352.292 2252.928 1351.225 2251.563v0zM1310.459 2267.019c5.219.432 9.377 1.89 11.238 4.271.2.254.313.407.341.456.588 1.032.442 2.582-.306 4.36-1.411 3.356-4.573 6.852-9.224 9.954-1.645 1.096-3.334 2.071-5.048 2.901-7.595 3.677-15.778 5.153-22.861 4.566-5.219-.433-9.378-1.891-11.239-4.271-.201-.254-.313-.407-.341-.456-.588-1.032-.442-2.583.306-4.36 1.41-3.356 4.573-6.853 9.224-9.954 1.644-1.096 3.334-2.071 5.048-2.901C1295.193 2267.908 1303.376 2266.431 1310.459 2267.019z"/><path style="fill-rule:evenodd;clip-rule:evenodd;fill:#D9BF3C;stroke:#000000;stroke-width:8.5039;stroke-miterlimit:2.6131;" d="M1088.992 2369.131c16.598 6.813 30.783 11.628 42.553 14.564l.988-50.444c-13.866-5.975-24.414-12.488-31.609-19.516-8.656-8.394-12.85-17.816-12.646-28.227.277-14.13 8.931-25.531 25.96-34.249 6.062-3.116 12.747-5.638 20.051-7.57l.644-32.885 23.195.454-.557 28.448c6.963-.633 14.338-.874 22.123-.722 4.098.08 8.33.292 12.694.631l.542-27.676 23.202.454-.588 30.008c10.414 1.652 21.796 3.969 34.193 6.923l-.805 41.107c-11.907-4.974-23.256-8.974-34.093-12.002l-.797 40.709c20.112 8.157 34.009 15.673 41.728 22.551 9.247 8.282 13.763 17.918 13.546 28.989-.335 17.104-9.816 30.763-28.442 40.938-8.425 4.584-18.038 8.071-28.848 10.465l-.689 35.165-23.202-.454.615-31.379c-6.835.513-14.035.695-21.604.546-4.25-.083-8.653-.288-13.209-.613l-.603 30.764-23.195-.454.642-32.791c-11.34-1.593-23.776-3.877-37.151-6.818L1088.992 2369.131v0zM1154.669 2387.758c4.149.424 8.269.675 12.357.755 8.791.172 16.288-.634 22.49-2.401l.574-29.284c-5.582-3.04-12.694-6.218-21.341-9.527-3.956-1.524-7.004-2.74-9.144-3.568l-4.043-1.533L1154.669 2387.758v0zM1156.846 2276.636l-.379 19.341c3.066 2.235 7.246 4.298 12.576 6.238l21.957 8.155.724-36.952c-4.021-.56-7.747-.874-11.185-.941-9.34-.183-16.681.954-22.087 3.369C1157.887 2276.1 1157.353 2276.362 1156.846 2276.636z"/><path style="fill:#FFFFFF;stroke:#000000;stroke-width:8.5039;" d="M1630.507 1393.378c0 0 77.542-68.053 178.195-87.966 100.643-19.918 207.885 36.511 207.885 36.511s47.862 1.66 66.002 26.563c18.141 24.892 26.401 43.14 3.29 63.058-23.09 19.923-130.333 59.754-250.776 63.074-120.454 3.32-209.546-18.258-209.546-18.258l-13.201-18.258L1630.507 1393.378z"/><path style="fill:#FFFFFF;stroke:#000000;stroke-width:8.5039;" d="M1132.232 1414.951c0 0 89.097-91.286 209.538-117.843 120.444-26.557 275.537 26.557 287.088 61.414 11.551 34.856-13.2 91.28-13.2 91.28s-99.003 58.094-232.636 59.749C1249.375 1511.21 1132.232 1414.951 1132.232 1414.951z"/><path d="M1429.223 1331.876c-50.978-30.166-120.438-21.578-148.489 33.186-28.048 54.78-6.6 119.498 49.496 122.823 56.101 3.325 113.843-8.299 123.744-53.109C1463.873 1389.965 1457.273 1348.475 1429.223 1331.876z"/><path style="fill:#FFFFFF;" d="M1392.921 1386.641c0 10.093-9.224 18.264-20.62 18.264-11.386.0-20.621-8.171-20.621-18.264.0-10.072 9.234-18.253 20.621-18.253C1383.698 1368.388 1392.921 1376.568 1392.921 1386.641z"/><path style="fill:#FFFFFF;" d="M1336.83 1412.363c0 7.799-7.758 14.119-17.325 14.119-9.562.0-17.32-6.32-17.32-14.119.0-7.784 7.758-14.098 17.32-14.098C1329.072 1398.265 1336.83 1404.579 1336.83 1412.363z"/><path style="fill:#FFFFFF;" d="M1340.13 1345.98c0 4.129-4.807 7.474-10.72 7.474-5.929.0-10.736-3.346-10.736-7.474.0-4.119 4.807-7.464 10.736-7.464C1335.323 1338.516 1340.13 1341.861 1340.13 1345.98z"/><path d="M1906.055 1325.237c-45.863-20.501-115.504-19.918-138.594 14.939-23.111 34.856-24.751 92.94-9.9 114.518 14.85 21.578 39.591 26.552 75.892 28.217 36.301 1.65 80.852-3.325 94.052-44.815C1940.696 1396.599 1935.746 1338.516 1906.055 1325.237z"/><path style="fill:#FFFFFF;" d="M1874.704 1376.687c0 10.078-9.234 18.258-20.63 18.258-11.386.0-20.62-8.181-20.62-18.258.0-10.083 9.234-18.258 20.62-18.258C1865.47 1358.429 1874.704 1366.604 1874.704 1376.687z"/><path style="fill:#FFFFFF;" d="M1818.602 1402.409c0 7.794-7.748 14.114-17.32 14.114-9.562.0-17.32-6.32-17.32-14.114.0-7.789 7.758-14.104 17.32-14.104C1810.855 1388.305 1818.602 1394.62 1818.602 1402.409z"/><path style="fill:#FFFFFF;" d="M1821.902 1336.021c0 4.129-4.796 7.474-10.72 7.474-5.924.0-10.72-3.345-10.72-7.474.0-4.119 4.797-7.47 10.72-7.47C1817.106 1328.551 1821.902 1331.902 1821.902 1336.021z"/><path style="fill:#62c6b8;stroke:#000000;stroke-width:8.5039;" d="M1631.799 1384.914c.431-9.304-.297-18.413-2.941-26.392-11.55-34.856-166.644-87.971-287.088-61.414-93.942 20.717-168.809 80.806-197.206 106.245C1296.235 1330.825 1474.511 1332.042 1631.799 1384.914z"/><path style="fill:#62c6b8;stroke:#000000;stroke-width:8.5039;" d="M1623.907 1416.925l-11.55 41.176 13.201 18.258c0 0 89.092 21.578 209.546 18.258 120.443-3.32 227.686-43.151 250.776-63.074 14.712-12.681 16.644-24.702 11.473-38.166C1942.5 1433.25 1776.188 1479.571 1623.907 1416.925z"/><path style="fill:#62c6b8;stroke:#000000;stroke-width:8.5039;" d="M2097.025 1392.502c-3.008-7.433-8.097-15.315-14.436-24.016-18.14-24.903-66.002-26.563-66.002-26.563s-107.243-56.429-207.885-36.511c-100.653 19.913-178.195 87.966-178.195 87.966l-3.505 12.505C1771.771 1334.799 1940.245 1361.027 2097.025 1392.502z"/><path style="fill:#62c6b8;stroke:#000000;stroke-width:8.5039;" d="M1134.974 1412.25c-1.781 1.722-2.742 2.701-2.742 2.701s117.143 96.26 250.789 94.6c133.633-1.655 232.636-59.749 232.636-59.749s7.353-16.83 12.17-37.769C1465.897 1455.75 1294.784 1455.823 1134.974 1412.25z"/><path style="fill:#9F4238;" d="M2014.537 1699.497c-28.302-32.317-76.914-16.189-335.269-9.692-149.649 3.766-446.23-12.683-513.836 69.608-42.586 51.823 28.261 212.25 306.638 270.675C1914.285 2122.907 2085.366 1780.337 2014.537 1699.497z"/><path style="fill:none;stroke:#000000;stroke-width:8.5039;" d="M2014.537 1699.497c-28.302-32.317-76.914-16.189-335.269-9.692-149.649 3.766-446.23-12.683-513.836 69.608-42.586 51.823 28.261 212.25 306.638 270.675C1914.285 2122.907 2085.366 1780.337 2014.537 1699.497z"/><path style="fill:#FFFFFF;stroke:#000000;stroke-width:8.5039;" d="M1964.798 1744.231c-23.769-22.563-64.597-11.304-281.553-6.768-125.672 2.63-374.737-8.856-431.513 48.6-35.762 36.177 23.732 148.187 257.509 188.978C1880.608 2039.841 2024.274 1800.668 1964.798 1744.231z"/><path d="M1935.052 1814.276c1.506-39.395-3.319-66.24-8.304-83.038-3.375-.233-7.021-.399-10.978-.499 5.001 15.862 10.506 43.3 8.802 85.043-34.238 4.808-69.956 8.579-106.37 11.492-.794-27.144-2.845-52.543-4.424-72.138-.634-7.826-1.246-15.43-1.626-21.578-3.36.127-6.73.255-10.246.393.327 5.439.877 12.484 1.63 21.844 1.584 19.606 3.64 45.121 4.419 72.282-41.908 3.157-84.616 5.206-126.924 6.414.322-40.049-2.539-76.259-4.611-96.912-3.376.055-6.824.111-10.35.144 1.979 20.321 4.809 56.835 4.466 97.045-41.773 1.063-83.032 1.318-122.65 1.025-1.142-41.998-8.101-76.519-13.476-97.405-3.495.039-6.979.089-10.49.139 5.302 20.082 12.551 54.72 13.736 97.183-53.374-.526-103.456-2.021-147.39-3.855-.436-36.177-3.433-67.353-5.708-86.184-3.433.36-6.824.748-10.189 1.147 2.244 18.515 5.188 49.087 5.64 84.6-61.424-2.692-109.73-5.959-136.349-7.948.706 3.063 1.672 6.214 2.913 9.448 27.456 2.022 74.463 5.134 133.493 7.71.0 30.328-1.957 63.625-7.706 95.727 3.178 1.346 6.367 2.692 9.68 4.005 6.17-33.248 8.257-67.846 8.278-99.299 43.98 1.827 94.093 3.317 147.478 3.838.249 39.417-4.928 84.832-21.515 131.295 3.396.565 6.808 1.152 10.168 1.662 16.597-47.027 21.826-92.957 21.577-132.873 39.524.293 80.69.033 122.375-1.013-1.065 51.419-7.722 107.158-28.032 141.973 3.889-.078 7.769-.166 11.591-.316 19.432-36.825 25.892-91.601 26.931-141.939 42.406-1.202 85.239-3.246 127.277-6.403.768 44.397-2.327 91.795-16.633 124.277 4.31-1.451 8.522-2.968 12.686-4.519 12.245-33.48 14.935-78.497 14.188-120.556 36.149-2.88 71.618-6.601 105.669-11.326-1.22 19.085-3.942 40.956-8.74 65.714 4.466-4.093 8.699-8.219 12.682-12.384 3.474-20.298 5.562-38.559 6.553-54.819 11.685-1.706 23.115-3.584 34.409-5.539 1.412-3.395 2.659-6.751 3.729-10.041C1960.378 1810.289 1947.869 1812.382 1935.052 1814.276z"/><path d="M1066.261 1710.735c-1.429.482-35.041 12.173-44.96 41.379-6.209 18.273-1.626 39.092 13.609 61.882.888 1.328 2.688 1.689 4.022.797 1.33-.889 1.688-2.693.802-4.025-14.168-21.19-18.521-40.286-12.946-56.758 8.968-26.482 41.011-37.671 41.334-37.776 1.519-.525 2.329-2.172 1.818-3.684C1069.424 1711.03 1067.774 1710.224 1066.261 1710.735z"/><path style="fill-rule:evenodd;clip-rule:evenodd;stroke:#000000;stroke-width:8.5039;stroke-miterlimit:2.6131;" d="M1166.133 1119.125c90.864-80.249 212.317-167.096 364.363-260.55C1222.611 676.544 1153.5 540.5 803.208 929.372c-143.607 159.424-191.712 328.206-114.294 535.215 33.036-59.87 91.08-112.615 174.12-158.237C1004.668 1234.586 1105.7 1172.176 1166.133 1119.125v0z"/><path style="fill-rule:evenodd;clip-rule:evenodd;fill:#5A5A5A;stroke:#000000;stroke-width:8.5039;stroke-miterlimit:2.6131;" d="M1530.496 858.574c-171.095 107.636-292.548 194.489-364.363 260.55 134.708-28.247 245.904-11.083 333.589 51.495 136.449-40.485 236.575-66.85 356.778-55.12 142.882-63.51 236.786-181.197 220.84-279.135C2036.637 586.319 1655.786 775.896 1530.496 858.574v0z"/><path style="fill-rule:evenodd;clip-rule:evenodd;fill:#5A5A5A;stroke:#5A5A5A;stroke-width:8.5039;stroke-miterlimit:2.6131;" d="M812.394 917.729c17.309-24.178 37.76-46.078 61.353-65.695C814.074 843.608 793.623 865.508 812.394 917.729v0z"/><path style="fill:none;stroke:#5A5A5A;stroke-width:8.5039;stroke-linecap:round;stroke-linejoin:round;stroke-miterlimit:2.6131;" d="M812.394 917.729C776.59 1046.519 774.43 1153.103 826.5 1293.5"/><path style="fill:none;stroke:#5A5A5A;stroke-width:8.5039;stroke-linecap:round;stroke-linejoin:round;stroke-miterlimit:2.6131;" d="M873.747 852.034C1050.5 858.5 1114.889 911.457 1226.5 1031.5"/><path style="fill:#FFFFFF;" d="M1186.987 817.184c7.903 9.751 6.917 18.198-3.619 29.203 11.423 12.45 22.863 24.919 34.646 37.762 6.629-7.997 4.401-17.138 4.395-25.885.38-.203.76-.406 1.141-.608 1.423 2.701 3.388 5.25 4.178 8.128 4.026 14.677-2.398 29.081-15.099 38.065-7.495 5.302-15.361 8.035-24.13 7.93-12.012-.143-21.479-5.204-26.978-16.293-.59-1.191-.329-2.804-.491-4.217-.021-.183-.242-.333-.312-.521-.304-.81-.718-1.607-.849-2.449-.266-1.712-.376-3.45-.55-5.177-3.506.741-2.332-2.258-2.446-3.547-.466-5.274-.552-10.584-.757-15.374-5.953 3.994-9.86 10.424-10.284 18.974-.073 1.471-.612 2.922-.935 4.383-1.172-1.277-2.344-2.554-3.515-3.831-2.791-8.295-1.61-16.302 2.768-23.668 1.579-2.657 5.24-4.048 6.98-6.659 2.51-3.767 5.218-6.43 9.439-8.655 7.364-3.883 13.902-9.346 20.781-14.155 4.788-3.347 5.763-6.106 4.351-12.224C1186.129 817.971 1186.558 817.578 1186.987 817.184zM1197.071 897.251c.242.475.485.95.727 1.424 4.803-2.199 9.845-3.998 14.341-6.708 4.493-2.709 4.448-5.011.968-8.806-8.093-8.824-16.188-17.645-24.283-26.468-2.606-2.841-5.213-5.682-7.995-8.714-2.187 1.575-3.978 2.863-6.096 4.388 5.622 6.128 10.525 11.999 15.991 17.289 6.13 5.933 8.433 12.867 7.241 21.184C1197.659 892.976 1197.369 895.114 1197.071 897.251zM1183.011 899.436c3.4-.807 6.478-1.537 10.696-2.538-1.049-2.422-1.779-5.461-3.496-7.761-2.667-3.573-5.436-7.071-8.797-10.183-5.45-5.046-10.123-10.921-15.252-16.325-1.065-1.122-2.688-1.713-4.053-2.549-.55 1.691-1.912 3.62-1.508 5.031 1.736 6.051 3.272 12.348 6.266 17.787 2.83 5.141 7.496 9.239 11.149 13.955 2.284 2.949 4.189 6.194 6.665 9.907C1184.062 904.045 1183.6 902.02 1183.011 899.436z"/><path style="fill:#FFFFFF;" d="M1333.68 814.321c-.761-1.387-2.044-2.719-2.189-4.172-.543-5.455-.715-10.949-1.065-17.12-3.71.437-7.242.73-10.73 1.304-2.519.414-4.286-.164-6.053-2.141-7.599-8.507-15.315-16.912-23.146-25.206-1.989-2.107-1.82-3.529-.342-5.913 1.963-3.165 2.947-6.918 4.776-10.183 1.234-2.202 3.245-5.682 4.829-5.652 4.305.083 6.863-3.582 10.824-3.81 4.039-.232 6.145-2.626 6.436-6.758.107-1.516.886-2.99 1.359-4.484.398-.085.795-.169 1.193-.254.76 2.003 1.521 4.005 2.458 6.473 2.785.268 3.696 2.129 1.244 4.822-1.057 1.161-2.305 2.147-3.851 3.565 5.664 6.174 11.161 12.052 16.508 18.063 1.547 1.739 2.667 3.857 4.405 6.425.336-.009 1.518-.04 2.775-.073.223.344.697.743.635 1.033-.687 3.246.745 3.013 3.029 2.052 1.101-.463 2.553-.731 3.65-.417 2.408.688 4.153 3.732 7.264 1.89.928 1.807 2.981 3.904 2.592 5.372-1.788 6.751-2.204 14.123-10.462 17.677-7.057 3.037-11.583 9.346-14.854 16.326C1334.538 813.534 1334.109 813.927 1333.68 814.321zM1297.663 757.542c2.104 3.182 3.701 6.463 6.083 9.01 4.06 4.341 9.137 7.802 12.813 12.41 3.819 4.788 7.874 5.53 14.259 2.961-.934-3.598-.939-8.08-3.084-10.969-4.617-6.216-10.217-11.73-15.702-17.245-1.1-1.106-3.763-1.732-5.209-1.202C1303.703 753.651 1300.906 755.69 1297.663 757.542zM1334.431 797.251c7.095-4.829 14.141-9.626 20.704-14.092-6.675-1.624-14.025-3.412-21.682-5.274C1333.783 784.442 1334.123 791.17 1334.431 797.251z"/><path style="fill:#FFFFFF;" d="M1230.027 819.757c-.503 3.224-1.101 6.493-1.468 9.786-.098.875.264 2.037.838 2.704 3.359 3.906 6.911 7.647 10.226 11.589.616.733.703 2.152.585 3.208-.201 1.795-.76 3.552-1.169 5.325 1.737-.198 3.479-.355 5.207-.616.678-.102 1.323-.435.954-.307 3.224 1.139 5.646 1.995 8.79 3.106-.375 3.202-.834 7.119-1.325 11.314-4.224.149-8.103.286-10.442.368-2.587-4.057-4.278-7.584-6.754-10.425-6.808-7.811-13.946-15.335-21.112-23.145-1.691 1.218-3.071 2.212-4.738 3.413-1.169-1.274-2.369-2.582-3.801-4.142 1.286-1.384 2.632-2.834 4.197-4.517-4.024-5.88-8.69-10.645-16.416-11.201-.009-.356-.018-.711-.027-1.067 3.309-.568 6.617-1.137 10.212-1.755-.439-4.864-1.175-9.855 3.694-13.684.059 13.248 11.252 18.802 17.474 27.719.377-.08.755-.16 1.132-.241.979-6.608 1.958-13.216 2.972-20.061 6.482-.58 11.978.687 16.338 5.448 6.437 7.029 12.847 14.083 19.347 21.052 2.797 2.999 3.359 6.943 4.965 10.396 5.215 11.207-1.042 19.649-5.498 28.655-.746 1.508-2.236 2.653-3.382 3.966-.399-.239-.797-.479-1.196-.718.494-1.352 1.068-2.681 1.467-4.059 1.281-4.425 3.162-8.81 3.594-13.318.807-8.436-3.988-14.485-9.98-19.702-1.083-.943-2.209-1.852-3.184-2.899-4.103-4.406-8.346-8.703-12.161-13.349C1236.815 819.494 1233.982 818.641 1230.027 819.757z"/><path style="fill:#FFFFFF;" d="M1292.216 818.228c-.417-1.73-1.453-3.58-1.134-5.168.888-4.424-.325-7.64-3.588-10.722-4.181-3.949-7.724-8.565-11.814-12.619-2.507-2.485-5.524-4.456-9.211-7.368.236-2.339.622-6.173.987-9.788.59-.341.828-.589 1.082-.609 11.275-.869 11.189-.84 13.431 9.954.299 1.437 1.937 2.853 3.309 3.729 1.896 1.211 4.127 1.899 7.008 3.158-1.917 1.243-2.666 1.728-2.526 1.638 2.034 1.371 4.261 2.66 6.228 4.266 1.648 1.346 2.984 3.069 4.471 4.613 4.645 4.822 4.647 4.82 10.127.875-.35 4.542-.475 8.659-1.121 12.696-.153.959-2.23 2.498-3.123 2.32-4.079-.813-8.051-2.142-12.363-3.371-.413 1.381-1.163 3.882-1.912 6.383L1292.216 818.228z"/><path style="fill:#FFFFFF;" d="M1292.067 818.214c-.185 4.059-.369 8.119-.566 12.452-6.841-.211-12.299.242-16.885-6.238-5.602-7.915-13.226-14.432-20.288-21.231-1.18-1.136-3.945-.629-6.847-.989.339-3.629.788-8.432 1.287-13.759 4.015-.119 7.85-.233 11.629-.345 3.653 12.94 15.267 19.459 22.749 29.189 1.946 2.53 5.769 3.067 9.073.933C1292.216 818.228 1292.067 818.214 1292.067 818.214z"/><path style="fill:#FFFFFF;" d="M1268.819 887.509c-.602 1.353-1.055 2.798-1.831 4.043-3.641 5.845-3.227 9.802 1.301 14.823 2.092 2.32 3.828 4.971 5.628 7.541 2.212 3.157 5.062 5.271 8.326 7.454 4.116 2.753 7.756 7.222 9.8 11.77 2.282 5.078 2.973 11.029 3.546 16.687.424 4.195-.447 8.53-.738 12.74 4.339-4.935 8.235-9.983 12.775-14.365 4.953-4.781 10.75-8.279 18-8.784 1.16-.081 2.244-2.21 3.261-3.474.675-.838 1.168-1.821 1.742-2.74.42.178.839.357 1.259.535-.504 6.861-1.008 13.723-1.578 21.48-4.458-.108-8.744-.251-13.031-.281-.806-.006-2.13.217-2.349.712-2.545 5.741-9.071 7.404-12.42 12.191-4.633 6.621-8.996 13.43-13.433 20.186-.819 1.248-1.437 2.626-2.148 3.945-.495-.088-.99-.176-1.484-.264.165-3.607.535-7.221.437-10.818-.097-3.554.022-7.348-1.168-10.583-2.767-7.521-8.164-9.545-15.645-6.655-.913.353-1.818.724-2.727 1.086-.303-.29-.606-.58-.909-.87 2.113-2.709 4.226-5.418 6.365-8.16-3.477-4.731-8.779-4.204-17.545 1.935-1.291-4.24-.811-5.352 5.478-12.943-2.837-4.026-6.235-7.681-8.219-11.994-1.984-4.311-2.553-9.281-3.859-14.421-2.32 7.011-7.697 10.667-13.913 13.554-3.508 1.629-5.887 4.172-4.75 8.589.261 1.014-.132 2.201-.277 3.954-3.864-2.547-5.034-5.857-4.547-9.495 1.017-7.59 2.958-14.654 11.515-17.61 7.869-2.718 13.91-7.627 16.938-15.953.088.731.328 1.478.242 2.189-1.145 9.444 2.995 16.748 9.187 23.238 2.092 2.193 3.946 4.692 6.319 6.52 3.73 2.872 6.254 6.124 5.316 11.17 5.371-.938 8.272.311 10.221 5.631 2.415 6.593 4.036 13.485 5.94 20.265.403 1.435.547 2.944.81 4.419.481-.021.962-.043 1.443-.065.068-4.483 1.043-9.197-.001-13.396-1.714-6.893-4.74-13.451-7.204-20.154-.383-1.042-1.224-2.232-.988-3.132.955-3.639-.813-4.357-3.84-4.108-.629.052-1.517.207-1.87-.126-6.994-6.583-15.235-11.978-19.548-21.098-3.965-8.384-1.232-19.548 6.413-24.874.768-.535 1.816-.667 2.734-.986C1268.135 887.047 1268.477 887.278 1268.819 887.509z"/><path style="fill:#FFFFFF;" d="M1355.994 912.259c.473-4.863-1.84-8.792-5.267-12.422-7.309-7.744-14.432-15.662-21.804-23.697-1.927 1.477-3.491 2.676-5.281 4.048-2.355-2.696-5.266-4.906-1.331-8.6.442-.415-.125-2.887-.918-3.478-6.891-5.129-7.475-11.684-5.508-19.518.919-3.661 1.838-6.326 5.601-7.732 2.515-.939 4.775-2.57 7.443-4.055 1.618 3.327 3.038 6.247 4.615 9.489-3.04 1.932-5.926 3.766-9.133 5.804 2.85 3.106 5.517 6.013 8.532 9.3 2.305-1.897 4.704-3.87 7.514-6.181 1.26 2.174 2.378 4.104 3.463 5.978-1.993 2.055-3.852 3.972-5.945 6.13 8.787 9.577 17.283 18.975 25.998 28.166 1.117 1.178 3.432 1.149 5.08 1.917 1.223.57 2.264 1.525 4.065 2.783.552-.507 1.938-1.778 4.228-3.879-1.002 4.964-1.79 8.872-2.584 12.804C1368.703 910.13 1362.381 911.189 1355.994 912.259z"/><path style="fill:#FFFFFF;" d="M1407.066 861.594c-1.24 7.233-2.32 14.5-3.883 21.665-.247 1.132-2.565 2.173-4.106 2.625-5.141 1.506-10.363 2.726-14.608 3.813-2.425-3.627-4.8-7.984-7.938-11.695-5.592-6.61-11.711-12.771-17.458-19.254-1.359-1.533-2.19-3.563-3.108-5.441-.263-.538-.007-1.942.054-1.945 6.626-.329-.948-6.938 3.823-8.723.898-.336-.015-5.592-.074-7.893 8.657.105 16.676.202 25.099.304-.845 7.762-1.293 15.283-2.594 22.659-.926 5.247-.069 9.3 4.201 12.525 1.675 1.265 3.332 3.918 4.822 3.786 3.512-.311 7.3-1.331 10.21-3.238 1.513-.992 1.284-4.515 2.073-6.818.381-1.114 1.294-2.05 1.967-3.066C1406.052 861.129 1406.559 861.362 1407.066 861.594zM1380.724 846.829c-5.431-.064-10.383-.123-15.43-.182 4.094 4.462 8.249 8.991 13.029 14.2C1379.2 855.727 1379.938 851.42 1380.724 846.829z"/><path style="fill:#FFFFFF;" d="M1302.542 899.659c.675-5.116 1.202-9.103 1.791-13.562 2.718-.085 5.371-.169 8.258-.259.052 1.594.094 2.855.151 4.611 1.263-1.873 2.281-3.383 3.298-4.894.444.02.888.04 1.332.06-.98 7.065 4.428 10.211 7.909 14.574 3.376 4.231 6.38 8.764 9.825 12.935 3.395 4.111 7.293 7.686 12.863 8.512.937-1.713 1.67-3.055 2.403-4.396.582.145 1.164.291 1.746.436-.845 5.176-1.138 10.527-2.746 15.46-.931 2.856-8.464 2.14-11.691-1.208-4.999-5.187-9.82-10.576-14.335-16.187-2.297-2.854-3.749-6.386-5.614-9.594-.284-.489-.81-1.306-1.097-1.253C1310.55 906.021 1309.332 896.867 1302.542 899.659z"/><path style="fill:#FFFFFF;" d="M1293.302 867.46c2.004-1.838 3.648-3.347 5.852-5.369.515 5.533.972 10.443 1.429 15.352-.238.123-.476.246-.714.37C1297.73 874.442 1295.591 871.07 1293.302 867.46z"/><path style="fill:#000000;" d="M1652.851 1262.357c91.063 4.806 179.421 9.473 265.518 14.016 83.502 4.408 164.637 8.705 243.738 12.882 4.627.24 4.627.24 5.234 8.039 1.568 20.033 3.033 40.201 4.614 60.407 1.588 20.309 3.185 40.69 4.902 61.212.491 4.821-.209 6.081-2.968 5.934-10.684-.586-21.208-.578-32.003-1.132-2.527-.143-3.248.951-2.903 5.627 1.639 19.263 2.937 38.518 4.47 57.918.464 4.712-.107 6.412-2.889 6.259-10.655-.529-21.263-.321-31.917-.817-3.125-.122-4.208.912-3.678 7.026 1.544 19.214 2.63 38.494 4.184 57.882.495 5.585-.48 6.668-3.284 6.515-10.973-.333-21.899.001-32.993-.405-2.916-.085-3.394 1.574-3.082 6.489 1.502 20.084 2.545 40.271 4.06 60.495.433 4.985-.318 6.122-3.02 6.141-46.763.271-94.228.583-142.396.934-48.99.356-98.802.757-149.319 1.2-3.407.025-4.048-1.827-4.075-6.947-.596-21.073-1.54-42.032-2.015-62.92-.166-5.861-1.248-7.053-4.507-6.958-12.344.24-24.704-.155-37.166.047-3.027.061-3.646-1.474-3.753-6.144-.499-21.37-1.344-42.557-1.721-63.739-.118-5.044-.958-6.365-3.962-6.379-12.476.089-24.85-.456-37.442-.367-3.236.022-4.185-1.385-4.284-6.729-.421-22.953-.902-45.759-1.49-68.447-.589-22.616-1.173-45.081-1.587-67.427-.099-5.382-.925-6.995-4.336-7.094-27.294-.892-17.378-.039-45.245-1.44-3.413-.179-4.31 1.272-4.264 6.808.42 22.68.727 45.472 1.035 68.416.309 23.019.733 46.154 1.159 69.405.045 5.345-.752 6.857-3.988 6.726-13.18-.564-26.238-.4-39.299-.925-3.122-.092-4.157 1.084-3.908 6.354.305 21.575.261 43.183.683 64.911.017 5.346-.675 7.188-4.171 7.095-13.052-.447-26.102.069-39.269-.573-4.311-.176-5.131 2.183-5.026 8.692.432 21.345.279 42.844.478 64.379-.01 5.231-.484 7.326-4.125 7.353-97.159.553-197.018 1.281-300.055 2.153-3.526.066-4.662-1.101-4.36-6.938.73-23.018 1.224-46.074 2.063-68.889.314-6.24-.315-8.473-4.747-8.371-14.468.501-28.776-.301-43.244.203-5.136.18-5.862-2.233-5.493-9.175 1.051-22.378 1.518-44.637 2.56-66.768.346-6.287-.993-7.617-4.925-7.6-14.809.12-29.818-.582-44.972-.507-3.469-.016-4.211-1.634-4-6.738 1.077-23.087 1.921-46.138 2.987-69.018.342-5.47-.631-6.942-4.189-6.961-15.259-.148-30.491-1.001-45.758-1.028-4.134.007-4.248-2.49-4.018-7.385 1.151-24.724 2.296-49.323 3.434-73.754 1.134-24.308 2.261-48.534 3.382-72.592.311-6.678 1.613-7.936 5.786-7.674 109.567 5.875 215.749 11.529 318.547 16.957C1499.589 1254.255 1558.854 1257.39 1652.851 1262.357v0z"/><path style="fill:#ffffff;" d="M1432.832 1403.995c.152-23.156.532-46.15.339-69.002.07-5.975 1.123-8.531 5.216-8.243 12.964.879 25.816 1.443 38.558 1.571 4.208.055 5.103 2.669 5.064 8.596-.263 22.708-.07 45.541-.219 68.483-.118.347-.348.734-.466 1.121-1.621 2.254-3.685 2.041-5.749 1.981-12.158-.185-24.317-.527-36.473-1.027-1.949-.095-4.016.042-5.709-2.365C1433.282 1404.714 1432.943 1404.352 1432.832 1403.995v0z"/><path style="fill:#ffffff;" d="M1530.058 1406.83c-.079-22.971-.043-45.822-.351-68.608.009-5.888 1.15-7.737 4.789-7.51 12.738.789 25.25 1.34 37.874 1.622 3.412.062 4.557 1.994 4.575 7.493.071 20.145.254 40.296.552 60.603.251 5.887-1.004 7.891-4.788 7.705-14.103-.68-28.435-.973-42.765-1.426C1529.944 1406.749 1529.944 1406.787 1530.058 1406.83v0z"/><path style="fill:#ffffff;" d="M1979.553 1419.171c-1.241-21.108-2.36-42.109-3.702-62.97-.292-5.484.263-7.819 3.796-7.567 10.709.794 21.402 1.229 32.073 1.307 3.407.034 4.34 2.451 4.657 7.861 1.209 20.75 2.426 41.608 3.763 62.574-.097.319-.19.636-.399.987-1.139 2.097-2.869 1.871-4.587 1.859-10.084-.142-20.064-.462-30.279-.891-1.722-.085-3.433.045-4.924-2.106C1979.818 1419.858 1979.685 1419.497 1979.553 1419.171v0z"/><path style="fill:#ffffff;" d="M2060.269 1421.535c-1.444-21.002-2.767-41.898-4.312-62.691-.34-5.413.573-7.068 3.649-6.871 10.594.678 21.058 1.108 31.508 1.324 2.839.046 3.866 1.806 4.324 6.863 1.145 18.4 2.29 36.871 3.784 55.421.368 5.373-.422 7.207-3.523 7.049-11.711-.587-23.625-.789-35.552-1.203C2060.151 1421.461 2060.152 1421.497 2060.269 1421.535v0z"/><path style="fill:#ffffff;" d="M1432.384 1482.467c-16.758-.321-33.402-.599-50.392-.882.114.039.114.079.231.081.279-23.845.673-47.648.72-71.263.101-6.14 1.281-8.083 5.178-7.893 15.014.707 29.921.978 44.711 1.484l-.113-.122c1.812 2.055 2.122 4.974 2.202 8.043-.005 20.754-.127 41.624-.365 62.53-.145 2.591-.291 5.183-1.47 7.208C1432.854 1481.924 1432.62 1482.156 1432.384 1482.467v0z"/><path style="fill:#ffffff;" d="M1529.945 1406.71c.194 23.091.156 46.252.349 69.613.222 6.044-1.168 8.038-4.867 7.897-14.447-.515-29.126-.683-43.805-.928-.114-.275-.344-.514-.573-.791-1.257-2.051-1.356-4.668-1.338-7.206-.089-20.77-.178-41.5.077-62.106.02-3.084.384-5.922 2.117-7.903-.115.036-.115.075-.115.114 16.165.506 32.218.968 48.269 1.431C1529.944 1406.787 1529.944 1406.749 1529.945 1406.71v0z"/><path style="fill:#ffffff;" d="M1983.598 1490.704c-13.87-.233-27.624-.501-41.609-.734.002.036.002.072.119.073-1.165-21.722-2.212-43.371-3.483-64.879-.271-5.594.674-7.404 3.888-7.239 12.394.61 24.77.859 37.04 1.248l-.121-.111c1.475 1.906 1.96 4.53 2.11 7.324 1.359 18.958 2.377 37.945 3.283 57.037.125 2.329.136 4.693-.688 6.575C1984.036 1490.244 1983.817 1490.457 1983.598 1490.704v0z"/><path style="fill:#ffffff;" d="M2060.147 1421.426c1.336 21.109 2.675 42.249 4.252 63.539.349 5.516-.573 7.338-3.7 7.215-12.037-.487-24.165-.549-36.301-.753-.13-.252-.374-.506-.62-.758-1.033-1.867-1.286-4.218-1.421-6.569-1.33-18.946-2.543-37.818-3.407-56.648-.163-2.778-.086-5.404 1.298-7.178-.113.032-.111.068-.108.102 13.414.389 26.714.773 40.128 1.159C2060.152 1421.497 2060.151 1421.461 2060.147 1421.426v0z"/><path style="fill:#ffffff;" d="M1381.992 1481.584c-.051 24.045-.569 48.166-.739 72.409.127 6.378-1.305 8.391-5.265 8.254-13.745-.342-27.379-.368-41.25-.194-3.731.062-5.085-2.02-4.954-8.086.703-21.748 1.056-43.46 1.174-65.055.135-6.266 1.453-8.359 5.381-8.213 15.366.576 30.626.712 45.884.966C1382.106 1481.664 1382.106 1481.624 1381.992 1481.584v0z"/><path style="fill:#ffffff;" d="M1481.622 1483.292c.077 23.494-.079 47.024-.004 70.713.075 6.244-.875 8.932-5.185 8.795-13.048-.415-26.331-.478-39.502-.185-4.313.098-5.214-2.621-5.257-8.911.51-23.9.553-47.609.711-71.236-.23.036-.116.076-.116.076 1.539-3.156 3.853-3.353 5.932-3.318 12.596.022 25.074.238 37.667.69 2.195.037 4.388.31 5.87 3.457C1481.621 1483.369 1481.621 1483.331 1481.622 1483.292v0z"/><path style="fill:#ffffff;" d="M1941.99 1489.969c1.171 21.866 2.232 43.841 3.528 65.89.28 5.773-.68 7.644-3.948 7.521-11.315-.343-22.616-.361-33.909-.197-3.143.057-4.272-1.8-4.51-7.323-.857-19.8-1.829-39.528-2.794-59.15-.361-5.667.594-7.613 3.95-7.448 12.611.503 25.202.57 37.801.78C1941.992 1490.041 1941.991 1490.006 1941.99 1489.969v0z"/><path style="fill:#ffffff;" d="M2024.399 1491.426c1.362 21.393 2.611 42.822 4.102 64.394.331 5.696-.226 8.148-3.845 8.024-10.972-.407-21.807-.46-32.627-.19-3.723.091-4.553-2.35-4.857-8.084-1.158-21.753-2.31-43.327-3.573-64.866-.114.035-.112.07-.112.07 1.117-2.882 2.955-3.064 4.803-3.032 10.504.037 20.788.217 31.196.575 1.849.032 3.595.275 5.033 3.182C2024.403 1491.498 2024.401 1491.461 2024.399 1491.426v0z"/><path style="fill:#000000;" d="M1481.737 1483.371c-16.413-.275-32.941-.55-49.469-.828.075-26.38.264-52.603.452-78.67 16.509.474 32.789.944 49.185 1.413C1481.85 1431.197 1481.793 1457.226 1481.737 1483.371v0z"/><path style="fill:#000000;" d="M2024.518 1491.499c-13.638-.266-27.162-.493-41.032-.725-1.395-24.048-2.669-47.916-4.054-71.713 13.758.396 27.173.785 40.816 1.212C2021.629 1443.908 2023.127 1467.613 2024.518 1491.499v0z"/><path style="fill:#000000;fill-rule:evenodd;clip-rule:evenodd;" d="M1108.643 1309.796 1075.504 1239.706 878.534 1259.408 864 1295.875 1108.643 1309.796z"/></svg>