<svg xmlns="http://www.w3.org/2000/svg" xmlns:xlink="http://www.w3.org/1999/xlink" viewBox="0 0 2500 2500"><path style="fill-rule:evenodd;clip-rule:evenodd;fill:#d1c9df;" d="M0 0h25e2v25e2H0z"/><path style="fill-rule:evenodd;clip-rule:evenodd;fill:#2da11c;stroke:#000000;stroke-width:8.5039;stroke-linecap:round;stroke-linejoin:round;stroke-miterlimit:2.6131;" d="M867.603 1293.527c135.408-338.495 331.41-420.844 588.004-247.048 241.577-117.709 380.271-75.33 416.082 127.137 85.736 16.593 133.412 45.005 143.028 85.238 38.849 13.16 55.222 33.628 49.121 61.401 34.595 16.186 41.096 32.078 19.504 47.676 27.655 37.786 20.431 64.754-21.671 80.905 15.662 25.919-1.675 43.978-52.01 54.177-17.8 44.837-54.641 74.213-110.522 88.128 78.07 53.384 133.361 153.359 109.076 195.761-96.726 186.205-207.247 292.151-331.565 317.84-25.241 2.762-41.134 12.394-47.676 28.895-84.606 9.871-201.87 13.723-351.791 11.557-265.722-14.316-452.573-58.139-560.555-131.47C551.93 1890.923 644.393 1306.53 867.603 1293.527z"/><path style="fill-rule:evenodd;clip-rule:evenodd;fill:#2da11c;stroke:#000000;stroke-width:8.5039;stroke-linecap:round;stroke-linejoin:round;stroke-miterlimit:2.6131;" d="M1602.782 2136.4l.003.001c-29.47 61.966-189.929 58.995-254.948 60.108-259.599 4.447-472.17-48.054-637.709-157.502-.339-9.494 1.828-17.921 6.501-25.282 107.982 73.33 294.833 117.153 560.555 131.47C1412.208 2147.146 1520.737 2144.214 1602.782 2136.4z"/><path style="fill-rule:evenodd;clip-rule:evenodd;fill:none;stroke:#000000;stroke-width:8.5039;stroke-linecap:round;stroke-linejoin:round;stroke-miterlimit:2.6131;" d="M867.603 1293.527c-6.666 40.876-12.204 79.643-16.615 116.301"/><path style="fill-rule:evenodd;clip-rule:evenodd;fill:none;stroke:#000000;stroke-width:8.5039;stroke-linecap:round;stroke-linejoin:round;stroke-miterlimit:2.6131;" d="M1525.676 1561.525c-51.268 27.946-114.836 54.192-190.704 78.737"/><path style="fill-rule:evenodd;clip-rule:evenodd;fill:none;stroke:#000000;stroke-width:8.5039;stroke-linecap:round;stroke-linejoin:round;stroke-miterlimit:2.6131;" d="M1661.48 1575.972c43.172 17.706 78.809 35.524 106.91 53.455"/><path style="fill-rule:evenodd;clip-rule:evenodd;fill:none;stroke:#000000;stroke-width:8.5039;stroke-linecap:round;stroke-linejoin:round;stroke-miterlimit:2.6131;" d="M1899.139 1591.141c-51.724 10.804-107.176 16.714-166.355 17.731"/><path style="fill-rule:evenodd;clip-rule:evenodd;fill:none;stroke:#000000;stroke-width:8.5039;stroke-linecap:round;stroke-linejoin:round;stroke-miterlimit:2.6131;" d="M1153.659 1482.787c60.118 38.148 137.411 57.893 231.879 59.234 39.01-.234 79.221.007 120.635.722 32.19-13.808 57.713-18.865 76.571-15.17 48.169-23.217 60.691-48.499 37.562-75.848"/><path style="fill-rule:evenodd;clip-rule:evenodd;fill:none;stroke:#000000;stroke-width:8.5039;stroke-linecap:round;stroke-linejoin:round;stroke-miterlimit:2.6131;" d="M1455.607 1046.479c34.191 41.927 51.047 84.546 50.566 127.858-162.616-97.202-306.126-95.756-430.529 4.334"/><path style="fill-rule:evenodd;clip-rule:evenodd;fill:none;stroke:#000000;stroke-width:8.5039;stroke-linecap:round;stroke-linejoin:round;stroke-miterlimit:2.6131;" d="M1871.688 1173.615c-13.481 2.256-24.317.329-32.506-5.78-3.124-4.977-8.661-7.145-16.614-6.501-15.036 5.566-26.834 5.807-35.396.723-9.792-4.853-23.998-7.501-42.619-7.946-88.686-4.572-168.146 2.17-238.38 20.226 20.481 29.685 50.58 58.098 90.295 85.239 17.034 9.995 18.72 25.887 5.057 47.676-140.781-70.757-280.197-57.274-418.249 40.452-23.248 12.323-56.235 17.861-98.964 16.615-20.681-3.351-31.758 4.112-33.229 22.393-.159 13.995 10.436 21.459 31.784 22.394 26.147.214 47.337 2.38 63.568 6.501"/><path style="fill-rule:evenodd;clip-rule:evenodd;fill:none;stroke:#000000;stroke-width:8.5039;stroke-linecap:round;stroke-linejoin:round;stroke-miterlimit:2.6131;" d="M1559.124 1231.308c-146.388-18.638-254.816-7.048-325.282 34.77-40.94 36.795-86.93 57.984-137.972 63.568"/><path style="fill-rule:evenodd;clip-rule:evenodd;fill:none;stroke:#000000;stroke-width:8.5039;stroke-linecap:round;stroke-linejoin:round;stroke-miterlimit:2.6131;" d="M1609.225 1290.928c119.034-61.942 254.197-72.633 405.492-32.075"/><path style="fill-rule:evenodd;clip-rule:evenodd;fill:none;stroke:#000000;stroke-width:8.5039;stroke-linecap:round;stroke-linejoin:round;stroke-miterlimit:2.6131;" d="M1618.139 1315.921c160.721-64.233 309.287-62.788 445.699 4.334"/><path style="fill-rule:evenodd;clip-rule:evenodd;fill:#FFFFFF;stroke:#000000;stroke-width:8.5039;stroke-linecap:round;stroke-linejoin:round;stroke-miterlimit:2.6131;" d="M1624.1 1457.619c-185.995 85.663-345.406 72.061-478.233-40.805 83.511-94.258 193.998-133.059 331.458-116.404 90.442 14.576 144.972 36.615 163.59 66.12C1644.101 1392.164 1638.496 1422.527 1624.1 1457.619v0z"/><path style="fill-rule:evenodd;clip-rule:evenodd;fill:#FFFFFF;stroke:#000000;stroke-width:8.5039;stroke-linecap:round;stroke-linejoin:round;stroke-miterlimit:2.6131;" d="M1634.405 1476.846c-6.037-5.912-11.224-11.521-15.581-16.835 1.757-.794 3.513-1.58 5.276-2.391 9.535-23.242 15.212-44.408 17.034-63.501h.002c124.377-98.123 250.807-113.368 379.292-45.737 35.663 2.894 59.66 12.17 71.99 27.828 27.914 37.538 20.388 64.943-22.577 82.213C1927.554 1508.774 1782.409 1514.916 1634.405 1476.846v0z"/><path style="fill-rule:evenodd;clip-rule:evenodd;" d="M1458.58 1447.4c17.547-47.739 12.276-86.042-15.814-114.908-82.395-28.769-134.569-12.776-156.524 47.98-14.805 61.472-.754 96.906 42.15 106.3C1399.057 1497.492 1442.453 1484.368 1458.58 1447.4v0z"/><path style="fill-rule:evenodd;clip-rule:evenodd;fill:#FFFFFF;" d="M1360.236 1343.57c.123-5.076-1.552-8.278-5.026-9.607-10.44-3.069-17.758-.432-21.953 7.909-1.388 9.651 3.177 16.312 13.694 19.98C1357.513 1358.266 1361.941 1352.172 1360.236 1343.57v0z"/><path style="fill-rule:evenodd;clip-rule:evenodd;fill:#FFFFFF;" d="M1350.19 1410.438c3.741-1.503 6.923-3.929 9.545-7.277 3.922-9.535-.655-14.724-13.731-15.566-6.198 2.241-9.158 7.367-8.884 15.376C1339.262 1410.222 1343.619 1412.711 1350.19 1410.438v0z"/><path style="fill-rule:evenodd;clip-rule:evenodd;fill:#FFFFFF;" d="M1405.748 1396.926c23.175-10.04 26.193-22.032 9.057-35.975-14.755-5.498-24.761-1.413-30.015 12.256C1383.387 1388.828 1390.374 1396.735 1405.748 1396.926v0z"/><path style="fill-rule:evenodd;clip-rule:evenodd;" d="M1934.602 1446.631c17.547-47.739 12.276-86.041-15.814-114.908-82.395-28.769-134.569-12.776-156.524 47.98-14.804 61.473-.754 96.906 42.15 106.3C1875.079 1496.723 1918.474 1483.599 1934.602 1446.631v0z"/><path style="fill-rule:evenodd;clip-rule:evenodd;fill:#FFFFFF;" d="M1836.257 1342.802c.123-5.076-1.552-8.278-5.026-9.607-10.44-3.069-17.758-.432-21.953 7.909-1.388 9.651 3.177 16.311 13.694 19.98C1833.534 1357.498 1837.963 1351.404 1836.257 1342.802v0z"/><path style="fill-rule:evenodd;clip-rule:evenodd;fill:#FFFFFF;" d="M1826.211 1409.67c3.741-1.503 6.923-3.929 9.546-7.277 3.922-9.535-.655-14.724-13.731-15.566-6.198 2.241-9.158 7.367-8.884 15.376C1815.284 1409.454 1819.64 1411.943 1826.211 1409.67v0z"/><path style="fill-rule:evenodd;clip-rule:evenodd;fill:#FFFFFF;" d="M1881.77 1396.157c23.175-10.04 26.193-22.032 9.057-35.975-14.755-5.499-24.761-1.413-30.015 12.256C1859.409 1388.06 1866.395 1395.967 1881.77 1396.157v0z"/><path style="fill-rule:evenodd;clip-rule:evenodd;fill:#2da11c;stroke:#000000;stroke-width:8.5039;stroke-linecap:round;stroke-linejoin:round;stroke-miterlimit:2.6131;" d="M1145.866 1416.814c113.634-120.314 276.74-166.757 485.634-69.314C1471.65 1358.264 1304.3 1381.734 1145.866 1416.814v0z"/><path style="fill-rule:evenodd;clip-rule:evenodd;fill:#2da11c;stroke:#000000;stroke-width:8.5039;stroke-linecap:round;stroke-linejoin:round;stroke-miterlimit:2.6131;" d="M2020.427 1348.381c-113.546-58.38-223.104-54.898-328.673 10.447 139.754 12.382 278.698 29.732 416.832 52.05C2103.308 1373.229 2073.922 1352.397 2020.427 1348.381v0z"/><path style="fill-rule:evenodd;clip-rule:evenodd;fill:#E4E5E5;stroke:#000001;stroke-width:8.5039;stroke-miterlimit:2.6131;" d="M870.38 1293.982C921.339 1173.133 979.879 1081.806 1046 1020c-8.977 79.961-17.029 155.372-24.155 226.236C1001.654 1447.063 861.41 1477.134 870.38 1293.982z"/><path style="fill-rule:evenodd;clip-rule:evenodd;fill:none;stroke:#000001;stroke-width:8.5039;stroke-linecap:round;stroke-linejoin:round;stroke-miterlimit:2.6131;" d="M881.126 1379.553c3.517-52.921 20.088-105.052 49.715-156.391"/><path style="fill-rule:evenodd;clip-rule:evenodd;fill:none;stroke:#000001;stroke-width:8.5039;stroke-linecap:round;stroke-linejoin:round;stroke-miterlimit:2.6131;" d="M966.11 1167.46c-2.565 60.882-10.403 115.523-23.513 163.923"/><path style="fill-rule:evenodd;clip-rule:evenodd;fill:none;stroke:#000001;stroke-width:8.5039;stroke-linecap:round;stroke-linejoin:round;stroke-miterlimit:2.6131;" d="M954.008 1404.946c14.843-49.838 28.954-106.72 42.332-170.644"/><path style="fill-rule:evenodd;clip-rule:evenodd;fill:none;stroke:#000001;stroke-width:8.5039;stroke-linecap:round;stroke-linejoin:round;stroke-miterlimit:2.6131;" d="M1004.82 1063.442c-8.46 59.737-13.526 100.775-15.198 123.116"/><path style="fill-rule:evenodd;clip-rule:evenodd;fill:#9F4238;stroke:#000000;stroke-width:8.5039;" d="M1278.015 1701.774c292.518 74.777 538.553 110.434 738.108 106.971-6.283 33.858-22.68 51.508-49.187 52.948 20.517 73.015-48.862 103.134-208.139 90.36-156.264-18.522-277.041-38.042-362.334-58.557-70.97-21.809-135.705-37.094-194.198-45.847-23.722-3.55-81.284-1.818-120.847-13.814C988.785 1805.752 1041.154 1646.808 1278.015 1701.774z"/><path style="fill-rule:evenodd;clip-rule:evenodd;fill:none;stroke:#000001;stroke-width:8.5039;stroke-miterlimit:2.6131;" d="M1145.388 1756.214c243.279 34.791 591.969 165.041 821.547 105.478"/><path style="fill-rule:evenodd;clip-rule:evenodd;fill:#E4E5E5;stroke:#000001;stroke-width:8.5039;stroke-linecap:round;stroke-linejoin:round;stroke-miterlimit:2.6131;" d="M1750.1 1804.206c23.144-25.291 49.829-55.469 80.058-90.536-145.146-66.393-297.947-31.832-458.402 103.685C1475.845 1840.824 1601.959 1836.44 1750.1 1804.206z"/><path style="fill-rule:evenodd;clip-rule:evenodd;fill:#E4E5E5;stroke:#000001;stroke-width:8.5039;stroke-linecap:round;stroke-linejoin:round;stroke-miterlimit:2.6131;" d="M2117.5 1849.5c-102-142-178.312-165.869-287.571-136 7.988 49.478 20.147 80.488 36.482 93.029C1978.307 1842.294 2024.746 1855.028 2117.5 1849.5z"/><path style="fill-rule:evenodd;clip-rule:evenodd;fill:#E4E5E5;stroke:#000001;stroke-width:8.5039;stroke-linecap:round;stroke-linejoin:round;stroke-miterlimit:2.6131;" d="M1759.726 1725.458c-20.181 30.332-33.23 58.617-39.146 84.859"/><path style="fill-rule:evenodd;clip-rule:evenodd;fill:#E4E5E5;stroke:#000001;stroke-width:8.5039;stroke-linecap:round;stroke-linejoin:round;stroke-miterlimit:2.6131;" d="M1742.422 1685.996c-19.062 24.062-32.721 48.514-40.981 73.352"/><path style="fill-rule:evenodd;clip-rule:evenodd;fill:#E4E5E5;stroke:#000001;stroke-width:8.5039;stroke-linecap:round;stroke-linejoin:round;stroke-miterlimit:2.6131;" d="M1689.296 1722.277c-14.228 25.308-26.167 51.263-35.816 77.865"/><path style="fill-rule:evenodd;clip-rule:evenodd;fill:#E4E5E5;stroke:#000001;stroke-width:8.5039;stroke-linecap:round;stroke-linejoin:round;stroke-miterlimit:2.6131;" d="M1603.765 1827.709c7.555-27.095 18.78-53.17 33.675-78.225"/><path style="fill-rule:evenodd;clip-rule:evenodd;fill:#E4E5E5;stroke:#000001;stroke-width:8.5039;stroke-linecap:round;stroke-linejoin:round;stroke-miterlimit:2.6131;" d="M1681.276 1696.95c-12.792 17.755-21.21 35.415-25.253 52.984"/><path style="fill-rule:evenodd;clip-rule:evenodd;fill:#E4E5E5;stroke:#000001;stroke-width:8.5039;stroke-linecap:round;stroke-linejoin:round;stroke-miterlimit:2.6131;" d="M1406.502 1824.025c36.691-20.389 62.357-42.287 76.998-65.695"/><path style="fill-rule:evenodd;clip-rule:evenodd;fill:#E4E5E5;stroke:#000001;stroke-width:8.5039;stroke-linecap:round;stroke-linejoin:round;stroke-miterlimit:2.6131;" d="M1531.878 1714.523c-12.14 27.019-22.764 52.289-31.87 75.809"/><path style="fill-rule:evenodd;clip-rule:evenodd;fill:#E4E5E5;stroke:#000001;stroke-width:8.5039;stroke-linecap:round;stroke-linejoin:round;stroke-miterlimit:2.6131;" d="M1555.771 1746.771c-9.319 25.495-20.186 47.84-32.602 67.036"/><path style="fill-rule:evenodd;clip-rule:evenodd;fill:#E4E5E5;stroke:#000001;stroke-width:8.5039;stroke-linecap:round;stroke-linejoin:round;stroke-miterlimit:2.6131;" d="M1600.293 1703.679c-2.725 36.118-16.042 68.138-39.953 96.059"/><path style="fill-rule:evenodd;clip-rule:evenodd;fill:#E4E5E5;stroke:#000001;stroke-width:8.5039;stroke-linecap:round;stroke-linejoin:round;stroke-miterlimit:2.6131;" d="M1624.375 1719.783c-21.76 53.816-42.756 90.862-62.986 111.135"/><path style="fill-rule:evenodd;clip-rule:evenodd;fill:#E4E5E5;stroke:#000001;stroke-width:8.5039;stroke-linecap:round;stroke-linejoin:round;stroke-miterlimit:2.6131;" d="M1524.792 1770.972c-13.135 27.672-32.697 47.559-58.687 59.661"/><path style="fill-rule:evenodd;clip-rule:evenodd;fill:#E4E5E5;stroke:#000001;stroke-width:8.5039;stroke-linecap:round;stroke-linejoin:round;stroke-miterlimit:2.6131;" d="M1897.089 1815.887c-12.712-22.028-15.851-47.668-9.414-76.919"/><path style="fill-rule:evenodd;clip-rule:evenodd;fill:#E4E5E5;stroke:#000001;stroke-width:8.5039;stroke-linecap:round;stroke-linejoin:round;stroke-miterlimit:2.6131;" d="M1912.731 1705.339c8.505 31.719 10.76 56.425 6.763 74.115"/><path style="fill-rule:evenodd;clip-rule:evenodd;fill:#E4E5E5;stroke:#000001;stroke-width:8.5039;stroke-linecap:round;stroke-linejoin:round;stroke-miterlimit:2.6131;" d="M1860.097 1707.204c.185 34.225 2.15 55.612 5.894 64.164"/><path style="fill-rule:evenodd;clip-rule:evenodd;fill:#E4E5E5;stroke:#000001;stroke-width:8.5039;stroke-linecap:round;stroke-linejoin:round;stroke-miterlimit:2.6131;" d="M1955.418 1831.091c3.198-25.849 1.5-48.33-5.091-67.447"/><path style="fill-rule:evenodd;clip-rule:evenodd;fill:#E4E5E5;stroke:#000001;stroke-width:8.5039;stroke-linecap:round;stroke-linejoin:round;stroke-miterlimit:2.6131;" d="M1975.824 1717.772c6.99 29.508 8.678 53.093 5.066 70.753"/><path style="fill-rule:evenodd;clip-rule:evenodd;fill:#E4E5E5;stroke:#000001;stroke-width:8.5039;stroke-linecap:round;stroke-linejoin:round;stroke-miterlimit:2.6131;" d="M2001.88 1761.656c6.13 21.031 7.455 40.389 3.972 58.073"/><path style="fill-rule:evenodd;clip-rule:evenodd;fill:#E4E5E5;stroke:#000001;stroke-width:8.5039;stroke-linecap:round;stroke-linejoin:round;stroke-miterlimit:2.6131;" d="M2035.583 1758.092c5.141 14.394 6.801 26.772 4.982 37.136"/><path style="fill-rule:evenodd;clip-rule:evenodd;fill:#E4E5E5;stroke:#000001;stroke-width:8.5039;stroke-linecap:round;stroke-linejoin:round;stroke-miterlimit:2.6131;" d="M2021.739 1782.391c2.564 27.554 4.94 47.043 7.128 58.469"/><path style="fill-rule:evenodd;clip-rule:evenodd;fill:#E4E5E5;stroke:#000001;stroke-width:8.5039;stroke-linecap:round;stroke-linejoin:round;stroke-miterlimit:2.6131;" d="M2059.94 1808.609c4.789 24.083 8.48 37.87 11.076 41.359"/><path style="fill-rule:evenodd;clip-rule:evenodd;fill:none;stroke:#000001;stroke-width:28.3465;stroke-miterlimit:2.6131;" d="M1569.282 1316.606c80.313 23.406 123.666 114.275 96.829 202.961-26.838 88.684-113.705 141.601-194.018 118.193-80.316-23.407-123.668-114.276-96.829-202.962C1402.1 1346.114 1488.967 1293.197 1569.282 1316.606z"/><path style="fill-rule:evenodd;clip-rule:evenodd;fill:none;stroke:#000001;stroke-width:28.3465;stroke-miterlimit:2.6131;" d="M1986.761 1299.819c69.943 21.42 106.982 107.027 82.724 191.21-24.255 84.184-100.618 135.062-170.561 113.642-69.943-21.42-106.981-107.027-82.726-191.21C1840.453 1329.277 1916.818 1278.399 1986.761 1299.819z"/><path style="fill-rule:evenodd;clip-rule:evenodd;fill:none;stroke:#000001;stroke-width:17.0079;stroke-miterlimit:2.6131;" d="M978.5 1379.5c272 64 306.16 71.912 381.901 79.743"/><path style="fill-rule:evenodd;clip-rule:evenodd;fill:none;stroke:#000001;stroke-width:28.3465;stroke-miterlimit:2.6131;" d="M1678.5 1474.5c39.167-17.951 88.226-23.612 130.356-14.792"/><path style="fill-rule:evenodd;clip-rule:evenodd;fill:#FFFFFF;stroke:#000001;stroke-width:8.5039;stroke-miterlimit:2.6131;" d="M710 2039c-519 238-505 224-710 461h2147c0 0-169.5-263.5-518.5-356.5l.5-9.5-26 2c0 0-11 55-213 61s-214.081-4.451-243-9c-267-42-437-149-437-149z"/><path style="fill-rule:evenodd;clip-rule:evenodd;fill:#2da11c;stroke:#000000;stroke-width:8.5039;stroke-linecap:round;stroke-linejoin:round;stroke-miterlimit:2.6131;" d="M1350.5 2420.5c491.667 77.262 488.5 79.5 488.5 79.5"/><path style="fill-rule:evenodd;clip-rule:evenodd;fill:#2da11c;stroke:#000000;stroke-width:8.5039;stroke-linecap:round;stroke-linejoin:round;stroke-miterlimit:2.6131;" d="M1038.244 25e2"/><path style="fill-rule:evenodd;clip-rule:evenodd;fill:none;stroke:#000000;stroke-width:8.5039;stroke-linecap:round;stroke-linejoin:round;stroke-miterlimit:2.6131;" d="M1038 25e2c0 0-267.668-278.405-327.5-461.5"/><path style="fill-rule:evenodd;clip-rule:evenodd;fill:none;stroke:#000000;stroke-width:8.5039;stroke-linecap:round;stroke-linejoin:round;stroke-miterlimit:2.6131;" d="M694.5 25e2c0 0-62-230.5 16-461.5"/><path style="fill-rule:evenodd;clip-rule:evenodd;fill:#2da11c;stroke:#000000;stroke-width:8.5039;stroke-linecap:round;stroke-linejoin:round;stroke-miterlimit:2.6131;" d="M1629.5 2132.5l-17 43c-30.496 61.925-116.553 249.888-183.837 251-268.641 4.444-549.323-277.859-720.628-387.234-.35-9.488 1.892-17.909 6.728-25.266 111.743 73.281 305.102 117.075 580.079 131.382C1434.57 2147.332 1544.597 2140.308 1629.5 2132.5z"/></svg>