<svg xmlns="http://www.w3.org/2000/svg" xmlns:xlink="http://www.w3.org/1999/xlink" viewBox="0 0 2500 2500"><path style="fill-rule:evenodd;clip-rule:evenodd;fill:#f8fad8;" d="M0 0h25e2v25e2H0z"/><path style="fill-rule:evenodd;clip-rule:evenodd;fill:#4ba942;stroke:#000000;stroke-width:8.5039;stroke-linecap:round;stroke-linejoin:round;stroke-miterlimit:2.6131;" d="M867.603 1293.527c135.408-338.495 331.41-420.844 588.004-247.048 241.577-117.709 380.271-75.33 416.082 127.137 85.736 16.593 133.412 45.005 143.028 85.238 38.849 13.16 55.222 33.628 49.121 61.401 34.595 16.186 41.096 32.078 19.504 47.676 27.655 37.786 20.431 64.754-21.671 80.905 15.662 25.919-1.675 43.978-52.01 54.177-17.8 44.837-54.641 74.213-110.522 88.128 78.07 53.384 133.361 153.359 109.076 195.761-96.726 186.205-207.247 292.151-331.565 317.84-25.241 2.762-41.134 12.394-47.676 28.895-84.606 9.871-201.87 13.723-351.791 11.557-265.722-14.316-452.573-58.139-560.555-131.47C551.93 1890.923 644.393 1306.53 867.603 1293.527z"/><path style="fill-rule:evenodd;clip-rule:evenodd;fill:#4ba942;stroke:#000000;stroke-width:8.5039;stroke-linecap:round;stroke-linejoin:round;stroke-miterlimit:2.6131;" d="M1602.782 2136.4l.003.001c-29.47 61.966-189.929 58.995-254.948 60.108-259.599 4.447-472.17-48.054-637.709-157.502-.339-9.494 1.828-17.921 6.501-25.282 107.982 73.33 294.833 117.153 560.555 131.47C1412.208 2147.146 1520.737 2144.214 1602.782 2136.4z"/><path style="fill-rule:evenodd;clip-rule:evenodd;fill:none;stroke:#000000;stroke-width:8.5039;stroke-linecap:round;stroke-linejoin:round;stroke-miterlimit:2.6131;" d="M867.603 1293.527c-6.666 40.876-12.204 79.643-16.615 116.301"/><path style="fill-rule:evenodd;clip-rule:evenodd;fill:none;stroke:#000000;stroke-width:8.5039;stroke-linecap:round;stroke-linejoin:round;stroke-miterlimit:2.6131;" d="M1525.676 1561.525c-51.268 27.946-114.836 54.192-190.704 78.737"/><path style="fill-rule:evenodd;clip-rule:evenodd;fill:none;stroke:#000000;stroke-width:8.5039;stroke-linecap:round;stroke-linejoin:round;stroke-miterlimit:2.6131;" d="M1661.48 1575.972c43.172 17.706 78.809 35.524 106.91 53.455"/><path style="fill-rule:evenodd;clip-rule:evenodd;fill:none;stroke:#000000;stroke-width:8.5039;stroke-linecap:round;stroke-linejoin:round;stroke-miterlimit:2.6131;" d="M1899.139 1591.141c-51.724 10.804-107.176 16.714-166.355 17.731"/><path style="fill-rule:evenodd;clip-rule:evenodd;fill:none;stroke:#000000;stroke-width:8.5039;stroke-linecap:round;stroke-linejoin:round;stroke-miterlimit:2.6131;" d="M1153.659 1482.787c60.118 38.148 137.411 57.893 231.879 59.234 39.01-.234 79.221.007 120.635.722 32.19-13.808 57.713-18.865 76.571-15.17 48.169-23.217 60.691-48.499 37.562-75.848"/><path style="fill-rule:evenodd;clip-rule:evenodd;fill:none;stroke:#000000;stroke-width:8.5039;stroke-linecap:round;stroke-linejoin:round;stroke-miterlimit:2.6131;" d="M1455.607 1046.479c34.191 41.927 51.047 84.546 50.566 127.858-162.616-97.202-306.126-95.756-430.529 4.334"/><path style="fill-rule:evenodd;clip-rule:evenodd;fill:none;stroke:#000000;stroke-width:8.5039;stroke-linecap:round;stroke-linejoin:round;stroke-miterlimit:2.6131;" d="M1871.688 1173.615c-13.481 2.256-24.317.329-32.506-5.78-3.124-4.977-8.661-7.145-16.614-6.501-15.036 5.566-26.834 5.807-35.396.723-9.792-4.853-23.998-7.501-42.619-7.946-88.686-4.572-168.146 2.17-238.38 20.226 20.481 29.685 50.58 58.098 90.295 85.239 17.034 9.995 18.72 25.887 5.057 47.676-140.781-70.757-280.197-57.274-418.249 40.452-23.248 12.323-56.235 17.861-98.964 16.615-20.681-3.351-31.758 4.112-33.229 22.393-.159 13.995 10.436 21.459 31.784 22.394 26.147.214 47.337 2.38 63.568 6.501"/><path style="fill-rule:evenodd;clip-rule:evenodd;fill:none;stroke:#000000;stroke-width:8.5039;stroke-linecap:round;stroke-linejoin:round;stroke-miterlimit:2.6131;" d="M1559.124 1231.308c-146.388-18.638-254.816-7.048-325.282 34.77-40.94 36.795-86.93 57.984-137.972 63.568"/><path style="fill-rule:evenodd;clip-rule:evenodd;fill:none;stroke:#000000;stroke-width:8.5039;stroke-linecap:round;stroke-linejoin:round;stroke-miterlimit:2.6131;" d="M1609.225 1290.928c119.034-61.942 254.197-72.633 405.492-32.075"/><path style="fill-rule:evenodd;clip-rule:evenodd;fill:none;stroke:#000000;stroke-width:8.5039;stroke-linecap:round;stroke-linejoin:round;stroke-miterlimit:2.6131;" d="M1618.139 1315.921c160.721-64.233 309.287-62.788 445.699 4.334"/><path style="fill-rule:evenodd;clip-rule:evenodd;fill:#4cb71b;" d="M1634.754 2148.807c1.927 5.057.0.0-5.78-15.17l-26.192 2.763.003.001c-29.47 61.966-189.929 58.995-254.948 60.108-259.599 4.447-472.17-48.054-637.709-157.502C580.824 2055.622 354.002 2296.891 3e2 25e2h1618C1826.858 2320.131 1699.317 2185.588 1634.754 2148.807z"/><path d="M1921.838 2497.953c-52.422-103.453-111.68-182.186-152.16-230.017-47.648-56.301-96.657-101.775-131.49-122.059l-5.24-13.755c-.688-1.804-2.514-2.915-4.42-2.715l-26.191 2.764c-1.548.163-2.844 1.149-3.445 2.517-26.341 54.989-167.671 56.593-235.615 57.365-5.611.064-10.811.123-15.512.204-257.506 4.411-471.255-48.344-635.291-156.798-.851-.562-1.872-.795-2.887-.671-63.114 8.11-151.304 68.642-235.909 161.923-40.95 45.149-78.518 95.538-108.641 145.719-32.805 54.65-56.069 107.297-69.145 156.477-.096.361-.138.728-.138 1.093h8.572l1.925-6.625.01-.005c26.418-92.389 89.352-197.931 173.716-290.945 39.791-43.871 81.821-81.72 121.548-109.454 40.329-28.155 77.485-45.256 107.594-49.536 82.484 54.297 177.882 95.059 283.573 121.162 106.146 26.215 225.66 38.395 355.219 36.163 4.687-.08 9.869-.139 15.464-.202 74.146-.843 211.385-2.402 242.165-60.173l20.627-2.176 4.615 12.111c.028.073.057.148.086.227l.634 1.664.073-.028c.886 1.744 2.336 3.436 5.005 2.635 61.333 37.311 182.281 162.978 272.64 337.181l.032.001.434.897c.471.91.947 1.814 1.416 2.727L1912 2498l1.125 2h9.167C1922.313 2499.301 1922.164 2498.597 1921.838 2497.953z"/><path style="fill-rule:evenodd;clip-rule:evenodd;fill:none;stroke:#000000;stroke-width:8.5039;stroke-miterlimit:2.6131;" d="M632.781 2072.986 1170.5 2376.5 1348 2197 1382.503 25e2"/><path style="fill-rule:evenodd;clip-rule:evenodd;fill:none;stroke:#000000;stroke-width:8.5039;stroke-miterlimit:2.6131;" d="M1637.5 2154.5l-101 162L1423.605 2225.138 1378.5 2196.5"/><path style="fill-rule:evenodd;clip-rule:evenodd;fill:#4cb71b;stroke:#000000;stroke-width:8.5039;stroke-miterlimit:2.6131;" d="M1434 25e2l-47-278z"/><circle style="fill-rule:evenodd;clip-rule:evenodd;stroke:#000000;stroke-width:8.5039;stroke-miterlimit:2.6131;" cx="1369.5" cy="2216.5" r="19"/><circle style="fill-rule:evenodd;clip-rule:evenodd;stroke:#000000;stroke-width:8.5039;stroke-miterlimit:2.6131;" cx="1387" cy="2348" r="20.5"/><circle style="fill-rule:evenodd;clip-rule:evenodd;stroke:#000000;stroke-width:8.5039;stroke-miterlimit:2.6131;" cx="1402" cy="2449" r="22.5"/><path style="fill-rule:evenodd;clip-rule:evenodd;fill:#4ba942;" d="M1437.5 1052.5l15-3 12-3 53 14 317 62 32 48 6 8 96 44 30 21 10 9 4 12 47 46v4 11l-153 250-11 25-74 38-212 36-387-14-214-118c0 0-27-204-26-213s11-115 18-117 120-114 120-114l82-44 235-2z"/><path style="fill-rule:evenodd;clip-rule:evenodd;" d="M1496.165 1674.608c-122.444-111.112-198.439-188.199-227.985-231.26-87.115-161.064 38.111-287.323 165.705-221.211 114.574 59.366 138.123 266.535 130.552 405.754C1560.47 1677.007 1537.713 1692.58 1496.165 1674.608v0z"/><path style="fill:#FFFFFF;" d="M1389.273 1253.466c-4.292-.696-7.18-5.262-6.45-10.197.73-4.934 4.802-8.369 9.094-7.672 17.338 2.874 32.318 8.119 44.933 15.731 12.906 7.787 23.3 18.001 31.178 30.639 2.496 4.008 1.622 9.67-1.952 12.64-3.574 2.971-8.497 2.13-10.994-1.879-6.513-10.446-15.145-18.915-25.891-25.399C1418.155 1260.67 1404.847 1256.047 1389.273 1253.466v0z"/><path style="fill:none;stroke:#000000;stroke-width:8.5039;stroke-linecap:round;stroke-linejoin:round;stroke-miterlimit:2.6131;" d="M1690.763 1677.351c1.046 22.655-2.888 43.161-11.805 61.521M1721.454 1674.223c-.332 27.181 1.242 49.773 4.722 67.777"/><path style="fill-rule:evenodd;clip-rule:evenodd;" d="M1865.053 1657.276c35.299-27.249 66.464-51.959 93.493-74.128 53.468-43.853 134.889-109.917 152.2-183.895 37.123-158.632-254.714-294.095-299 210.669C1810.833 1653.56 1828.602 1669.345 1865.053 1657.276v0z"/><path style="fill:#FFFFFF;" d="M1995.273 1288.668c4.573-.281 8.471 3.956 8.703 9.463.233 5.507-3.286 10.2-7.859 10.48-13.333.866-24.92 3.73-34.755 8.591-9.51 4.702-17.425 11.323-23.74 19.859-3.048 4.125-8.299 4.493-11.724.822-3.425-3.67-3.73-9.993-.683-14.117 7.982-10.79 17.932-19.132 29.846-25.022C1966.653 1293.015 1980.058 1289.655 1995.273 1288.668v0z"/><path style="fill-rule:evenodd;clip-rule:evenodd;fill:#AC693C;stroke:#000000;stroke-width:8.5039;stroke-linecap:round;stroke-linejoin:round;stroke-miterlimit:2.6131;" d="M2003.125 1797.173c-7.625 13.327-4.625 7.327-14.625 26.327 89.549 65.399 119 143 45.25 199.716-111.25 76.284-286.246 87.885-410.883 95.176-284.044-6.797-500.119-121.36-648.226-343.69-52.519-106.267 14.246-134.395 96.979-115.004C1437.5 1835.5 1733.5 1837.5 1999.5 1711.5 2035.5 1696.5 2092.947 1771.341 2003.125 1797.173z"/><path style="fill-rule:evenodd;clip-rule:evenodd;fill:#CCCCCC;stroke:#000000;stroke-width:8.5039;stroke-miterlimit:2.6131;" d="M1876.545 1836.132c42.651-10.613 84.844-23.599 126.58-38.959-281.871 103.593-568.554 95.882-860.047-23.133-53.266-26.333-74.108-16.639-62.526 29.082 126.607 119.131 290.791 195.8 492.55 230.008 173.469 8.536 310.005-13.936 409.607-67.416 10.844-18.51-1.065-43.626-35.729-75.347C1925.202 1868.43 1901.724 1850.352 1876.545 1836.132z"/><path style="fill-rule:evenodd;clip-rule:evenodd;fill:#EF4545;stroke:#000000;stroke-width:8.5039;stroke-miterlimit:2.6131;" d="M1080.552 1803.122c46.467 44.607 103.229 85.523 170.284 122.749 77.949-57.581 131.664-53.371 349.063 82.804 78.817 32.236 199.601 12.825 172.265-77.991-10.278-21.618-29.8-43.754-58.568-66.411-196.495 16.995-386.667-13.082-570.518-90.233C1090.052 1747.524 1069.21 1757.218 1080.552 1803.122z"/><path style="fill-rule:evenodd;clip-rule:evenodd;fill:none;stroke:#000000;stroke-width:8.5039;stroke-linecap:round;stroke-linejoin:round;stroke-miterlimit:2.6131;" d="M916.253 1692.336c-21.631 48.869-11.708 90.214 29.767 124.034"/><path style="fill-rule:evenodd;clip-rule:evenodd;stroke:#000000;stroke-width:8.5039;stroke-linecap:round;stroke-linejoin:round;stroke-miterlimit:2.6131;" d="M1876.5 1836.5 1908.093 1856.625 2014.333 1846.563 1988.5 1823.5 1998.897 1798.717 1922.294 1823.789z"/><path style="fill-rule:evenodd;clip-rule:evenodd;fill:#543b54;stroke:#000001;stroke-width:8.5039;stroke-miterlimit:2.6131;" d="M786.898 1129.22c2.9 27.917 14.554 76.866-5.615 99.451-26.908 30.131-35.748 57.508-32.149 94.936 80.133 82.121 303.276-182.703 745.325-149.744 280.97-9.014 245.957-9.128 372.618-.701 11.784-41.416.839-70.263-16.199-84.234-16.931-13.886-20.432-40.336-28.201-60.013-164.1-415.619-597.211-670.677-1000.885-363.059C628.468 813.176 595.605 1056.134 786.898 1129.22z"/><path style="fill-rule:evenodd;clip-rule:evenodd;fill:none;stroke:#000001;stroke-width:8.5039;stroke-miterlimit:2.6131;" d="M781.284 1228.67c469.468-265.54 635.896-91.588 1069.594-139.742"/><path style="fill-rule:evenodd;clip-rule:evenodd;fill:#5E5F5F;stroke:#000001;stroke-width:8.5039;stroke-linecap:round;stroke-linejoin:round;stroke-miterlimit:2.6131;" d="M762.519 1042.021c6.778 16.807 13.277 35.922 18.609 57.216 2.582 10.312 4.669 20.25 6.353 29.743"/></svg>