<?xml version="1.0" standalone="no"?>
<!DOCTYPE svg PUBLIC "-//W3C//DTD SVG 20010904//EN"
 "http://www.w3.org/TR/2001/REC-SVG-20010904/DTD/svg10.dtd">
<svg version="1.0" xmlns="http://www.w3.org/2000/svg"
 width="320.000000pt" height="320.000000pt" viewBox="0 0 320.000000 320.000000"
 preserveAspectRatio="xMidYMid meet">
<metadata>
Created by potrace 1.11, written by Peter Selinger 2001-2013
</metadata>
<g transform="translate(0.000000,320.000000) scale(0.100000,-0.100000)"
fill="#000000" stroke="none">
<path d="M1090 2904 c-219 -69 -404 -275 -558 -621 -26 -61 -36 -73 -55 -73
-13 0 -51 -14 -85 -31 -124 -62 -244 -233 -307 -439 -9 -30 -21 -66 -25 -80
-46 -135 -73 -471 -49 -621 5 -29 11 -67 13 -84 14 -85 69 -203 121 -258 19
-19 26 -36 23 -52 -6 -31 -2 -36 51 -70 242 -151 586 -257 951 -292 107 -10
553 -10 640 0 124 14 226 50 259 93 10 13 28 24 40 24 11 0 31 12 44 26 37 40
118 55 312 59 265 6 330 13 400 44 86 38 121 125 75 184 -24 31 -59 30 -193
-2 -49 -11 -94 -21 -102 -21 -7 0 5 19 26 41 22 23 65 76 96 118 31 42 58 78
59 80 5 7 112 -34 198 -76 94 -45 130 -52 161 -30 14 11 16 21 11 52 -13 68
-122 157 -238 194 l-38 12 20 38 c15 31 30 43 77 61 32 13 66 31 77 40 40 38
29 165 -18 195 -32 21 -87 27 -141 15 l-47 -11 -73 75 -72 74 43 17 c53 20
137 94 154 135 7 16 16 30 21 30 17 0 24 2 60 20 47 24 62 45 57 75 -4 18 0
26 13 30 28 9 59 54 59 87 0 16 -7 42 -15 58 -9 18 -11 31 -5 35 21 13 10 54
-22 78 -19 15 -32 36 -34 52 -3 33 -47 81 -79 89 -13 3 -27 15 -30 27 -9 28
-69 85 -113 108 -20 10 -71 29 -112 41 -41 12 -76 23 -78 25 -2 1 -5 15 -8 31
-26 150 -115 279 -232 336 -63 30 -74 32 -172 32 -58 0 -118 -3 -135 -6 -62
-12 -181 -51 -264 -87 l-86 -37 -45 29 c-83 54 -225 116 -314 137 -110 26
-222 24 -316 -6z"/>
</g>
</svg>
