<?xml version="1.0" encoding="UTF-8"?>
<!DOCTYPE svg PUBLIC "-//W3C//DTD SVG 1.1//EN" "http://www.w3.org/Graphics/SVG/1.1/DTD/svg11.dtd">
<!-- Creator: CorelDRAW X7 -->
<svg xmlns="http://www.w3.org/2000/svg" xml:space="preserve" width="8.33333in" height="8.33333in" version="1.1" style="shape-rendering:geometricPrecision; text-rendering:geometricPrecision; image-rendering:optimizeQuality; fill-rule:evenodd; clip-rule:evenodd"
viewBox="0 0 8333 8333"
 xmlns:xlink="http://www.w3.org/1999/xlink">
 <defs>
  <style type="text/css">
   <![CDATA[
    .str1 {stroke:#282829;stroke-width:41.6654}
    .str0 {stroke:#282829;stroke-width:41.6654;stroke-linecap:round;stroke-linejoin:round}
    .fil8 {fill:none}
    .fil2 {fill:#FEFEFE}
    .fil1 {fill:#68984E}
    .fil11 {fill:#9F4238}
    .fil0 {fill:#FEFEFE;fill-rule:nonzero}
    .fil9 {fill:black;fill-rule:nonzero}
    .fil7 {fill:#151515;fill-rule:nonzero}
    .fil6 {fill:#343434;fill-rule:nonzero}
    .fil5 {fill:#393939;fill-rule:nonzero}
    .fil10 {fill:#67994A;fill-rule:nonzero}
    .fil4 {fill:#8C8C8C;fill-rule:nonzero}
    .fil3 {fill:white;fill-rule:nonzero}
    .fil12 {fill:black;fill-rule:nonzero}
   ]]>
  </style>
 </defs>
 <g id="Layer_x0020_1">
  <metadata id="CorelCorpID_0Corel-Layer"/>
  <g id="_2590886747456">
   <path class="fil0" d="M7078 5273c23,43 38,90 44,140l0 0c8,76 -6,152 -52,227 -13,22 -29,44 -48,65 -1,40 -7,79 -18,116 -14,46 -36,87 -65,125 -3,42 -14,83 -31,121 -13,27 -27,51 -45,73 7,147 -68,257 -225,332 -121,112 -259,166 -402,177 -140,10 -282,-24 -414,-87 -123,-58 -239,-142 -338,-238 -191,-183 -327,-420 -341,-615 -24,-335 196,-583 407,-819 77,-86 152,-171 201,-246l158 -298c25,-48 67,-82 115,-99 8,-91 73,-163 157,-183l1084 -363c108,-37 226,22 263,131 11,33 13,67 8,99l0 0 -189 1144c-13,85 -76,149 -154,169l0 0 -115 29z"/>
   <path class="fil0" d="M1633 2814c83,-192 172,-359 268,-501 196,-290 422,-480 678,-570 261,-93 544,-78 847,43 102,41 207,95 313,160 394,-178 716,-242 971,-180 282,70 466,272 555,621 194,76 300,180 407,284 26,25 47,45 49,48 5,4 10,9 14,14l1 0 14 15c121,138 184,209 187,322 14,18 27,40 42,71 151,212 115,256 -29,423 2,59 -12,117 -40,172 -33,63 -85,119 -155,162 -19,11 -41,22 -64,32 -19,28 -39,53 -61,75 18,16 34,33 50,49 47,9 89,22 127,39 72,33 126,80 163,141 37,62 54,132 49,211 -3,50 -15,104 -37,162 4,102 -10,190 -40,264 -25,61 -60,111 -105,152 -5,93 -22,181 -95,271 -3,4 -9,10 -15,18l0 0c-257,292 -1109,564 -2043,624 -925,60 -1953,-79 -2590,-595 -25,-21 -45,-37 -58,-48 -130,-115 -195,-272 -223,-452 -24,-154 -20,-321 -9,-490 25,-373 127,-766 291,-1056 136,-241 316,-419 538,-481z"/>
   <path class="fil1 str0" d="M6140 4993c159,9 315,53 467,133 179,93 473,310 195,495 29,105 4,186 -75,243 19,90 -11,156 -91,199 38,109 -1,187 -117,234 -422,440 -1141,-222 -1169,-603 -26,-363 396,-653 581,-946 54,-102 108,-204 162,-305 323,-133 282,364 47,550z"/>
   <polygon class="fil2" points="6140,5296 6231,4266 7331,3898 7142,5042 "/>
   <polygon class="fil3" points="7153,4975 7331,3898 6295,4244 6508,4863 "/>
   <polygon class="fil3" points="6439,4945 6226,4326 6140,5296 7084,5057 7084,5057 "/>
   <polygon class="fil4" points="6295,4244 6295,4244 7331,3898 7153,4975 6508,4863 "/>
   <polygon class="fil5" points="6508,4863 6295,4244 6891,4415 "/>
   <polygon class="fil6" points="7153,4975 6891,4415 7331,3898 "/>
   <polygon class="fil7" points="6508,4863 6891,4415 7153,4975 "/>
   <polygon class="fil4" points="6140,5296 6226,4326 6439,4945 7084,5057 "/>
   <polygon class="fil6" points="6140,5296 6439,4945 7084,5057 7084,5057 "/>
   <polygon class="fil8 str1" points="6140,5296 6231,4266 7331,3898 7142,5042 "/>
   <path class="fil8 str0" d="M5998 5897c107,34 225,71 355,110"/>
   <path class="fil1" d="M6140 4993c-178,715 59,820 711,314 -202,-191 -438,-296 -711,-314z"/>
   <path class="fil8 str0" d="M5951 5569c143,0 282,38 416,114"/>
   <path class="fil8 str0" d="M5984 5243c174,40 383,129 627,267"/>
   <path class="fil8 str0" d="M6140 4993c-111,29 -163,112 -156,250 -113,112 -124,221 -33,326 -124,128 -109,237 47,328 -114,107 -108,201 20,280 108,54 210,84 304,90"/>
   <path class="fil8 str0" d="M6851 5307c-223,-200 -460,-305 -711,-314"/>
   <path class="fil2" d="M1781 2999c448,-1118 1095,-1390 1942,-816 798,-388 1245,-306 1364,363l0 0c260,73 364,203 493,324 111,126 156,173 144,256 26,26 51,54 70,79l0 1c59,81 86,140 16,204 0,0 0,1 -1,1l-1 1c-1,1 -2,2 -3,2l0 1c-20,24 -47,53 -80,96 52,86 -12,213 -179,247 -55,139 -160,173 -327,215l-1 0c-9,3 -19,5 -30,8 179,62 304,162 387,270l0 0c223,13 289,120 197,321 16,182 -30,293 -139,335 -3,97 2,189 -52,256 -426,525 -3247,996 -4407,-27 -178,-157 -184,-457 -162,-771 43,-644 329,-1341 769,-1366z"/>
   <g>
    <path class="fil9" d="M1769 2976c2,-11 13,-19 24,-17 11,2 18,12 16,23l-40 -6zm-14 389l-41 -4 2 -12 1 -11 2 -12 1 -11 2 -12 1 -11 2 -12 1 -12 2 -11 1 -12 2 -12 1 -12 2 -12 2 -12 1 -12 2 -12 2 -12 2 -12 1 -12 2 -12 2 -12 2 -12 2 -13 2 -12 1 -12 2 -13 2 -12 2 -13 2 -12 2 -13 2 -12 2 -13 40 6 -2 13 -2 13 -2 12 -2 13 -2 12 -2 12 -2 13 -2 12 -1 12 -2 13 -2 12 -2 12 -2 12 -1 12 -2 12 -2 12 -2 12 -1 12 -2 12 -2 12 -1 11 -2 12 -1 12 -2 12 -1 11 -2 12 -1 11 -2 12 -1 11 -2 12 -1 11 -1 11zm0 0c-2,11 -12,19 -23,18 -11,-1 -19,-11 -18,-22l41 4z"/>
   </g>
   <g>
    <path class="fil9" d="M3945 3826c10,-6 22,-2 28,8 5,10 1,22 -8,27l-20 -35zm-614 297l-12 -39 23 -7 23 -8 23 -8 23 -7 22 -8 22 -8 22 -8 21 -7 22 -8 21 -8 21 -8 20 -8 21 -8 20 -8 20 -8 20 -8 19 -8 19 -8 19 -8 19 -9 19 -8 18 -8 18 -8 18 -9 17 -8 17 -8 18 -9 16 -8 17 -9 16 -8 16 -9 16 -8 20 35 -17 9 -16 9 -17 8 -16 9 -17 8 -18 9 -17 8 -18 9 -18 8 -18 9 -19 8 -19 8 -19 9 -19 8 -19 8 -20 8 -20 8 -20 9 -20 8 -21 8 -21 8 -21 8 -21 8 -22 8 -22 7 -22 8 -22 8 -22 8 -23 8 -23 7 -23 8 -24 8zm0 0c-10,3 -22,-3 -25,-13 -4,-11 2,-22 13,-26l12 39z"/>
   </g>
   <g>
    <path class="fil9" d="M4396 3910c-10,-4 -15,-16 -11,-26 4,-11 16,-16 26,-11l-15 37zm371 141l-21 34 -9 -6 -9 -5 -9 -6 -9 -5 -9 -6 -9 -5 -10 -6 -10 -5 -9 -6 -10 -5 -10 -6 -11 -5 -10 -5 -11 -6 -10 -5 -11 -6 -11 -5 -11 -6 -12 -5 -11 -6 -12 -5 -12 -6 -11 -5 -13 -6 -12 -5 -12 -5 -13 -6 -12 -5 -13 -6 -13 -5 -13 -6 -13 -5 15 -37 14 5 13 6 13 5 13 6 13 5 12 6 13 5 12 6 12 5 12 6 12 5 12 6 12 5 11 6 12 6 11 5 11 6 11 5 10 6 11 5 11 6 10 6 10 5 10 6 10 5 10 6 10 6 9 5 9 6 10 5 9 6 8 6zm0 0c10,6 13,18 7,27 -6,10 -19,13 -28,7l21 -34z"/>
   </g>
   <g>
    <path class="fil9" d="M5214 3954c11,-3 22,4 24,15 2,11 -5,22 -16,24l-8 -39zm-575 66l0 -40 18 -1 19 0 18 0 19 0 19 0 18 0 19 0 19 0 19 0 19 0 18 0 19 0 19 0 18 0 19 0 19 -1 18 0 18 0 18 -1 19 -1 18 -1 17 -1 18 -1 18 -1 17 -2 17 -1 17 -2 17 -2 16 -3 16 -2 16 -3 16 -3 8 39 -16 3 -17 3 -17 3 -17 3 -17 2 -18 2 -17 2 -18 1 -18 2 -18 1 -18 1 -19 1 -18 0 -19 1 -18 0 -19 1 -18 0 -19 0 -19 0 -19 0 -19 1 -18 -1 -19 0 -19 0 -19 0 -19 0 -18 0 -19 0 -19 0 -18 0 -18 1 -19 0zm0 0c-11,0 -20,-9 -20,-20 0,-11 8,-20 20,-20l0 40z"/>
   </g>
   <g>
    <path class="fil9" d="M3707 2196c-7,-9 -5,-21 3,-28 9,-7 22,-6 29,2l-32 26zm173 387l21 -35 -31 17 0 -12 0 -13 -1 -12 -1 -12 -1 -12 -2 -12 -2 -11 -2 -12 -2 -11 -3 -11 -4 -11 -3 -11 -4 -11 -4 -11 -5 -11 -5 -11 -5 -11 -5 -11 -6 -11 -6 -11 -7 -11 -7 -11 -7 -11 -8 -11 -8 -12 -8 -12 -8 -11 -9 -12 -10 -12 -9 -13 -10 -12 -11 -13 32 -26 10 13 10 13 10 13 10 12 9 13 9 12 9 12 8 12 8 12 7 12 8 11 7 12 6 12 7 12 5 11 6 12 5 12 5 12 5 12 4 12 4 12 4 12 3 12 3 13 2 12 2 13 2 13 1 13 2 13 0 13 1 14 0 14 -31 17zm31 -17c0,11 -10,20 -21,20 -11,0 -20,-10 -20,-21l41 1zm-1430 30l-25 -32 39 -30 40 -29 40 -27 40 -24 41 -23 41 -21 42 -19 42 -17 43 -15 43 -13 43 -11 44 -9 44 -8 44 -5 45 -3 45 -2 45 1 46 2 46 5 47 6 47 8 47 11 48 12 48 14 48 16 48 18 49 19 49 22 50 24 50 25 50 28 51 29 -21 35 -50 -29 -49 -27 -49 -25 -48 -23 -49 -21 -47 -20 -48 -17 -47 -16 -46 -13 -46 -12 -46 -10 -45 -8 -45 -6 -45 -4 -44 -3 -44 0 -43 1 -43 3 -43 5 -42 7 -42 9 -41 11 -42 13 -40 14 -41 16 -40 19 -40 20 -39 22 -39 24 -39 25 -39 28 -38 30zm0 0c-9,7 -21,5 -28,-4 -7,-8 -6,-21 3,-28l25 32z"/>
   </g>
   <g>
    <path class="fil9" d="M5098 2529c9,6 12,18 5,28 -6,9 -18,12 -28,5l23 -33zm-1197 19l-21 35 3 -36 37 -16 38 -15 37 -15 38 -14 38 -14 38 -13 38 -12 38 -11 38 -11 38 -10 39 -9 38 -8 39 -7 38 -6 38 -5 39 -3 38 -2 39 -1 38 0 38 2 39 3 38 5 38 6 38 8 38 10 38 11 38 14 37 15 38 17 37 19 37 21 37 23 -23 33 -35 -22 -35 -20 -36 -18 -36 -16 -36 -15 -36 -12 -36 -11 -36 -10 -36 -7 -37 -6 -37 -5 -36 -3 -37 -2 -37 0 -37 1 -37 2 -37 3 -38 5 -37 6 -37 7 -37 7 -38 9 -37 10 -38 10 -37 12 -37 12 -38 12 -37 14 -37 14 -37 15 -38 15 -37 15 3 -36zm-3 36c-10,4 -22,0 -26,-11 -4,-10 0,-22 11,-26l15 37zm417 588l-41 3 -3 -40 -5 -38 -6 -36 -7 -34 -8 -32 -9 -30 -10 -29 -10 -27 -11 -25 -12 -24 -13 -22 -13 -21 -13 -20 -14 -18 -15 -18 -14 -16 -15 -15 -15 -14 -15 -14 -16 -12 -15 -12 -15 -11 -16 -10 -15 -10 -15 -9 -14 -9 -15 -8 -14 -8 -13 -8 -13 -8 -13 -7 -12 -7 21 -35 12 7 12 8 13 7 13 8 15 8 14 8 15 9 16 10 16 10 16 11 16 12 16 12 17 14 16 14 16 15 16 16 16 18 15 19 15 20 15 21 14 22 13 24 13 26 12 27 11 29 11 30 9 32 8 33 8 36 6 37 5 40 4 41zm0 0c1,11 -8,21 -19,21 -11,1 -21,-7 -22,-18l41 -3z"/>
   </g>
   <g>
    <path class="fil3" d="M4301 3288c0,0 256,-224 589,-290 332,-66 686,121 686,121 0,0 158,5 218,87 60,82 88,143 11,208 -76,66 -430,198 -828,209 -398,11 -616,-129 -616,-129l-120 8 60 -214z"/>
    <path id="1" class="fil9" d="M4886 2978l8 40 0 0 -31 6 -30 8 -29 8 -29 9 -28 9 -28 10 -27 11 -27 11 -25 11 -25 12 -25 12 -23 12 -23 12 -22 12 -21 12 -20 12 -19 12 -18 12 -17 11 -16 11 -15 10 -13 10 -13 9 -11 8 -11 8 -8 7 -8 6 -6 5 -5 4 -4 3 -2 2 -1 1 -26 -31 1 0 2 -2 4 -4 5 -4 7 -5 7 -7 10 -7 10 -8 12 -8 13 -10 14 -10 15 -11 17 -11 17 -11 19 -12 19 -12 21 -13 21 -12 23 -12 23 -13 24 -12 25 -13 26 -12 27 -11 27 -12 28 -11 29 -10 29 -10 30 -9 30 -8 31 -8 32 -7 0 0zm0 0c11,-2 21,5 24,16 2,11 -5,22 -16,24l-8 -40zm691 121l-1 40 -9 -2 -1 -1 -3 -1 -5 -3 -6 -3 -9 -4 -10 -5 -12 -5 -13 -6 -15 -6 -16 -7 -18 -7 -19 -7 -20 -7 -22 -7 -22 -8 -24 -7 -24 -7 -26 -7 -26 -6 -27 -6 -28 -5 -28 -5 -29 -4 -29 -4 -29 -2 -30 -2 -30 -1 -31 1 -30 1 -31 3 -30 4 -30 5 -8 -40 32 -5 32 -4 32 -3 32 -2 32 0 31 1 32 1 30 3 31 4 29 4 30 5 28 6 28 6 27 6 26 7 25 7 25 8 23 7 22 8 21 7 19 8 19 7 16 7 16 6 14 6 12 6 10 4 9 5 7 3 5 3 4 1 1 1 -9 -2zm9 2c10,5 13,17 8,27 -5,10 -17,14 -27,9l19 -36zm225 93l-33 24 0 0 -5 -6 -5 -6 -6 -6 -7 -5 -7 -5 -7 -5 -7 -5 -8 -4 -8 -4 -9 -4 -8 -3 -9 -4 -8 -2 -9 -3 -8 -3 -9 -2 -8 -2 -8 -1 -8 -2 -8 -1 -7 -2 -7 -1 -6 0 -6 -1 -6 -1 -4 0 -5 -1 -3 0 -3 0 -2 0 -1 0 0 0 1 -40 1 0 1 0 3 0 3 0 4 0 4 1 6 0 5 1 7 1 7 0 7 2 8 1 8 1 9 2 9 2 9 2 9 3 10 2 9 3 10 3 10 4 9 4 10 4 9 5 10 5 9 6 9 6 8 6 9 7 8 8 7 8 7 8 0 0zm0 0c6,9 4,22 -5,29 -9,6 -21,4 -28,-5l33 -24zm7 236l-26 -31 0 0 6 -5 6 -6 5 -5 4 -6 4 -5 4 -5 2 -5 3 -4 2 -5 1 -5 1 -5 1 -4 1 -5 0 -5 0 -5 -1 -5 -1 -5 -1 -5 -2 -5 -2 -6 -2 -6 -2 -6 -3 -6 -4 -6 -3 -7 -4 -6 -4 -7 -5 -7 -4 -7 -5 -7 -5 -7 -6 -8 33 -24 5 8 6 8 5 8 5 7 5 8 5 7 4 7 4 8 4 7 3 7 3 8 3 7 3 7 2 8 2 7 1 8 1 7 0 8 0 7 -1 8 -1 8 -2 7 -2 8 -3 7 -4 7 -4 7 -5 8 -5 7 -6 6 -6 7 -7 7 -8 7 0 0zm0 0c-8,7 -21,6 -28,-2 -7,-9 -6,-22 2,-29l26 31zm-841 213l-1 -41 0 0 37 -1 37 -2 36 -3 36 -3 35 -4 35 -4 34 -5 34 -5 33 -6 33 -6 32 -7 31 -6 31 -7 29 -8 29 -7 28 -8 27 -8 26 -8 25 -8 24 -9 23 -8 21 -8 21 -8 19 -8 17 -8 17 -8 15 -7 13 -8 12 -7 11 -6 8 -6 7 -6 26 31 -9 7 -10 7 -12 8 -13 7 -15 8 -16 8 -17 8 -18 9 -20 8 -21 8 -22 9 -24 8 -24 9 -26 8 -26 8 -28 9 -28 7 -30 8 -30 8 -31 7 -32 7 -32 7 -33 6 -34 6 -35 5 -35 5 -35 4 -36 4 -37 4 -37 2 -37 2 -38 2 0 0zm0 0c-11,0 -20,-9 -20,-20 -1,-11 8,-20 19,-21l1 41zm-615 -129l-3 -41 13 4 0 0 2 1 2 2 5 2 5 3 7 4 8 4 9 4 10 5 12 5 12 6 14 6 15 6 17 6 17 6 19 6 20 6 20 6 23 6 23 6 24 6 26 5 26 5 28 4 29 4 29 4 31 3 33 2 33 2 34 1 35 0 36 -1 1 41 -37 0 -36 0 -35 -1 -34 -2 -33 -2 -32 -3 -31 -4 -29 -4 -29 -5 -27 -5 -26 -5 -26 -6 -24 -6 -22 -6 -22 -6 -21 -7 -19 -6 -18 -6 -17 -7 -16 -6 -14 -6 -14 -6 -12 -5 -11 -6 -10 -4 -8 -5 -7 -4 -6 -3 -5 -3 -3 -2 -2 -1 -1 0 12 3zm-12 -3c-10,-6 -12,-19 -6,-28 6,-10 18,-12 28,-6l-22 34zm-110 -29l119 -9 3 41 -119 8 -21 -25 18 -15zm3 40c-11,1 -21,-7 -22,-18 -1,-12 8,-21 19,-22l3 40zm78 -228l-60 214 -39 -11 60 -214 6 -10 33 21zm-39 -11c3,-11 14,-17 25,-14 10,3 17,14 14,25l-39 -11z"/>
   </g>
   <g>
    <path class="fil3" d="M2553 3360c0,0 312,-302 735,-389 422,-88 967,87 1007,202 41,115 -46,302 -46,302 0,0 -348,191 -816,197 -469,5 -880,-312 -880,-312z"/>
    <path id="1" class="fil9" d="M3284 2951l8 39 0 0 -39 9 -38 10 -37 11 -36 12 -36 12 -35 14 -34 14 -34 15 -32 15 -32 16 -30 16 -29 16 -29 16 -27 17 -26 16 -25 16 -24 16 -22 15 -21 15 -20 15 -18 14 -17 13 -16 12 -14 12 -12 10 -11 10 -10 8 -7 7 -6 5 -5 4 -2 3 -1 0 -28 -29 1 -1 3 -2 4 -5 7 -5 8 -8 9 -8 12 -10 13 -10 14 -12 16 -13 17 -13 19 -14 20 -15 22 -16 23 -16 24 -16 25 -16 27 -17 28 -17 29 -16 30 -17 31 -16 32 -16 33 -16 35 -15 35 -15 36 -13 37 -13 37 -13 39 -11 39 -10 40 -9 0 0zm1030 216l-38 13 0 0 -3 -7 -7 -9 -9 -10 -12 -10 -15 -11 -17 -11 -20 -12 -22 -11 -24 -11 -26 -12 -28 -11 -30 -10 -31 -11 -33 -10 -34 -9 -35 -9 -36 -9 -38 -8 -38 -7 -39 -6 -40 -6 -40 -4 -41 -4 -41 -3 -41 -1 -42 -1 -41 1 -41 2 -41 3 -40 4 -40 6 -39 7 -8 -39 41 -8 41 -6 42 -4 42 -4 42 -1 42 -1 43 0 42 2 42 3 42 4 41 4 41 6 40 7 39 7 38 8 38 8 36 10 35 10 33 10 33 11 30 11 29 11 28 12 25 12 23 12 22 12 19 13 17 12 15 13 12 13 10 14 7 15 0 0zm-55 325l-20 -35 -8 9 0 0 0 -2 1 -2 2 -3 2 -5 2 -5 2 -6 3 -6 3 -8 3 -8 3 -9 3 -9 3 -9 3 -11 4 -10 3 -11 3 -11 2 -12 3 -12 2 -11 3 -12 1 -12 2 -12 1 -12 0 -12 1 -12 -1 -11 0 -12 -2 -11 -1 -10 -3 -10 -3 -10 38 -13 4 12 3 13 2 13 2 13 1 13 0 13 0 13 -1 14 -1 13 -2 13 -2 13 -2 13 -2 13 -3 12 -3 13 -3 12 -4 11 -3 11 -3 11 -4 10 -3 10 -3 9 -4 8 -2 8 -3 7 -3 6 -2 6 -2 4 -2 4 -1 3 -1 2 0 0 -8 9zm8 -9l-3 6 -5 3 8 -9zm-834 209l-1 -40 0 0 44 -1 42 -2 41 -3 41 -4 40 -5 39 -5 38 -6 37 -7 36 -7 35 -8 34 -8 33 -8 31 -9 30 -9 29 -9 28 -9 26 -9 25 -9 24 -9 22 -8 20 -8 19 -8 17 -8 16 -7 14 -6 12 -6 10 -5 9 -4 7 -3 4 -3 3 -1 1 -1 20 35 -2 1 -3 2 -5 2 -7 4 -9 4 -11 6 -12 6 -15 6 -16 7 -17 8 -20 8 -20 8 -23 9 -24 9 -25 9 -27 9 -28 10 -30 9 -31 9 -32 9 -33 8 -35 8 -35 8 -37 8 -38 6 -39 7 -40 5 -41 5 -41 4 -43 3 -43 2 -44 1 0 0zm-894 -347l28 29 -2 -30 1 1 4 2 5 4 8 6 10 7 12 8 14 10 16 10 18 12 20 12 21 13 24 13 24 14 27 15 28 14 29 15 30 14 32 15 33 14 35 14 35 13 36 13 38 12 38 11 39 10 40 9 40 8 41 7 42 5 42 4 43 2 42 1 1 40 -45 0 -44 -3 -44 -3 -43 -6 -42 -7 -42 -8 -41 -10 -40 -10 -39 -12 -39 -12 -37 -13 -36 -14 -35 -14 -34 -14 -33 -15 -31 -15 -30 -15 -28 -15 -27 -14 -25 -15 -24 -13 -22 -14 -20 -12 -19 -12 -16 -11 -14 -9 -13 -9 -10 -7 -8 -6 -6 -5 -4 -2 -1 -1 -2 -31zm2 31l-19 -15 17 -16 2 31z"/>
   </g>
   <path class="fil9" d="M3715 3045c-214,-119 -506,-85 -624,131 -118,217 -28,473 208,486 236,13 478,-33 520,-210 41,-177 14,-341 -104,-407z"/>
   <path class="fil3" d="M3594 3308c0,54 -53,98 -118,98 -66,0 -118,-44 -118,-98 0,-55 52,-99 118,-99 65,0 118,44 118,99z"/>
   <path class="fil9" d="M5292 3034c-190,-85 -478,-83 -573,61 -96,144 -102,384 -41,473 61,89 164,110 314,117 150,6 334,-14 388,-185 55,-172 34,-412 -88,-466z"/>
   <path class="fil3" d="M5188 3292c0,54 -50,98 -111,98 -62,0 -111,-44 -111,-98 0,-54 49,-98 111,-98 61,0 111,44 111,98z"/>
   <g>
    <path class="fil10" d="M4305 3261c2,-31 -1,-61 -10,-88 -40,-115 -589,-427 -1011,-340 -330,69 -588,404 -688,488 532,-239 979,-359 1709,-60z"/>
    <path id="1" class="fil9" d="M4276 3180l38 -13 0 0 1 3 1 2 1 3 1 3 0 3 1 3 1 3 1 3 0 2 1 3 0 3 1 3 0 3 1 3 0 3 0 3 1 3 0 3 0 3 0 3 1 3 0 3 0 3 0 3 0 3 0 3 0 3 0 3 0 3 0 3 0 4 0 3 -41 -2 0 -3 0 -3 1 -3 0 -2 0 -3 0 -3 0 -2 0 -3 0 -2 -1 -3 0 -3 0 -2 0 -3 0 -2 0 -3 -1 -2 0 -3 0 -2 -1 -3 0 -2 0 -3 -1 -2 0 -3 -1 -2 0 -2 -1 -3 -1 -2 0 -2 -1 -2 0 -3 -1 -2 -1 -2 0 0zm-988 -327l-9 -39 0 0 42 -8 41 -5 42 -2 43 -1 42 1 43 3 43 5 42 6 43 8 42 10 41 10 41 12 41 13 39 13 39 15 37 15 37 16 35 16 34 17 32 16 31 18 29 17 27 17 26 17 23 17 22 16 19 16 16 16 15 15 12 15 9 14 7 15 -38 13 -4 -8 -7 -10 -9 -12 -13 -13 -15 -15 -18 -14 -20 -16 -22 -16 -24 -16 -27 -17 -28 -16 -30 -17 -31 -17 -33 -16 -35 -16 -35 -15 -37 -15 -37 -14 -39 -13 -39 -13 -40 -11 -40 -10 -41 -9 -41 -8 -41 -6 -42 -5 -41 -2 -40 -2 -41 1 -40 3 -40 4 -38 7 0 0zm-700 450l16 37 -21 -34 9 -8 11 -10 11 -11 12 -12 14 -14 14 -14 15 -15 16 -17 17 -17 17 -17 18 -19 20 -18 19 -19 21 -20 21 -19 22 -20 23 -19 24 -19 24 -20 24 -18 26 -19 26 -18 27 -17 27 -17 28 -15 28 -15 29 -14 30 -13 30 -12 31 -10 31 -9 31 -7 9 39 -30 7 -29 9 -29 9 -29 11 -28 12 -28 14 -27 14 -27 15 -26 16 -26 17 -25 17 -25 18 -24 18 -23 19 -23 19 -22 19 -22 19 -21 19 -20 19 -19 19 -19 18 -18 18 -18 18 -16 16 -16 17 -15 15 -14 15 -14 13 -13 13 -11 11 -12 11 -10 9 -21 -34zm1697 -43l41 2 -28 17 -67 -26 -66 -25 -64 -21 -63 -20 -61 -17 -60 -16 -58 -13 -58 -11 -56 -9 -55 -7 -54 -5 -53 -3 -53 -2 -51 0 -51 2 -50 3 -50 5 -49 7 -48 8 -49 9 -48 11 -48 12 -47 13 -48 14 -48 16 -47 16 -48 18 -48 19 -48 19 -49 21 -49 21 -50 22 -16 -37 50 -22 49 -22 49 -20 49 -20 49 -19 48 -18 48 -17 49 -15 48 -15 49 -13 49 -13 49 -10 50 -10 49 -8 51 -7 51 -5 51 -3 52 -2 53 0 54 1 54 4 56 5 56 7 57 10 59 11 60 13 61 16 62 17 63 20 65 22 67 25 68 27 -28 18zm41 2l-2 28 -26 -11 28 -17z"/>
   </g>
   <g>
    <path class="fil10" d="M5821 3279c-10,-25 -6,-44 -27,-73 -60,-82 -194,-195 -194,-195 0,0 -178,-173 -678,-138 -338,24 -621,415 -621,415l-11 42c705,-444 1020,-213 1531,-51z"/>
    <path id="1" class="fil9" d="M5778 3218l33 -24 0 0 2 4 2 3 2 3 2 3 1 3 2 3 1 3 2 2 1 3 1 3 1 3 1 3 0 2 1 3 1 2 0 3 1 2 0 2 1 3 0 2 1 2 0 2 1 2 0 2 0 2 1 2 0 2 1 1 0 2 1 2 1 2 0 1 -37 16 -1 -3 -1 -3 -1 -3 -1 -2 -1 -3 0 -2 -1 -3 0 -2 -1 -3 0 -2 -1 -2 0 -2 -1 -2 0 -2 -1 -2 0 -2 -1 -2 0 -2 0 -2 -1 -2 -1 -1 0 -2 -1 -2 -1 -2 0 -2 -1 -1 -1 -2 -1 -2 -2 -2 -1 -2 -1 -3 -2 -2 0 0zm-192 -192l28 -29 -1 -1 0 0 2 1 1 2 3 2 3 3 4 3 4 4 5 4 6 5 5 5 7 5 6 6 7 7 7 6 8 7 8 7 7 8 8 7 9 8 8 8 8 8 8 9 8 8 8 8 8 9 8 8 8 9 7 8 7 9 7 8 7 8 6 8 -33 24 -5 -7 -6 -8 -7 -8 -6 -8 -7 -8 -8 -8 -7 -8 -8 -8 -8 -8 -8 -8 -8 -8 -8 -8 -8 -8 -8 -8 -7 -7 -8 -7 -8 -7 -7 -7 -7 -7 -7 -6 -6 -6 -6 -5 -6 -5 -5 -5 -5 -4 -4 -4 -4 -3 -3 -2 -3 -3 -2 -1 -1 -1 0 0 -1 -1zm1 1l-1 -1 0 0 1 1zm-663 -134l-3 -40 0 0 46 -3 45 -1 42 -1 41 1 40 1 37 3 36 3 34 4 32 4 31 6 29 5 27 7 26 6 24 7 23 8 22 7 19 7 19 8 17 8 15 7 15 7 12 8 12 6 10 7 9 6 8 5 7 5 5 4 4 4 3 2 2 2 1 1 -28 29 0 0 -1 -2 -3 -2 -3 -2 -5 -4 -6 -4 -6 -5 -9 -5 -9 -6 -10 -6 -12 -7 -14 -7 -14 -7 -16 -7 -18 -7 -18 -7 -21 -7 -21 -7 -24 -7 -24 -6 -27 -6 -28 -6 -29 -5 -32 -4 -33 -4 -34 -3 -37 -3 -38 -1 -40 -1 -41 1 -44 1 -45 3 0 0zm-603 401l-39 -11 3 -6 1 -2 2 -3 4 -5 6 -8 7 -9 9 -11 10 -12 11 -13 13 -15 14 -16 15 -16 17 -18 18 -18 18 -18 20 -19 21 -19 22 -20 23 -19 24 -19 25 -18 26 -19 26 -17 28 -17 28 -16 29 -15 29 -13 30 -13 31 -10 32 -10 31 -7 33 -6 33 -3 3 40 -31 3 -30 5 -29 7 -29 9 -29 10 -29 12 -28 13 -27 14 -27 15 -26 16 -25 17 -25 17 -24 18 -23 19 -22 18 -22 19 -20 18 -19 19 -19 18 -17 17 -16 17 -15 16 -14 16 -12 14 -11 13 -10 12 -8 10 -7 9 -6 7 -3 5 -3 3 0 1 3 -6zm-39 -11l1 -3 2 -3 -3 6zm-12 41l12 -41 39 11 -12 41 -9 12 -30 -23zm30 23l-44 28 14 -51 30 23zm1502 -60l37 -16 -25 27 -47 -15 -47 -16 -45 -16 -45 -15 -43 -16 -44 -15 -42 -15 -42 -15 -42 -13 -41 -13 -42 -12 -41 -10 -41 -10 -42 -8 -42 -7 -42 -5 -43 -3 -43 -1 -44 0 -45 3 -46 5 -47 8 -48 10 -50 12 -51 16 -53 18 -54 22 -57 25 -58 28 -60 32 -62 36 -65 39 -21 -34 65 -40 64 -36 61 -33 59 -29 58 -25 56 -22 54 -19 53 -16 52 -14 50 -10 49 -8 48 -5 46 -3 46 0 46 1 44 3 44 6 43 6 43 9 43 9 42 11 42 12 42 13 43 14 42 15 43 15 43 15 44 16 44 15 46 16 46 16 47 15 -25 27zm37 -16l16 40 -41 -13 25 -27z"/>
   </g>
   <g>
    <path class="fil11" d="M3205 4483c112,18 222,33 329,44 828,90 1508,-2 2041,-276 223,13 289,120 197,321 16,182 -30,293 -139,335 -932,161 -1716,204 -2352,129 -222,-27 -1049,-133 -952,-482 48,-173 174,-242 313,-241 181,1 331,134 563,170z"/>
    <path id="1" class="fil9" d="M3537 4507l-5 40 0 0 -10 -1 -10 -1 -10 -1 -10 -1 -10 -1 -11 -2 -10 -1 -10 -1 -10 -1 -11 -2 -10 -1 -10 -1 -10 -1 -11 -2 -10 -1 -10 -2 -11 -1 -10 -1 -10 -2 -11 -1 -10 -2 -11 -1 -10 -2 -10 -1 -11 -2 -10 -1 -11 -2 -10 -1 -11 -2 -10 -2 -11 -1 -11 -2 7 -40 10 2 11 2 10 1 11 2 10 1 11 2 10 1 10 2 11 1 10 2 10 1 11 2 10 1 10 2 11 1 10 1 10 2 11 1 10 2 10 1 10 1 10 1 11 2 10 1 10 1 10 1 10 2 10 1 10 1 10 1 11 1 10 1 0 0zm2039 -276l-2 40 10 -2 -51 25 -51 25 -53 23 -53 22 -55 21 -55 20 -56 19 -56 18 -58 16 -59 16 -59 15 -60 13 -61 12 -62 12 -63 10 -64 9 -65 9 -65 7 -66 6 -67 5 -68 3 -69 3 -70 2 -70 1 -72 -1 -72 -1 -73 -3 -74 -4 -75 -4 -76 -6 -76 -7 -78 -8 5 -40 76 8 77 7 75 6 74 4 73 4 73 2 72 2 71 0 69 0 70 -2 68 -3 67 -4 66 -5 66 -6 65 -7 64 -8 63 -9 62 -10 61 -11 60 -12 60 -14 58 -14 58 -16 57 -16 56 -18 55 -18 54 -20 54 -21 52 -21 52 -23 51 -24 50 -25 10 -2zm-10 2c9,-5 22,-1 27,9 5,10 1,22 -9,27l-18 -36zm226 337l-40 4 1 -11 8 -18 7 -17 6 -17 5 -16 5 -15 3 -15 2 -14 2 -14 1 -13 0 -12 -1 -12 -2 -10 -3 -11 -3 -10 -4 -9 -5 -8 -5 -9 -7 -7 -7 -8 -8 -7 -9 -6 -10 -7 -11 -6 -12 -5 -13 -5 -14 -4 -15 -4 -16 -4 -17 -3 -18 -2 -19 -2 -19 -2 2 -40 21 1 20 3 20 2 18 4 18 3 16 5 16 5 15 6 15 6 13 7 12 8 12 9 11 9 9 10 9 10 8 12 6 11 6 13 4 13 3 14 3 14 1 14 0 15 -1 16 -2 15 -2 17 -4 16 -5 18 -6 17 -6 18 -8 19 -8 19 2 -10zm-2 10c-5,10 -17,15 -27,10 -10,-5 -14,-17 -10,-27l37 17zm-153 347l-7 -40 -4 1 9 -4 9 -4 8 -4 8 -5 8 -5 7 -6 7 -6 7 -6 6 -7 6 -6 6 -8 6 -8 5 -8 4 -8 5 -9 4 -10 4 -10 3 -10 3 -11 3 -11 3 -12 2 -12 2 -12 1 -13 1 -13 1 -14 1 -15 0 -14 0 -15 -1 -16 -1 -16 -1 -16 40 -4 1 17 1 17 1 16 0 17 0 15 0 16 -1 14 -1 15 -2 14 -2 14 -3 13 -2 13 -4 13 -3 12 -4 12 -5 12 -5 11 -5 10 -6 11 -6 10 -6 9 -7 9 -8 9 -8 8 -8 8 -8 7 -10 7 -9 6 -10 6 -10 5 -11 5 -11 5 -3 1zm3 -1c-10,3 -22,-2 -26,-12 -4,-11 2,-22 12,-26l14 38zm-2362 130l5 -40 0 0 60 6 61 6 61 6 63 4 63 4 64 3 65 3 66 2 67 1 68 1 68 -1 70 -1 70 -1 71 -2 72 -3 73 -4 74 -4 74 -5 76 -6 76 -7 78 -7 78 -8 79 -8 80 -9 80 -10 82 -11 82 -11 84 -12 84 -13 85 -13 86 -14 87 -15 7 40 -87 14 -87 14 -85 14 -84 13 -84 12 -83 11 -82 11 -81 10 -80 9 -79 8 -78 8 -78 8 -77 6 -76 6 -75 5 -74 4 -73 4 -72 3 -72 2 -71 2 -69 1 -69 0 -68 -1 -68 -1 -66 -2 -66 -2 -64 -4 -64 -4 -63 -4 -62 -6 -61 -6 -61 -6 0 0zm-968 -507l39 10 0 0 -6 29 -1 28 3 26 7 25 11 24 15 23 19 22 22 22 26 20 28 20 32 19 33 18 36 16 38 16 39 15 41 14 42 14 42 12 43 11 42 11 43 10 42 9 42 8 41 7 39 7 38 6 35 6 34 5 32 4 28 4 26 3 22 3 -5 40 -22 -3 -26 -3 -29 -4 -31 -4 -34 -5 -37 -6 -38 -6 -40 -7 -41 -8 -42 -8 -42 -9 -44 -10 -43 -11 -44 -11 -43 -13 -43 -13 -42 -15 -40 -15 -39 -17 -38 -17 -35 -19 -34 -20 -30 -22 -29 -22 -25 -24 -21 -26 -18 -28 -14 -29 -9 -31 -4 -33 2 -33 7 -35 0 0zm0 0c3,-11 14,-17 25,-14 10,3 17,14 14,24l-39 -10zm333 -256l-1 40 0 0 -12 0 -12 1 -13 1 -12 1 -11 2 -12 2 -12 3 -11 3 -11 3 -11 4 -11 4 -11 5 -10 5 -10 5 -10 6 -10 7 -9 7 -9 7 -9 8 -9 9 -8 8 -8 10 -8 10 -7 10 -7 11 -7 12 -7 12 -6 13 -6 14 -5 14 -5 14 -4 15 -39 -10 5 -17 5 -16 6 -16 6 -14 7 -15 7 -13 8 -14 8 -12 9 -12 8 -12 10 -10 9 -11 10 -9 11 -10 10 -8 11 -8 11 -8 12 -7 11 -6 12 -6 12 -5 13 -5 12 -4 13 -4 13 -4 13 -3 13 -2 13 -2 14 -1 13 -1 14 -1 14 0 0 0zm565 170l-7 40 0 0 -22 -4 -21 -4 -21 -5 -21 -5 -20 -6 -20 -6 -19 -6 -19 -7 -19 -6 -18 -7 -18 -8 -18 -7 -18 -7 -17 -7 -17 -7 -17 -8 -16 -7 -17 -6 -16 -7 -16 -6 -16 -7 -16 -5 -15 -6 -16 -5 -16 -4 -15 -4 -16 -4 -16 -3 -15 -2 -16 -2 -16 -1 -16 -1 1 -40 17 0 18 2 17 2 17 2 17 4 17 3 17 5 17 5 16 5 17 6 16 6 17 6 16 7 17 6 17 7 16 7 17 7 17 8 17 7 17 7 18 7 17 7 18 7 18 6 19 7 18 6 19 5 20 6 19 5 20 5 21 4 21 3 0 0z"/>
   </g>
   <g>
    <path class="fil9" d="M2637 4586c-10,-5 -14,-17 -9,-27 5,-10 17,-14 27,-9l-18 36zm3128 -33l13 38 -67 21 -73 20 -79 19 -85 18 -90 17 -94 15 -99 15 -103 13 -106 12 -109 11 -111 9 -114 8 -115 6 -116 6 -117 3 -117 3 -117 0 -116 -1 -116 -2 -113 -5 -112 -5 -109 -8 -107 -9 -103 -12 -99 -13 -95 -14 -91 -17 -85 -19 -80 -21 -74 -23 -68 -25 -61 -27 18 -36 58 26 66 24 72 22 78 21 84 18 90 17 94 15 98 12 102 11 106 10 108 7 112 6 113 4 114 3 116 1 116 -1 117 -2 116 -4 116 -5 115 -6 113 -8 111 -10 108 -10 105 -12 102 -13 99 -15 93 -15 89 -17 84 -17 78 -19 72 -20 65 -20zm0 0c11,-4 22,2 26,12 3,11 -2,22 -13,26l-13 -38z"/>
   </g>
   <g>
    <path class="fil10" d="M4279 3366l-38 136 1 1c0,0 352,262 749,251 398,-11 738,-274 814,-340 49,-41 49,-77 32,-122 -492,245 -1055,281 -1558,74z"/>
    <path id="1" class="fil9" d="M4222 3497l38 -136 39 11 -38 136 -39 1 0 -12zm0 12l-2 -6 2 -6 0 12zm1 1l-1 -1 38 -14 1 2 -31 23 -7 -10zm7 10l-5 -4 -2 -6 7 10zm761 214l1 40 0 0 -38 1 -38 -2 -37 -2 -37 -4 -36 -6 -35 -6 -35 -7 -35 -9 -33 -9 -33 -10 -32 -10 -31 -11 -30 -12 -29 -12 -27 -12 -27 -12 -26 -12 -24 -12 -23 -12 -22 -12 -20 -11 -19 -11 -17 -10 -16 -10 -14 -9 -12 -8 -11 -7 -9 -6 -7 -5 -5 -3 -3 -2 -1 -1 24 -33 1 1 2 2 5 3 7 5 9 6 10 7 12 7 14 9 15 9 17 10 18 11 20 11 21 11 22 12 24 12 25 12 26 12 27 11 28 12 29 11 30 11 31 10 32 9 33 9 33 8 33 7 35 7 35 5 35 4 36 2 36 1 36 0 0 0zm801 -335l26 31 0 0 -8 7 -9 8 -11 9 -13 9 -14 11 -15 12 -17 12 -18 12 -19 13 -20 14 -22 14 -22 14 -24 15 -25 14 -26 14 -27 15 -28 14 -28 14 -30 14 -30 13 -32 13 -32 12 -33 11 -33 11 -35 10 -34 9 -36 8 -36 7 -37 6 -37 4 -37 4 -38 1 -1 -40 36 -2 36 -3 36 -4 35 -6 35 -6 34 -8 34 -9 33 -9 32 -11 32 -11 31 -12 31 -12 30 -13 28 -13 28 -14 28 -14 26 -14 25 -14 24 -14 24 -14 22 -14 21 -14 20 -13 18 -13 18 -12 16 -12 15 -11 13 -10 12 -10 11 -9 9 -7 8 -7 0 0zm54 -89l-18 -36 28 11 2 4 1 5 2 4 1 5 1 4 1 5 1 4 1 5 1 5 0 4 0 5 1 5 -1 4 0 5 -1 5 0 4 -1 5 -2 5 -1 4 -2 5 -2 5 -3 4 -2 5 -3 4 -3 5 -3 4 -4 4 -4 5 -4 4 -4 4 -5 4 -5 5 -26 -31 4 -3 4 -4 3 -3 3 -4 3 -3 3 -3 2 -3 2 -3 2 -3 2 -3 1 -3 2 -3 1 -3 1 -2 0 -3 1 -3 0 -2 1 -3 0 -3 0 -3 0 -3 0 -3 0 -3 -1 -3 0 -3 -1 -3 -1 -3 -1 -4 -1 -3 -1 -4 -1 -4 -2 -4 28 11zm-18 -36l20 -10 8 21 -28 -11zm-1529 98l-39 -11 27 -13 47 18 47 17 47 16 48 14 48 13 48 11 49 11 48 8 49 8 49 6 49 5 49 3 49 2 49 1 49 -1 49 -2 50 -3 49 -4 49 -6 49 -7 48 -9 49 -9 49 -11 48 -12 48 -14 48 -15 47 -16 47 -17 47 -18 47 -20 46 -21 46 -22 18 36 -47 23 -47 21 -47 20 -48 19 -48 18 -49 16 -49 15 -49 14 -49 12 -50 11 -49 10 -50 9 -50 7 -50 6 -50 4 -50 4 -51 2 -50 0 -50 -1 -50 -2 -51 -3 -50 -5 -50 -6 -50 -8 -49 -9 -50 -10 -49 -12 -49 -13 -49 -15 -48 -16 -48 -17 -48 -19 27 -13zm-39 -11l6 -22 21 9 -27 13z"/>
   </g>
   <g>
    <path class="fil10" d="M2563 3351c-7,5 -10,9 -10,9 0,0 402,459 871,454 469,-6 825,-339 825,-339 0,0 26,-56 42,-125 -920,322 -1168,145 -1728,1z"/>
    <path id="1" class="fil9" d="M2568 3346l-30 27 1 -28 0 0 0 0 0 0 0 0 0 0 0 0 0 0 1 -1 0 0 0 0 0 0 0 0 1 -1 0 0 0 0 1 0 0 -1 0 0 1 0 0 -1 0 0 1 0 0 -1 1 0 0 -1 1 0 0 -1 1 0 0 -1 1 0 0 -1 1 0 27 30 0 0 -1 1 -1 0 0 1 -1 0 0 1 0 0 -1 0 0 1 -1 0 0 1 -1 0 0 0 0 1 -1 0 0 0 0 0 0 1 -1 0 0 0 0 0 0 0 0 1 -1 0 0 0 0 0 0 0 0 0 0 0 0 0 0 0 0 0 1 -28zm-30 27l-13 -15 14 -13 -1 28zm886 421l0 40 0 0 -45 -1 -44 -3 -44 -6 -43 -9 -43 -10 -42 -12 -41 -14 -40 -15 -39 -17 -38 -18 -37 -19 -36 -20 -35 -21 -33 -21 -32 -21 -31 -22 -30 -21 -28 -22 -26 -21 -25 -21 -23 -20 -22 -19 -20 -18 -18 -17 -16 -16 -14 -14 -12 -12 -11 -11 -8 -8 -5 -7 -4 -4 -1 -1 30 -27 1 2 3 3 6 6 8 9 10 10 11 12 14 14 16 15 18 16 19 18 21 19 23 19 24 21 26 20 28 21 28 21 30 21 32 21 32 21 34 20 35 19 36 19 37 17 38 16 38 15 39 14 40 11 41 10 41 8 42 5 42 4 43 1 0 0zm807 -328l36 17 -4 6 -2 2 -3 3 -5 4 -7 6 -9 8 -11 9 -13 11 -15 11 -16 12 -18 14 -20 14 -21 14 -23 15 -25 16 -26 16 -27 16 -29 16 -30 16 -31 15 -33 15 -34 15 -35 14 -36 14 -37 13 -39 11 -39 11 -40 9 -42 8 -42 7 -43 5 -43 3 -45 2 0 -40 42 -2 42 -3 42 -5 40 -6 40 -8 39 -9 38 -10 37 -12 36 -12 36 -13 34 -14 33 -14 31 -15 31 -15 29 -16 28 -15 27 -16 25 -15 24 -15 22 -15 21 -14 19 -14 18 -13 16 -12 14 -11 12 -10 11 -9 8 -7 7 -6 5 -5 3 -2 1 -1 -4 6zm36 17l-2 4 -2 2 4 -6zm31 -114l-13 -38 26 24 -2 7 -1 6 -2 6 -2 7 -2 6 -1 6 -2 6 -2 6 -2 6 -2 5 -2 5 -1 6 -2 5 -2 4 -2 5 -1 4 -2 5 -2 4 -1 4 -1 3 -2 3 -1 3 -1 3 -1 3 -1 2 -1 2 -1 2 -1 1 0 2 -1 0 0 1 0 0 -36 -17 0 0 0 0 0 -1 1 -1 0 -1 1 -2 1 -2 1 -2 1 -2 1 -3 1 -3 1 -3 2 -3 1 -4 1 -4 2 -4 2 -4 1 -4 2 -5 2 -5 1 -5 2 -5 2 -5 1 -5 2 -6 2 -6 2 -5 1 -6 2 -6 2 -6 1 -6 2 -7 26 24zm-13 -38l35 -12 -9 36 -26 -24zm-1709 35l-27 -30 19 -5 51 14 51 14 48 13 48 14 46 13 45 13 44 13 44 12 43 12 43 11 43 10 43 9 44 8 43 7 45 6 45 5 46 3 48 2 49 1 50 -2 52 -3 55 -4 56 -7 59 -9 61 -11 64 -13 67 -15 70 -18 73 -21 77 -23 80 -25 84 -29 13 38 -85 29 -80 26 -78 23 -74 21 -71 18 -67 16 -65 13 -63 11 -60 9 -57 7 -56 5 -53 3 -52 1 -50 0 -49 -2 -48 -4 -46 -5 -46 -6 -44 -7 -45 -9 -44 -9 -43 -10 -44 -11 -44 -12 -44 -12 -44 -13 -45 -13 -47 -13 -47 -14 -48 -14 -50 -13 -51 -14 18 -4zm-27 -30l8 -7 11 2 -19 5z"/>
   </g>
   <path class="fil8 str0" d="M5998 5897c107,34 225,71 355,110"/>
   <path class="fil1" d="M6140 4993c-178,715 59,820 711,314 -202,-191 -438,-296 -711,-314z"/>
   <path class="fil8 str0" d="M5951 5569c143,0 282,38 416,114"/>
   <path class="fil8 str0" d="M5984 5243c174,40 383,129 627,267"/>
   <path class="fil8 str0" d="M6140 4993c-111,29 -163,112 -156,250 -113,112 -124,221 -33,326 -124,128 -109,237 47,328 -114,107 -108,201 20,280 108,54 210,84 304,90"/>
   <path class="fil8 str0" d="M6851 5307c-223,-200 -460,-305 -711,-314"/>
   <g>
    <path class="fil1" d="M1781 2999c448,-1118 1095,-1390 1942,-816 798,-388 1245,-306 1364,363 259,73 364,203 493,324 117,133 161,179 141,270 28,33 49,41 76,104 91,125 41,118 -72,267 52,86 -12,213 -179,247 -58,148 -173,177 -358,223 460,160 570,575 490,715 -86,164 -4,353 -97,467 -426,525 -3247,996 -4407,-27 -178,-157 -184,-457 -162,-771 43,-644 329,-1341 769,-1366z"/>
    <path id="1" class="fil12" d="M3715 2165l17 36 -20 -1 -78 -51 -77 -46 -76 -41 -74 -36 -74 -31 -72 -26 -70 -21 -70 -17 -68 -11 -67 -7 -65 -2 -65 4 -63 7 -62 13 -61 18 -60 22 -59 28 -57 32 -57 37 -55 42 -55 47 -53 52 -53 57 -51 62 -50 66 -49 72 -48 77 -47 82 -46 87 -44 91 -44 97 -42 102 -37 -15 42 -103 44 -98 45 -92 47 -88 47 -84 49 -78 50 -73 51 -68 53 -64 54 -58 55 -54 56 -48 58 -44 59 -39 60 -33 61 -29 63 -23 64 -19 65 -13 67 -9 67 -3 69 2 70 7 70 12 72 17 73 21 74 27 75 32 77 37 77 42 78 47 80 51 -20 -1zm17 36l-10 5 -10 -6 20 1zm1360 325l-11 39 -14 -16 -12 -60 -14 -57 -16 -53 -17 -50 -19 -46 -22 -43 -23 -39 -24 -37 -27 -33 -28 -29 -30 -27 -33 -23 -33 -21 -36 -17 -38 -15 -40 -11 -42 -9 -44 -6 -46 -2 -48 0 -50 3 -53 6 -54 9 -57 13 -59 14 -61 18 -63 21 -65 24 -67 26 -69 29 -71 32 -74 35 -17 -36 74 -35 72 -33 70 -29 68 -27 66 -24 64 -21 63 -18 60 -16 58 -12 57 -10 54 -6 53 -3 50 -1 49 3 47 6 45 9 43 13 41 16 39 19 37 22 35 26 33 29 30 32 29 35 27 39 24 42 22 45 21 49 18 52 16 55 14 58 12 62 -14 -16zm-11 39l-12 -4 -2 -12 14 16zm514 292l-30 26 1 2 -12 -12 -12 -11 -12 -12 -12 -11 -12 -12 -12 -11 -11 -11 -12 -12 -12 -11 -12 -11 -12 -11 -13 -11 -12 -11 -13 -11 -14 -10 -13 -11 -14 -10 -14 -10 -15 -10 -15 -10 -16 -10 -16 -9 -17 -10 -17 -9 -18 -9 -19 -8 -19 -8 -20 -9 -21 -7 -22 -8 -22 -7 -24 -7 11 -39 24 7 24 8 23 8 21 8 21 8 21 9 19 9 19 9 18 10 18 10 17 9 17 11 15 10 16 10 15 11 14 11 15 11 13 11 14 11 13 11 13 12 12 11 12 12 13 11 12 11 12 12 11 11 12 12 12 11 12 12 12 11 12 11 1 2zm-1 -2l0 1 1 1 -1 -2zm142 272l-30 27 -5 -18 2 -8 1 -7 1 -7 0 -7 1 -7 -1 -6 0 -6 -1 -7 -1 -6 -2 -6 -1 -6 -3 -6 -2 -6 -3 -7 -4 -6 -3 -7 -5 -7 -4 -7 -5 -8 -6 -7 -6 -8 -6 -8 -7 -9 -7 -9 -8 -9 -8 -9 -9 -10 -9 -11 -9 -10 -10 -12 -11 -11 -10 -13 30 -26 11 12 10 12 10 11 10 11 9 10 8 10 9 10 8 10 7 9 7 9 7 8 7 9 6 8 5 8 5 9 5 8 5 7 4 8 4 8 3 8 3 8 2 8 2 9 2 8 1 8 1 9 0 8 0 9 -1 9 -1 8 -1 9 -2 10 -5 -18zm-30 27l-7 -8 2 -10 5 18zm107 78l-32 24 -3 -4 -2 -5 -2 -6 -3 -5 -2 -4 -2 -4 -2 -5 -3 -3 -2 -4 -2 -3 -2 -3 -2 -3 -2 -3 -2 -3 -2 -3 -2 -2 -2 -2 -2 -3 -2 -2 -2 -2 -2 -2 -2 -3 -3 -2 -2 -2 -2 -3 -3 -2 -2 -2 -3 -3 -2 -3 -3 -2 -3 -3 -2 -3 -3 -3 30 -27 3 3 2 2 3 3 2 2 2 3 3 2 2 3 2 2 3 2 2 3 2 2 3 3 2 2 3 3 2 3 3 2 2 3 3 3 2 4 3 3 2 4 3 3 2 4 3 4 2 4 3 5 2 5 3 5 3 5 2 5 3 6 2 6 -2 -4zm-32 24l-2 -2 -1 -2 3 4zm-38 245l-35 21 1 -23 11 -14 10 -13 10 -12 9 -11 9 -10 8 -10 8 -9 8 -9 7 -8 6 -8 5 -6 6 -7 4 -6 4 -6 3 -5 2 -5 2 -5 2 -4 1 -4 0 -4 0 -4 0 -5 -1 -5 -2 -5 -2 -6 -3 -7 -4 -7 -5 -8 -5 -9 -6 -10 -7 -10 -8 -11 32 -24 9 12 7 11 7 10 6 10 5 9 5 10 4 8 3 9 3 9 1 8 1 9 0 8 -1 9 -1 8 -3 7 -3 8 -4 7 -4 8 -5 7 -5 7 -6 8 -6 7 -7 8 -7 8 -7 9 -8 9 -8 10 -9 10 -9 11 -9 12 -10 12 -11 13 2 -22zm-35 21l-7 -12 8 -11 -1 23zm-143 243l-37 -15 14 -12 15 -3 14 -4 13 -4 13 -5 12 -5 11 -5 11 -6 10 -6 10 -7 9 -6 8 -7 8 -7 7 -7 6 -8 6 -7 6 -8 4 -8 5 -8 3 -8 3 -8 3 -8 1 -7 2 -8 0 -8 1 -8 -1 -7 -1 -8 -1 -7 -2 -8 -3 -7 -3 -7 -4 -6 35 -21 5 9 4 10 4 10 3 10 2 10 1 11 1 11 0 10 -1 11 -2 10 -2 11 -4 10 -4 11 -4 10 -5 10 -6 10 -7 9 -8 10 -8 9 -8 9 -10 8 -10 9 -10 8 -11 7 -12 7 -13 7 -13 6 -14 6 -14 5 -15 5 -16 4 -16 3 15 -12zm-37 -15l4 -10 10 -2 -14 12zm-333 212l-13 38 2 -39 17 -4 16 -4 17 -4 15 -4 16 -4 15 -5 14 -4 14 -4 14 -4 13 -5 13 -4 12 -5 12 -5 11 -5 11 -5 11 -5 10 -6 10 -6 10 -6 9 -7 8 -7 9 -7 8 -8 8 -8 7 -9 7 -9 7 -9 6 -11 7 -10 6 -12 5 -12 6 -13 37 15 -6 14 -6 14 -7 13 -7 12 -8 12 -7 11 -9 11 -8 10 -9 10 -10 9 -10 8 -10 8 -10 8 -11 7 -11 7 -12 6 -12 6 -12 6 -12 6 -13 5 -13 5 -14 5 -14 4 -14 5 -15 4 -15 4 -15 4 -15 5 -16 4 -17 4 -17 4 -17 4 2 -38zm-13 38l-64 -22 66 -17 -2 39zm514 705l-36 -19 0 0 6 -12 6 -14 4 -15 3 -17 2 -18 1 -19 -1 -20 -1 -22 -3 -22 -4 -23 -6 -24 -7 -24 -8 -25 -10 -25 -11 -25 -13 -26 -14 -25 -16 -26 -18 -26 -19 -25 -21 -25 -23 -25 -24 -24 -26 -23 -28 -23 -29 -22 -32 -22 -33 -20 -36 -19 -37 -18 -39 -17 -41 -15 13 -38 43 16 41 17 39 19 37 20 35 22 33 22 31 23 29 24 28 25 25 25 24 26 22 27 21 27 18 27 17 27 16 27 13 28 12 27 11 27 9 26 7 26 6 26 5 25 3 24 2 24 0 23 -1 21 -2 21 -4 20 -5 18 -7 18 -7 16 0 -1zm-36 -19l0 0 0 0 0 0zm-63 489l-32 -25 0 0 8 -10 6 -10 6 -10 5 -11 4 -11 4 -12 3 -12 2 -13 2 -13 2 -13 2 -14 1 -14 0 -15 1 -14 1 -15 0 -15 0 -16 1 -16 0 -15 1 -16 1 -17 1 -16 2 -16 2 -17 2 -16 3 -17 4 -17 5 -16 5 -17 6 -17 7 -16 8 -17 36 19 -7 14 -6 15 -6 15 -5 15 -4 15 -3 15 -3 15 -2 16 -2 15 -2 16 -1 15 -1 16 0 15 -1 16 0 15 -1 16 0 15 -1 15 0 15 -1 16 -1 14 -2 15 -2 15 -2 14 -3 15 -4 14 -4 14 -5 13 -6 14 -7 13 -8 12 -9 12 0 0zm-4436 -24l26 -30 0 0 112 91 122 82 129 74 137 66 144 59 150 51 155 44 160 38 164 31 167 24 169 19 171 12 172 7 171 2 172 -3 169 -8 168 -13 165 -17 161 -21 157 -24 151 -28 146 -32 139 -34 132 -37 124 -39 114 -41 105 -43 95 -45 83 -46 71 -46 59 -47 44 -47 32 25 -49 52 -62 50 -74 48 -86 47 -97 46 -106 44 -116 41 -125 40 -133 37 -141 35 -147 31 -152 28 -158 25 -163 21 -165 17 -169 13 -171 8 -172 3 -173 -1 -173 -8 -173 -12 -170 -19 -169 -25 -165 -31 -162 -38 -157 -44 -152 -52 -146 -60 -140 -67 -132 -76 -124 -84 -114 -93 0 0zm-170 -787l41 2 0 0 -2 30 -2 29 -1 29 -2 29 -1 28 0 29 -1 28 0 28 0 27 1 28 1 27 2 26 2 26 2 26 3 25 4 25 4 25 5 23 5 24 6 23 7 22 7 21 8 21 9 20 9 20 10 19 11 18 12 17 13 17 14 16 14 15 15 14 -26 30 -17 -15 -16 -17 -15 -18 -14 -18 -13 -19 -13 -20 -11 -21 -10 -21 -9 -22 -9 -22 -8 -23 -7 -24 -6 -24 -6 -24 -5 -25 -4 -25 -4 -26 -3 -27 -3 -26 -2 -27 -1 -27 -1 -28 -1 -28 0 -28 0 -29 0 -28 1 -29 1 -29 1 -29 2 -30 1 -29 2 -29 0 0zm772 -1373l37 15 -18 13 -38 4 -38 8 -38 11 -36 15 -35 18 -35 21 -34 24 -33 27 -32 31 -31 33 -30 35 -30 38 -28 41 -27 42 -26 45 -25 47 -24 49 -23 50 -21 52 -21 53 -19 55 -18 56 -17 57 -15 57 -14 59 -13 59 -12 60 -10 59 -9 61 -7 60 -7 60 -4 60 -41 -2 5 -61 6 -62 8 -61 9 -61 11 -61 11 -60 13 -60 15 -60 16 -58 17 -58 18 -57 19 -56 21 -54 22 -53 23 -52 25 -49 26 -48 26 -47 28 -44 30 -42 30 -39 32 -37 32 -35 34 -32 35 -29 36 -26 38 -23 38 -19 40 -16 41 -13 41 -8 43 -5 -17 13zm37 15l-5 12 -13 1 18 -13z"/>
   </g>
   <g>
    <path class="fil9" d="M1769 2976c2,-11 13,-19 24,-17 11,2 18,12 16,23l-40 -6zm-14 389l-41 -4 2 -12 1 -11 2 -12 1 -11 2 -12 1 -11 2 -12 1 -12 2 -11 1 -12 2 -12 1 -12 2 -12 2 -12 1 -12 2 -12 2 -12 2 -12 1 -12 2 -12 2 -12 2 -12 2 -13 2 -12 1 -12 2 -13 2 -12 2 -13 2 -12 2 -13 2 -12 2 -13 40 6 -2 13 -2 13 -2 12 -2 13 -2 12 -2 12 -2 13 -2 12 -1 12 -2 13 -2 12 -2 12 -2 12 -1 12 -2 12 -2 12 -2 12 -1 12 -2 12 -2 12 -1 11 -2 12 -1 12 -2 12 -1 11 -2 12 -1 11 -2 12 -1 11 -2 12 -1 11 -1 11zm0 0c-2,11 -12,19 -23,18 -11,-1 -19,-11 -18,-22l41 4z"/>
   </g>
   <g>
    <path class="fil9" d="M3945 3826c10,-6 22,-2 28,8 5,10 1,22 -8,27l-20 -35zm-614 297l-12 -39 23 -7 23 -8 23 -8 23 -7 22 -8 22 -8 22 -8 21 -7 22 -8 21 -8 21 -8 20 -8 21 -8 20 -8 20 -8 20 -8 19 -8 19 -8 19 -8 19 -9 19 -8 18 -8 18 -8 18 -9 17 -8 17 -8 18 -9 16 -8 17 -9 16 -8 16 -9 16 -8 20 35 -17 9 -16 9 -17 8 -16 9 -17 8 -18 9 -17 8 -18 9 -18 8 -18 9 -19 8 -19 8 -19 9 -19 8 -19 8 -20 8 -20 8 -20 9 -20 8 -21 8 -21 8 -21 8 -21 8 -22 8 -22 7 -22 8 -22 8 -22 8 -23 8 -23 7 -23 8 -24 8zm0 0c-10,3 -22,-3 -25,-13 -4,-11 2,-22 13,-26l12 39z"/>
   </g>
   <g>
    <path class="fil9" d="M4396 3910c-10,-4 -15,-16 -11,-26 4,-11 16,-16 26,-11l-15 37zm371 141l-21 34 -9 -6 -9 -5 -9 -6 -9 -5 -9 -6 -9 -5 -10 -6 -10 -5 -9 -6 -10 -5 -10 -6 -11 -5 -10 -5 -11 -6 -10 -5 -11 -6 -11 -5 -11 -6 -12 -5 -11 -6 -12 -5 -12 -6 -11 -5 -13 -6 -12 -5 -12 -5 -13 -6 -12 -5 -13 -6 -13 -5 -13 -6 -13 -5 15 -37 14 5 13 6 13 5 13 6 13 5 12 6 13 5 12 6 12 5 12 6 12 5 12 6 12 5 11 6 12 6 11 5 11 6 11 5 10 6 11 5 11 6 10 6 10 5 10 6 10 5 10 6 10 6 9 5 9 6 10 5 9 6 8 6zm0 0c10,6 13,18 7,27 -6,10 -19,13 -28,7l21 -34z"/>
   </g>
   <g>
    <path class="fil9" d="M5214 3954c11,-3 22,4 24,15 2,11 -5,22 -16,24l-8 -39zm-575 66l0 -40 18 -1 19 0 18 0 19 0 19 0 18 0 19 0 19 0 19 0 19 0 18 0 19 0 19 0 18 0 19 0 19 -1 18 0 18 0 18 -1 19 -1 18 -1 17 -1 18 -1 18 -1 17 -2 17 -1 17 -2 17 -2 16 -3 16 -2 16 -3 16 -3 8 39 -16 3 -17 3 -17 3 -17 3 -17 2 -18 2 -17 2 -18 1 -18 2 -18 1 -18 1 -19 1 -18 0 -19 1 -18 0 -19 1 -18 0 -19 0 -19 0 -19 0 -19 1 -18 -1 -19 0 -19 0 -19 0 -19 0 -18 0 -19 0 -19 0 -18 0 -18 1 -19 0zm0 0c-11,0 -20,-9 -20,-20 0,-11 8,-20 20,-20l0 40z"/>
   </g>
   <g>
    <path class="fil9" d="M3707 2196c-7,-9 -5,-21 3,-28 9,-7 22,-6 29,2l-32 26zm173 387l21 -35 -31 17 0 -12 0 -13 -1 -12 -1 -12 -1 -12 -2 -12 -2 -11 -2 -12 -2 -11 -3 -11 -4 -11 -3 -11 -4 -11 -4 -11 -5 -11 -5 -11 -5 -11 -5 -11 -6 -11 -6 -11 -7 -11 -7 -11 -7 -11 -8 -11 -8 -12 -8 -12 -8 -11 -9 -12 -10 -12 -9 -13 -10 -12 -11 -13 32 -26 10 13 10 13 10 13 10 12 9 13 9 12 9 12 8 12 8 12 7 12 8 11 7 12 6 12 7 12 5 11 6 12 5 12 5 12 5 12 4 12 4 12 4 12 3 12 3 13 2 12 2 13 2 13 1 13 2 13 0 13 1 14 0 14 -31 17zm31 -17c0,11 -10,20 -21,20 -11,0 -20,-10 -20,-21l41 1zm-1430 30l-25 -32 39 -30 40 -29 40 -27 40 -24 41 -23 41 -21 42 -19 42 -17 43 -15 43 -13 43 -11 44 -9 44 -8 44 -5 45 -3 45 -2 45 1 46 2 46 5 47 6 47 8 47 11 48 12 48 14 48 16 48 18 49 19 49 22 50 24 50 25 50 28 51 29 -21 35 -50 -29 -49 -27 -49 -25 -48 -23 -49 -21 -47 -20 -48 -17 -47 -16 -46 -13 -46 -12 -46 -10 -45 -8 -45 -6 -45 -4 -44 -3 -44 0 -43 1 -43 3 -43 5 -42 7 -42 9 -41 11 -42 13 -40 14 -41 16 -40 19 -40 20 -39 22 -39 24 -39 25 -39 28 -38 30zm0 0c-9,7 -21,5 -28,-4 -7,-8 -6,-21 3,-28l25 32z"/>
   </g>
   <g>
    <path class="fil9" d="M5098 2529c9,6 12,18 5,28 -6,9 -18,12 -28,5l23 -33zm-1197 19l-21 35 3 -36 37 -16 38 -15 37 -15 38 -14 38 -14 38 -13 38 -12 38 -11 38 -11 38 -10 39 -9 38 -8 39 -7 38 -6 38 -5 39 -3 38 -2 39 -1 38 0 38 2 39 3 38 5 38 6 38 8 38 10 38 11 38 14 37 15 38 17 37 19 37 21 37 23 -23 33 -35 -22 -35 -20 -36 -18 -36 -16 -36 -15 -36 -12 -36 -11 -36 -10 -36 -7 -37 -6 -37 -5 -36 -3 -37 -2 -37 0 -37 1 -37 2 -37 3 -38 5 -37 6 -37 7 -37 7 -38 9 -37 10 -38 10 -37 12 -37 12 -38 12 -37 14 -37 14 -37 15 -38 15 -37 15 3 -36zm-3 36c-10,4 -22,0 -26,-11 -4,-10 0,-22 11,-26l15 37zm417 588l-41 3 -3 -40 -5 -38 -6 -36 -7 -34 -8 -32 -9 -30 -10 -29 -10 -27 -11 -25 -12 -24 -13 -22 -13 -21 -13 -20 -14 -18 -15 -18 -14 -16 -15 -15 -15 -14 -15 -14 -16 -12 -15 -12 -15 -11 -16 -10 -15 -10 -15 -9 -14 -9 -15 -8 -14 -8 -13 -8 -13 -8 -13 -7 -12 -7 21 -35 12 7 12 8 13 7 13 8 15 8 14 8 15 9 16 10 16 10 16 11 16 12 16 12 17 14 16 14 16 15 16 16 16 18 15 19 15 20 15 21 14 22 13 24 13 26 12 27 11 29 11 30 9 32 8 33 8 36 6 37 5 40 4 41zm0 0c1,11 -8,21 -19,21 -11,1 -21,-7 -22,-18l41 -3z"/>
   </g>
   <g>
    <path class="fil3" d="M4301 3288c0,0 256,-224 589,-290 332,-66 686,121 686,121 0,0 158,5 218,87 60,82 88,143 11,208 -76,66 -430,198 -828,209 -398,11 -616,-129 -616,-129l-120 8 60 -214z"/>
    <path id="1" class="fil9" d="M4886 2978l8 40 0 0 -31 6 -30 8 -29 8 -29 9 -28 9 -28 10 -27 11 -27 11 -25 11 -25 12 -25 12 -23 12 -23 12 -22 12 -21 12 -20 12 -19 12 -18 12 -17 11 -16 11 -15 10 -13 10 -13 9 -11 8 -11 8 -8 7 -8 6 -6 5 -5 4 -4 3 -2 2 -1 1 -26 -31 1 0 2 -2 4 -4 5 -4 7 -5 7 -7 10 -7 10 -8 12 -8 13 -10 14 -10 15 -11 17 -11 17 -11 19 -12 19 -12 21 -13 21 -12 23 -12 23 -13 24 -12 25 -13 26 -12 27 -11 27 -12 28 -11 29 -10 29 -10 30 -9 30 -8 31 -8 32 -7 0 0zm0 0c11,-2 21,5 24,16 2,11 -5,22 -16,24l-8 -40zm691 121l-1 40 -9 -2 -1 -1 -3 -1 -5 -3 -6 -3 -9 -4 -10 -5 -12 -5 -13 -6 -15 -6 -16 -7 -18 -7 -19 -7 -20 -7 -22 -7 -22 -8 -24 -7 -24 -7 -26 -7 -26 -6 -27 -6 -28 -5 -28 -5 -29 -4 -29 -4 -29 -2 -30 -2 -30 -1 -31 1 -30 1 -31 3 -30 4 -30 5 -8 -40 32 -5 32 -4 32 -3 32 -2 32 0 31 1 32 1 30 3 31 4 29 4 30 5 28 6 28 6 27 6 26 7 25 7 25 8 23 7 22 8 21 7 19 8 19 7 16 7 16 6 14 6 12 6 10 4 9 5 7 3 5 3 4 1 1 1 -9 -2zm9 2c10,5 13,17 8,27 -5,10 -17,14 -27,9l19 -36zm225 93l-33 24 0 0 -5 -6 -5 -6 -6 -6 -7 -5 -7 -5 -7 -5 -7 -5 -8 -4 -8 -4 -9 -4 -8 -3 -9 -4 -8 -2 -9 -3 -8 -3 -9 -2 -8 -2 -8 -1 -8 -2 -8 -1 -7 -2 -7 -1 -6 0 -6 -1 -6 -1 -4 0 -5 -1 -3 0 -3 0 -2 0 -1 0 0 0 1 -40 1 0 1 0 3 0 3 0 4 0 4 1 6 0 5 1 7 1 7 0 7 2 8 1 8 1 9 2 9 2 9 2 9 3 10 2 9 3 10 3 10 4 9 4 10 4 9 5 10 5 9 6 9 6 8 6 9 7 8 8 7 8 7 8 0 0zm0 0c6,9 4,22 -5,29 -9,6 -21,4 -28,-5l33 -24zm7 236l-26 -31 0 0 6 -5 6 -6 5 -5 4 -6 4 -5 4 -5 2 -5 3 -4 2 -5 1 -5 1 -5 1 -4 1 -5 0 -5 0 -5 -1 -5 -1 -5 -1 -5 -2 -5 -2 -6 -2 -6 -2 -6 -3 -6 -4 -6 -3 -7 -4 -6 -4 -7 -5 -7 -4 -7 -5 -7 -5 -7 -6 -8 33 -24 5 8 6 8 5 8 5 7 5 8 5 7 4 7 4 8 4 7 3 7 3 8 3 7 3 7 2 8 2 7 1 8 1 7 0 8 0 7 -1 8 -1 8 -2 7 -2 8 -3 7 -4 7 -4 7 -5 8 -5 7 -6 6 -6 7 -7 7 -8 7 0 0zm0 0c-8,7 -21,6 -28,-2 -7,-9 -6,-22 2,-29l26 31zm-841 213l-1 -41 0 0 37 -1 37 -2 36 -3 36 -3 35 -4 35 -4 34 -5 34 -5 33 -6 33 -6 32 -7 31 -6 31 -7 29 -8 29 -7 28 -8 27 -8 26 -8 25 -8 24 -9 23 -8 21 -8 21 -8 19 -8 17 -8 17 -8 15 -7 13 -8 12 -7 11 -6 8 -6 7 -6 26 31 -9 7 -10 7 -12 8 -13 7 -15 8 -16 8 -17 8 -18 9 -20 8 -21 8 -22 9 -24 8 -24 9 -26 8 -26 8 -28 9 -28 7 -30 8 -30 8 -31 7 -32 7 -32 7 -33 6 -34 6 -35 5 -35 5 -35 4 -36 4 -37 4 -37 2 -37 2 -38 2 0 0zm0 0c-11,0 -20,-9 -20,-20 -1,-11 8,-20 19,-21l1 41zm-615 -129l-3 -41 13 4 0 0 2 1 2 2 5 2 5 3 7 4 8 4 9 4 10 5 12 5 12 6 14 6 15 6 17 6 17 6 19 6 20 6 20 6 23 6 23 6 24 6 26 5 26 5 28 4 29 4 29 4 31 3 33 2 33 2 34 1 35 0 36 -1 1 41 -37 0 -36 0 -35 -1 -34 -2 -33 -2 -32 -3 -31 -4 -29 -4 -29 -5 -27 -5 -26 -5 -26 -6 -24 -6 -22 -6 -22 -6 -21 -7 -19 -6 -18 -6 -17 -7 -16 -6 -14 -6 -14 -6 -12 -5 -11 -6 -10 -4 -8 -5 -7 -4 -6 -3 -5 -3 -3 -2 -2 -1 -1 0 12 3zm-12 -3c-10,-6 -12,-19 -6,-28 6,-10 18,-12 28,-6l-22 34zm-110 -29l119 -9 3 41 -119 8 -21 -25 18 -15zm3 40c-11,1 -21,-7 -22,-18 -1,-12 8,-21 19,-22l3 40zm78 -228l-60 214 -39 -11 60 -214 6 -10 33 21zm-39 -11c3,-11 14,-17 25,-14 10,3 17,14 14,25l-39 -11z"/>
   </g>
   <g>
    <path class="fil3" d="M2553 3360c0,0 312,-302 735,-389 422,-88 967,87 1007,202 41,115 -46,302 -46,302 0,0 -348,191 -816,197 -469,5 -880,-312 -880,-312z"/>
    <path id="1" class="fil9" d="M3284 2951l8 39 0 0 -39 9 -38 10 -37 11 -36 12 -36 12 -35 14 -34 14 -34 15 -32 15 -32 16 -30 16 -29 16 -29 16 -27 17 -26 16 -25 16 -24 16 -22 15 -21 15 -20 15 -18 14 -17 13 -16 12 -14 12 -12 10 -11 10 -10 8 -7 7 -6 5 -5 4 -2 3 -1 0 -28 -29 1 -1 3 -2 4 -5 7 -5 8 -8 9 -8 12 -10 13 -10 14 -12 16 -13 17 -13 19 -14 20 -15 22 -16 23 -16 24 -16 25 -16 27 -17 28 -17 29 -16 30 -17 31 -16 32 -16 33 -16 35 -15 35 -15 36 -13 37 -13 37 -13 39 -11 39 -10 40 -9 0 0zm1030 216l-38 13 0 0 -3 -7 -7 -9 -9 -10 -12 -10 -15 -11 -17 -11 -20 -12 -22 -11 -24 -11 -26 -12 -28 -11 -30 -10 -31 -11 -33 -10 -34 -9 -35 -9 -36 -9 -38 -8 -38 -7 -39 -6 -40 -6 -40 -4 -41 -4 -41 -3 -41 -1 -42 -1 -41 1 -41 2 -41 3 -40 4 -40 6 -39 7 -8 -39 41 -8 41 -6 42 -4 42 -4 42 -1 42 -1 43 0 42 2 42 3 42 4 41 4 41 6 40 7 39 7 38 8 38 8 36 10 35 10 33 10 33 11 30 11 29 11 28 12 25 12 23 12 22 12 19 13 17 12 15 13 12 13 10 14 7 15 0 0zm-55 325l-20 -35 -8 9 0 0 0 -2 1 -2 2 -3 2 -5 2 -5 2 -6 3 -6 3 -8 3 -8 3 -9 3 -9 3 -9 3 -11 4 -10 3 -11 3 -11 2 -12 3 -12 2 -11 3 -12 1 -12 2 -12 1 -12 0 -12 1 -12 -1 -11 0 -12 -2 -11 -1 -10 -3 -10 -3 -10 38 -13 4 12 3 13 2 13 2 13 1 13 0 13 0 13 -1 14 -1 13 -2 13 -2 13 -2 13 -2 13 -3 12 -3 13 -3 12 -4 11 -3 11 -3 11 -4 10 -3 10 -3 9 -4 8 -2 8 -3 7 -3 6 -2 6 -2 4 -2 4 -1 3 -1 2 0 0 -8 9zm8 -9l-3 6 -5 3 8 -9zm-834 209l-1 -40 0 0 44 -1 42 -2 41 -3 41 -4 40 -5 39 -5 38 -6 37 -7 36 -7 35 -8 34 -8 33 -8 31 -9 30 -9 29 -9 28 -9 26 -9 25 -9 24 -9 22 -8 20 -8 19 -8 17 -8 16 -7 14 -6 12 -6 10 -5 9 -4 7 -3 4 -3 3 -1 1 -1 20 35 -2 1 -3 2 -5 2 -7 4 -9 4 -11 6 -12 6 -15 6 -16 7 -17 8 -20 8 -20 8 -23 9 -24 9 -25 9 -27 9 -28 10 -30 9 -31 9 -32 9 -33 8 -35 8 -35 8 -37 8 -38 6 -39 7 -40 5 -41 5 -41 4 -43 3 -43 2 -44 1 0 0zm-894 -347l28 29 -2 -30 1 1 4 2 5 4 8 6 10 7 12 8 14 10 16 10 18 12 20 12 21 13 24 13 24 14 27 15 28 14 29 15 30 14 32 15 33 14 35 14 35 13 36 13 38 12 38 11 39 10 40 9 40 8 41 7 42 5 42 4 43 2 42 1 1 40 -45 0 -44 -3 -44 -3 -43 -6 -42 -7 -42 -8 -41 -10 -40 -10 -39 -12 -39 -12 -37 -13 -36 -14 -35 -14 -34 -14 -33 -15 -31 -15 -30 -15 -28 -15 -27 -14 -25 -15 -24 -13 -22 -14 -20 -12 -19 -12 -16 -11 -14 -9 -13 -9 -10 -7 -8 -6 -6 -5 -4 -2 -1 -1 -2 -31zm2 31l-19 -15 17 -16 2 31z"/>
   </g>
   <path class="fil9" d="M3715 3045c-214,-119 -506,-85 -624,131 -118,217 -28,473 208,486 236,13 478,-33 520,-210 41,-177 14,-341 -104,-407z"/>
   <path class="fil3" d="M3594 3308c0,54 -53,98 -118,98 -66,0 -118,-44 -118,-98 0,-55 52,-99 118,-99 65,0 118,44 118,99z"/>
   <path class="fil9" d="M5292 3034c-190,-85 -478,-83 -573,61 -96,144 -102,384 -41,473 61,89 164,110 314,117 150,6 334,-14 388,-185 55,-172 34,-412 -88,-466z"/>
   <path class="fil3" d="M5188 3292c0,54 -50,98 -111,98 -62,0 -111,-44 -111,-98 0,-54 49,-98 111,-98 61,0 111,44 111,98z"/>
   <g>
    <path class="fil10" d="M4305 3261c2,-31 -1,-61 -10,-88 -40,-115 -589,-427 -1011,-340 -330,69 -588,404 -688,488 532,-239 979,-359 1709,-60z"/>
    <path id="1" class="fil9" d="M4276 3180l38 -13 0 0 1 3 1 2 1 3 1 3 0 3 1 3 1 3 1 3 0 2 1 3 0 3 1 3 0 3 1 3 0 3 0 3 1 3 0 3 0 3 0 3 1 3 0 3 0 3 0 3 0 3 0 3 0 3 0 3 0 3 0 3 0 4 0 3 -41 -2 0 -3 0 -3 1 -3 0 -2 0 -3 0 -3 0 -2 0 -3 0 -2 -1 -3 0 -3 0 -2 0 -3 0 -2 0 -3 -1 -2 0 -3 0 -2 -1 -3 0 -2 0 -3 -1 -2 0 -3 -1 -2 0 -2 -1 -3 -1 -2 0 -2 -1 -2 0 -3 -1 -2 -1 -2 0 0zm-988 -327l-9 -39 0 0 42 -8 41 -5 42 -2 43 -1 42 1 43 3 43 5 42 6 43 8 42 10 41 10 41 12 41 13 39 13 39 15 37 15 37 16 35 16 34 17 32 16 31 18 29 17 27 17 26 17 23 17 22 16 19 16 16 16 15 15 12 15 9 14 7 15 -38 13 -4 -8 -7 -10 -9 -12 -13 -13 -15 -15 -18 -14 -20 -16 -22 -16 -24 -16 -27 -17 -28 -16 -30 -17 -31 -17 -33 -16 -35 -16 -35 -15 -37 -15 -37 -14 -39 -13 -39 -13 -40 -11 -40 -10 -41 -9 -41 -8 -41 -6 -42 -5 -41 -2 -40 -2 -41 1 -40 3 -40 4 -38 7 0 0zm-700 450l16 37 -21 -34 9 -8 11 -10 11 -11 12 -12 14 -14 14 -14 15 -15 16 -17 17 -17 17 -17 18 -19 20 -18 19 -19 21 -20 21 -19 22 -20 23 -19 24 -19 24 -20 24 -18 26 -19 26 -18 27 -17 27 -17 28 -15 28 -15 29 -14 30 -13 30 -12 31 -10 31 -9 31 -7 9 39 -30 7 -29 9 -29 9 -29 11 -28 12 -28 14 -27 14 -27 15 -26 16 -26 17 -25 17 -25 18 -24 18 -23 19 -23 19 -22 19 -22 19 -21 19 -20 19 -19 19 -19 18 -18 18 -18 18 -16 16 -16 17 -15 15 -14 15 -14 13 -13 13 -11 11 -12 11 -10 9 -21 -34zm1697 -43l41 2 -28 17 -67 -26 -66 -25 -64 -21 -63 -20 -61 -17 -60 -16 -58 -13 -58 -11 -56 -9 -55 -7 -54 -5 -53 -3 -53 -2 -51 0 -51 2 -50 3 -50 5 -49 7 -48 8 -49 9 -48 11 -48 12 -47 13 -48 14 -48 16 -47 16 -48 18 -48 19 -48 19 -49 21 -49 21 -50 22 -16 -37 50 -22 49 -22 49 -20 49 -20 49 -19 48 -18 48 -17 49 -15 48 -15 49 -13 49 -13 49 -10 50 -10 49 -8 51 -7 51 -5 51 -3 52 -2 53 0 54 1 54 4 56 5 56 7 57 10 59 11 60 13 61 16 62 17 63 20 65 22 67 25 68 27 -28 18zm41 2l-2 28 -26 -11 28 -17z"/>
   </g>
   <g>
    <path class="fil10" d="M5821 3279c-10,-25 -6,-44 -27,-73 -60,-82 -194,-195 -194,-195 0,0 -178,-173 -678,-138 -338,24 -621,415 -621,415l-11 42c705,-444 1020,-213 1531,-51z"/>
    <path id="1" class="fil9" d="M5778 3218l33 -24 0 0 2 4 2 3 2 3 2 3 1 3 2 3 1 3 2 2 1 3 1 3 1 3 1 3 0 2 1 3 1 2 0 3 1 2 0 2 1 3 0 2 1 2 0 2 1 2 0 2 0 2 1 2 0 2 1 1 0 2 1 2 1 2 0 1 -37 16 -1 -3 -1 -3 -1 -3 -1 -2 -1 -3 0 -2 -1 -3 0 -2 -1 -3 0 -2 -1 -2 0 -2 -1 -2 0 -2 -1 -2 0 -2 -1 -2 0 -2 0 -2 -1 -2 -1 -1 0 -2 -1 -2 -1 -2 0 -2 -1 -1 -1 -2 -1 -2 -2 -2 -1 -2 -1 -3 -2 -2 0 0zm-192 -192l28 -29 -1 -1 0 0 2 1 1 2 3 2 3 3 4 3 4 4 5 4 6 5 5 5 7 5 6 6 7 7 7 6 8 7 8 7 7 8 8 7 9 8 8 8 8 8 8 9 8 8 8 8 8 9 8 8 8 9 7 8 7 9 7 8 7 8 6 8 -33 24 -5 -7 -6 -8 -7 -8 -6 -8 -7 -8 -8 -8 -7 -8 -8 -8 -8 -8 -8 -8 -8 -8 -8 -8 -8 -8 -8 -8 -7 -7 -8 -7 -8 -7 -7 -7 -7 -7 -7 -6 -6 -6 -6 -5 -6 -5 -5 -5 -5 -4 -4 -4 -4 -3 -3 -2 -3 -3 -2 -1 -1 -1 0 0 -1 -1zm1 1l-1 -1 0 0 1 1zm-663 -134l-3 -40 0 0 46 -3 45 -1 42 -1 41 1 40 1 37 3 36 3 34 4 32 4 31 6 29 5 27 7 26 6 24 7 23 8 22 7 19 7 19 8 17 8 15 7 15 7 12 8 12 6 10 7 9 6 8 5 7 5 5 4 4 4 3 2 2 2 1 1 -28 29 0 0 -1 -2 -3 -2 -3 -2 -5 -4 -6 -4 -6 -5 -9 -5 -9 -6 -10 -6 -12 -7 -14 -7 -14 -7 -16 -7 -18 -7 -18 -7 -21 -7 -21 -7 -24 -7 -24 -6 -27 -6 -28 -6 -29 -5 -32 -4 -33 -4 -34 -3 -37 -3 -38 -1 -40 -1 -41 1 -44 1 -45 3 0 0zm-603 401l-39 -11 3 -6 1 -2 2 -3 4 -5 6 -8 7 -9 9 -11 10 -12 11 -13 13 -15 14 -16 15 -16 17 -18 18 -18 18 -18 20 -19 21 -19 22 -20 23 -19 24 -19 25 -18 26 -19 26 -17 28 -17 28 -16 29 -15 29 -13 30 -13 31 -10 32 -10 31 -7 33 -6 33 -3 3 40 -31 3 -30 5 -29 7 -29 9 -29 10 -29 12 -28 13 -27 14 -27 15 -26 16 -25 17 -25 17 -24 18 -23 19 -22 18 -22 19 -20 18 -19 19 -19 18 -17 17 -16 17 -15 16 -14 16 -12 14 -11 13 -10 12 -8 10 -7 9 -6 7 -3 5 -3 3 0 1 3 -6zm-39 -11l1 -3 2 -3 -3 6zm-12 41l12 -41 39 11 -12 41 -9 12 -30 -23zm30 23l-44 28 14 -51 30 23zm1502 -60l37 -16 -25 27 -47 -15 -47 -16 -45 -16 -45 -15 -43 -16 -44 -15 -42 -15 -42 -15 -42 -13 -41 -13 -42 -12 -41 -10 -41 -10 -42 -8 -42 -7 -42 -5 -43 -3 -43 -1 -44 0 -45 3 -46 5 -47 8 -48 10 -50 12 -51 16 -53 18 -54 22 -57 25 -58 28 -60 32 -62 36 -65 39 -21 -34 65 -40 64 -36 61 -33 59 -29 58 -25 56 -22 54 -19 53 -16 52 -14 50 -10 49 -8 48 -5 46 -3 46 0 46 1 44 3 44 6 43 6 43 9 43 9 42 11 42 12 42 13 43 14 42 15 43 15 43 15 44 16 44 15 46 16 46 16 47 15 -25 27zm37 -16l16 40 -41 -13 25 -27z"/>
   </g>
   <g>
    <path class="fil11" d="M3205 4483c112,18 222,33 329,44 828,90 1508,-2 2041,-276 223,13 289,120 197,321 16,182 -30,293 -139,335 -932,161 -1716,204 -2352,129 -222,-27 -1049,-133 -952,-482 48,-173 174,-242 313,-241 181,1 331,134 563,170z"/>
    <path id="1" class="fil9" d="M3537 4507l-5 40 0 0 -10 -1 -10 -1 -10 -1 -10 -1 -10 -1 -11 -2 -10 -1 -10 -1 -10 -1 -11 -2 -10 -1 -10 -1 -10 -1 -11 -2 -10 -1 -10 -2 -11 -1 -10 -1 -10 -2 -11 -1 -10 -2 -11 -1 -10 -2 -10 -1 -11 -2 -10 -1 -11 -2 -10 -1 -11 -2 -10 -2 -11 -1 -11 -2 7 -40 10 2 11 2 10 1 11 2 10 1 11 2 10 1 10 2 11 1 10 2 10 1 11 2 10 1 10 2 11 1 10 1 10 2 11 1 10 2 10 1 10 1 10 1 11 2 10 1 10 1 10 1 10 2 10 1 10 1 10 1 11 1 10 1 0 0zm2039 -276l-2 40 10 -2 -51 25 -51 25 -53 23 -53 22 -55 21 -55 20 -56 19 -56 18 -58 16 -59 16 -59 15 -60 13 -61 12 -62 12 -63 10 -64 9 -65 9 -65 7 -66 6 -67 5 -68 3 -69 3 -70 2 -70 1 -72 -1 -72 -1 -73 -3 -74 -4 -75 -4 -76 -6 -76 -7 -78 -8 5 -40 76 8 77 7 75 6 74 4 73 4 73 2 72 2 71 0 69 0 70 -2 68 -3 67 -4 66 -5 66 -6 65 -7 64 -8 63 -9 62 -10 61 -11 60 -12 60 -14 58 -14 58 -16 57 -16 56 -18 55 -18 54 -20 54 -21 52 -21 52 -23 51 -24 50 -25 10 -2zm-10 2c9,-5 22,-1 27,9 5,10 1,22 -9,27l-18 -36zm226 337l-40 4 1 -11 8 -18 7 -17 6 -17 5 -16 5 -15 3 -15 2 -14 2 -14 1 -13 0 -12 -1 -12 -2 -10 -3 -11 -3 -10 -4 -9 -5 -8 -5 -9 -7 -7 -7 -8 -8 -7 -9 -6 -10 -7 -11 -6 -12 -5 -13 -5 -14 -4 -15 -4 -16 -4 -17 -3 -18 -2 -19 -2 -19 -2 2 -40 21 1 20 3 20 2 18 4 18 3 16 5 16 5 15 6 15 6 13 7 12 8 12 9 11 9 9 10 9 10 8 12 6 11 6 13 4 13 3 14 3 14 1 14 0 15 -1 16 -2 15 -2 17 -4 16 -5 18 -6 17 -6 18 -8 19 -8 19 2 -10zm-2 10c-5,10 -17,15 -27,10 -10,-5 -14,-17 -10,-27l37 17zm-153 347l-7 -40 -4 1 9 -4 9 -4 8 -4 8 -5 8 -5 7 -6 7 -6 7 -6 6 -7 6 -6 6 -8 6 -8 5 -8 4 -8 5 -9 4 -10 4 -10 3 -10 3 -11 3 -11 3 -12 2 -12 2 -12 1 -13 1 -13 1 -14 1 -15 0 -14 0 -15 -1 -16 -1 -16 -1 -16 40 -4 1 17 1 17 1 16 0 17 0 15 0 16 -1 14 -1 15 -2 14 -2 14 -3 13 -2 13 -4 13 -3 12 -4 12 -5 12 -5 11 -5 10 -6 11 -6 10 -6 9 -7 9 -8 9 -8 8 -8 8 -8 7 -10 7 -9 6 -10 6 -10 5 -11 5 -11 5 -3 1zm3 -1c-10,3 -22,-2 -26,-12 -4,-11 2,-22 12,-26l14 38zm-2362 130l5 -40 0 0 60 6 61 6 61 6 63 4 63 4 64 3 65 3 66 2 67 1 68 1 68 -1 70 -1 70 -1 71 -2 72 -3 73 -4 74 -4 74 -5 76 -6 76 -7 78 -7 78 -8 79 -8 80 -9 80 -10 82 -11 82 -11 84 -12 84 -13 85 -13 86 -14 87 -15 7 40 -87 14 -87 14 -85 14 -84 13 -84 12 -83 11 -82 11 -81 10 -80 9 -79 8 -78 8 -78 8 -77 6 -76 6 -75 5 -74 4 -73 4 -72 3 -72 2 -71 2 -69 1 -69 0 -68 -1 -68 -1 -66 -2 -66 -2 -64 -4 -64 -4 -63 -4 -62 -6 -61 -6 -61 -6 0 0zm-968 -507l39 10 0 0 -6 29 -1 28 3 26 7 25 11 24 15 23 19 22 22 22 26 20 28 20 32 19 33 18 36 16 38 16 39 15 41 14 42 14 42 12 43 11 42 11 43 10 42 9 42 8 41 7 39 7 38 6 35 6 34 5 32 4 28 4 26 3 22 3 -5 40 -22 -3 -26 -3 -29 -4 -31 -4 -34 -5 -37 -6 -38 -6 -40 -7 -41 -8 -42 -8 -42 -9 -44 -10 -43 -11 -44 -11 -43 -13 -43 -13 -42 -15 -40 -15 -39 -17 -38 -17 -35 -19 -34 -20 -30 -22 -29 -22 -25 -24 -21 -26 -18 -28 -14 -29 -9 -31 -4 -33 2 -33 7 -35 0 0zm0 0c3,-11 14,-17 25,-14 10,3 17,14 14,24l-39 -10zm333 -256l-1 40 0 0 -12 0 -12 1 -13 1 -12 1 -11 2 -12 2 -12 3 -11 3 -11 3 -11 4 -11 4 -11 5 -10 5 -10 5 -10 6 -10 7 -9 7 -9 7 -9 8 -9 9 -8 8 -8 10 -8 10 -7 10 -7 11 -7 12 -7 12 -6 13 -6 14 -5 14 -5 14 -4 15 -39 -10 5 -17 5 -16 6 -16 6 -14 7 -15 7 -13 8 -14 8 -12 9 -12 8 -12 10 -10 9 -11 10 -9 11 -10 10 -8 11 -8 11 -8 12 -7 11 -6 12 -6 12 -5 13 -5 12 -4 13 -4 13 -4 13 -3 13 -2 13 -2 14 -1 13 -1 14 -1 14 0 0 0zm565 170l-7 40 0 0 -22 -4 -21 -4 -21 -5 -21 -5 -20 -6 -20 -6 -19 -6 -19 -7 -19 -6 -18 -7 -18 -8 -18 -7 -18 -7 -17 -7 -17 -7 -17 -8 -16 -7 -17 -6 -16 -7 -16 -6 -16 -7 -16 -5 -15 -6 -16 -5 -16 -4 -15 -4 -16 -4 -16 -3 -15 -2 -16 -2 -16 -1 -16 -1 1 -40 17 0 18 2 17 2 17 2 17 4 17 3 17 5 17 5 16 5 17 6 16 6 17 6 16 7 17 6 17 7 16 7 17 7 17 8 17 7 17 7 18 7 17 7 18 7 18 6 19 7 18 6 19 5 20 6 19 5 20 5 21 4 21 3 0 0z"/>
   </g>
   <g>
    <path class="fil9" d="M2637 4586c-10,-5 -14,-17 -9,-27 5,-10 17,-14 27,-9l-18 36zm3128 -33l13 38 -67 21 -73 20 -79 19 -85 18 -90 17 -94 15 -99 15 -103 13 -106 12 -109 11 -111 9 -114 8 -115 6 -116 6 -117 3 -117 3 -117 0 -116 -1 -116 -2 -113 -5 -112 -5 -109 -8 -107 -9 -103 -12 -99 -13 -95 -14 -91 -17 -85 -19 -80 -21 -74 -23 -68 -25 -61 -27 18 -36 58 26 66 24 72 22 78 21 84 18 90 17 94 15 98 12 102 11 106 10 108 7 112 6 113 4 114 3 116 1 116 -1 117 -2 116 -4 116 -5 115 -6 113 -8 111 -10 108 -10 105 -12 102 -13 99 -15 93 -15 89 -17 84 -17 78 -19 72 -20 65 -20zm0 0c11,-4 22,2 26,12 3,11 -2,22 -13,26l-13 -38z"/>
   </g>
   <g>
    <path class="fil10" d="M4279 3366l-38 136 1 1c0,0 352,262 749,251 398,-11 738,-274 814,-340 49,-41 49,-77 32,-122 -492,245 -1055,281 -1558,74z"/>
    <path id="1" class="fil9" d="M4222 3497l38 -136 39 11 -38 136 -39 1 0 -12zm0 12l-2 -6 2 -6 0 12zm1 1l-1 -1 38 -14 1 2 -31 23 -7 -10zm7 10l-5 -4 -2 -6 7 10zm761 214l1 40 0 0 -38 1 -38 -2 -37 -2 -37 -4 -36 -6 -35 -6 -35 -7 -35 -9 -33 -9 -33 -10 -32 -10 -31 -11 -30 -12 -29 -12 -27 -12 -27 -12 -26 -12 -24 -12 -23 -12 -22 -12 -20 -11 -19 -11 -17 -10 -16 -10 -14 -9 -12 -8 -11 -7 -9 -6 -7 -5 -5 -3 -3 -2 -1 -1 24 -33 1 1 2 2 5 3 7 5 9 6 10 7 12 7 14 9 15 9 17 10 18 11 20 11 21 11 22 12 24 12 25 12 26 12 27 11 28 12 29 11 30 11 31 10 32 9 33 9 33 8 33 7 35 7 35 5 35 4 36 2 36 1 36 0 0 0zm801 -335l26 31 0 0 -8 7 -9 8 -11 9 -13 9 -14 11 -15 12 -17 12 -18 12 -19 13 -20 14 -22 14 -22 14 -24 15 -25 14 -26 14 -27 15 -28 14 -28 14 -30 14 -30 13 -32 13 -32 12 -33 11 -33 11 -35 10 -34 9 -36 8 -36 7 -37 6 -37 4 -37 4 -38 1 -1 -40 36 -2 36 -3 36 -4 35 -6 35 -6 34 -8 34 -9 33 -9 32 -11 32 -11 31 -12 31 -12 30 -13 28 -13 28 -14 28 -14 26 -14 25 -14 24 -14 24 -14 22 -14 21 -14 20 -13 18 -13 18 -12 16 -12 15 -11 13 -10 12 -10 11 -9 9 -7 8 -7 0 0zm54 -89l-18 -36 28 11 2 4 1 5 2 4 1 5 1 4 1 5 1 4 1 5 1 5 0 4 0 5 1 5 -1 4 0 5 -1 5 0 4 -1 5 -2 5 -1 4 -2 5 -2 5 -3 4 -2 5 -3 4 -3 5 -3 4 -4 4 -4 5 -4 4 -4 4 -5 4 -5 5 -26 -31 4 -3 4 -4 3 -3 3 -4 3 -3 3 -3 2 -3 2 -3 2 -3 2 -3 1 -3 2 -3 1 -3 1 -2 0 -3 1 -3 0 -2 1 -3 0 -3 0 -3 0 -3 0 -3 0 -3 -1 -3 0 -3 -1 -3 -1 -3 -1 -4 -1 -3 -1 -4 -1 -4 -2 -4 28 11zm-18 -36l20 -10 8 21 -28 -11zm-1529 98l-39 -11 27 -13 47 18 47 17 47 16 48 14 48 13 48 11 49 11 48 8 49 8 49 6 49 5 49 3 49 2 49 1 49 -1 49 -2 50 -3 49 -4 49 -6 49 -7 48 -9 49 -9 49 -11 48 -12 48 -14 48 -15 47 -16 47 -17 47 -18 47 -20 46 -21 46 -22 18 36 -47 23 -47 21 -47 20 -48 19 -48 18 -49 16 -49 15 -49 14 -49 12 -50 11 -49 10 -50 9 -50 7 -50 6 -50 4 -50 4 -51 2 -50 0 -50 -1 -50 -2 -51 -3 -50 -5 -50 -6 -50 -8 -49 -9 -50 -10 -49 -12 -49 -13 -49 -15 -48 -16 -48 -17 -48 -19 27 -13zm-39 -11l6 -22 21 9 -27 13z"/>
   </g>
   <g>
    <path class="fil10" d="M2563 3351c-7,5 -10,9 -10,9 0,0 402,459 871,454 469,-6 825,-339 825,-339 0,0 26,-56 42,-125 -920,322 -1168,145 -1728,1z"/>
    <path id="1" class="fil9" d="M2568 3346l-30 27 1 -28 0 0 0 0 0 0 0 0 0 0 0 0 0 0 1 -1 0 0 0 0 0 0 0 0 1 -1 0 0 0 0 1 0 0 -1 0 0 1 0 0 -1 0 0 1 0 0 -1 1 0 0 -1 1 0 0 -1 1 0 0 -1 1 0 0 -1 1 0 27 30 0 0 -1 1 -1 0 0 1 -1 0 0 1 0 0 -1 0 0 1 -1 0 0 1 -1 0 0 0 0 1 -1 0 0 0 0 0 0 1 -1 0 0 0 0 0 0 0 0 1 -1 0 0 0 0 0 0 0 0 0 0 0 0 0 0 0 0 0 1 -28zm-30 27l-13 -15 14 -13 -1 28zm886 421l0 40 0 0 -45 -1 -44 -3 -44 -6 -43 -9 -43 -10 -42 -12 -41 -14 -40 -15 -39 -17 -38 -18 -37 -19 -36 -20 -35 -21 -33 -21 -32 -21 -31 -22 -30 -21 -28 -22 -26 -21 -25 -21 -23 -20 -22 -19 -20 -18 -18 -17 -16 -16 -14 -14 -12 -12 -11 -11 -8 -8 -5 -7 -4 -4 -1 -1 30 -27 1 2 3 3 6 6 8 9 10 10 11 12 14 14 16 15 18 16 19 18 21 19 23 19 24 21 26 20 28 21 28 21 30 21 32 21 32 21 34 20 35 19 36 19 37 17 38 16 38 15 39 14 40 11 41 10 41 8 42 5 42 4 43 1 0 0zm807 -328l36 17 -4 6 -2 2 -3 3 -5 4 -7 6 -9 8 -11 9 -13 11 -15 11 -16 12 -18 14 -20 14 -21 14 -23 15 -25 16 -26 16 -27 16 -29 16 -30 16 -31 15 -33 15 -34 15 -35 14 -36 14 -37 13 -39 11 -39 11 -40 9 -42 8 -42 7 -43 5 -43 3 -45 2 0 -40 42 -2 42 -3 42 -5 40 -6 40 -8 39 -9 38 -10 37 -12 36 -12 36 -13 34 -14 33 -14 31 -15 31 -15 29 -16 28 -15 27 -16 25 -15 24 -15 22 -15 21 -14 19 -14 18 -13 16 -12 14 -11 12 -10 11 -9 8 -7 7 -6 5 -5 3 -2 1 -1 -4 6zm36 17l-2 4 -2 2 4 -6zm31 -114l-13 -38 26 24 -2 7 -1 6 -2 6 -2 7 -2 6 -1 6 -2 6 -2 6 -2 6 -2 5 -2 5 -1 6 -2 5 -2 4 -2 5 -1 4 -2 5 -2 4 -1 4 -1 3 -2 3 -1 3 -1 3 -1 3 -1 2 -1 2 -1 2 -1 1 0 2 -1 0 0 1 0 0 -36 -17 0 0 0 0 0 -1 1 -1 0 -1 1 -2 1 -2 1 -2 1 -2 1 -3 1 -3 1 -3 2 -3 1 -4 1 -4 2 -4 2 -4 1 -4 2 -5 2 -5 1 -5 2 -5 2 -5 1 -5 2 -6 2 -6 2 -5 1 -6 2 -6 2 -6 1 -6 2 -7 26 24zm-13 -38l35 -12 -9 36 -26 -24zm-1709 35l-27 -30 19 -5 51 14 51 14 48 13 48 14 46 13 45 13 44 13 44 12 43 12 43 11 43 10 43 9 44 8 43 7 45 6 45 5 46 3 48 2 49 1 50 -2 52 -3 55 -4 56 -7 59 -9 61 -11 64 -13 67 -15 70 -18 73 -21 77 -23 80 -25 84 -29 13 38 -85 29 -80 26 -78 23 -74 21 -71 18 -67 16 -65 13 -63 11 -60 9 -57 7 -56 5 -53 3 -52 1 -50 0 -49 -2 -48 -4 -46 -5 -46 -6 -44 -7 -45 -9 -44 -9 -43 -10 -44 -11 -44 -12 -44 -12 -44 -13 -45 -13 -47 -13 -47 -14 -48 -14 -50 -13 -51 -14 18 -4zm-27 -30l8 -7 11 2 -19 5z"/>
   </g>
   <polygon class="fil0" points="6524,5906 6524,5906 6524,5906 "/>
   <path class="fil0" d="M6607 5699c0,0 0,-1 -1,-2 0,2 0,5 1,2z"/>
  </g>
 </g>
</svg>
