<svg xmlns="http://www.w3.org/2000/svg" xmlns:xlink="http://www.w3.org/1999/xlink" viewBox="0 0 2500 2500" style="enable-background:new 0 0 2500 2500;"><path style="fill-rule:evenodd;clip-rule:evenodd;fill:#1f3346;" d="M1634.754 2148.807c1.927 5.057.0.0-5.78-15.17l-26.192 2.763.003.001c-29.47 61.966-189.929 58.995-254.948 60.108-259.599 4.447-472.17-48.054-637.709-157.502C580.824 2055.622 354.002 2296.891 3e2 25e2h1618C1826.858 2320.131 1699.317 2185.588 1634.754 2148.807z"/><path d="M1921.838 2497.953c-52.422-103.453-111.68-182.186-152.16-230.017-47.648-56.301-96.657-101.775-131.49-122.059l-5.24-13.755c-.688-1.804-2.514-2.915-4.42-2.715l-26.191 2.764c-1.548.163-2.844 1.149-3.445 2.517-26.341 54.989-167.671 56.593-235.615 57.365-5.611.064-10.811.123-15.512.204-257.506 4.411-471.255-48.344-635.291-156.798-.851-.562-1.872-.795-2.887-.671-63.114 8.11-151.304 68.642-235.909 161.923-40.95 45.149-78.518 95.538-108.641 145.719-32.805 54.65-56.069 107.297-69.145 156.477-.096.361-.138.728-.138 1.093h8.572l1.925-6.625.01-.005c26.418-92.389 89.352-197.931 173.716-290.945 39.791-43.871 81.821-81.72 121.548-109.454 40.329-28.155 77.485-45.256 107.594-49.536 82.484 54.297 177.882 95.059 283.573 121.162 106.146 26.215 225.66 38.395 355.219 36.163 4.687-.08 9.869-.139 15.464-.202 74.146-.843 211.385-2.402 242.165-60.173l20.627-2.176 4.615 12.111c.028.073.057.148.086.227l.634 1.664.073-.028c.886 1.744 2.336 3.436 5.005 2.635 61.333 37.311 182.281 162.978 272.64 337.181l.032.001.434.897c.471.91.947 1.814 1.416 2.727L1912 2498l1.125 2h9.167C1922.313 2499.301 1922.164 2498.597 1921.838 2497.953z"/><path style="fill-rule:evenodd;clip-rule:evenodd;fill:#568f39;stroke:#000000;stroke-width:8.5039;stroke-linecap:round;stroke-linejoin:round;stroke-miterlimit:2.6131;" d="M867.603 1293.527c135.408-338.495 331.41-420.844 588.004-247.048 241.577-117.709 380.271-75.33 416.082 127.137 85.736 16.593 133.412 45.005 143.028 85.238 38.849 13.16 55.222 33.628 49.121 61.401 34.595 16.186 41.096 32.078 19.504 47.676 27.655 37.786 20.431 64.754-21.671 80.905 15.662 25.919-1.675 43.978-52.01 54.177-17.8 44.837-54.641 74.213-110.522 88.128 78.07 53.384 133.361 153.359 109.076 195.761-96.726 186.205-207.247 292.151-331.565 317.84-25.241 2.762-41.134 12.394-47.676 28.895-84.606 9.871-201.87 13.723-351.791 11.557-265.722-14.316-452.573-58.139-560.555-131.47C551.93 1890.923 644.393 1306.53 867.603 1293.527z"/><path style="fill-rule:evenodd;clip-rule:evenodd;fill:#568f39;stroke:#000000;stroke-width:8.5039;stroke-linecap:round;stroke-linejoin:round;stroke-miterlimit:2.6131;" d="M1602.782 2136.4l.003.001c-29.47 61.966-189.929 58.995-254.948 60.108-259.599 4.447-472.17-48.054-637.709-157.502-.339-9.494 1.828-17.921 6.501-25.282 107.982 73.33 294.833 117.153 560.555 131.47C1412.208 2147.146 1520.737 2144.214 1602.782 2136.4z"/><path style="fill-rule:evenodd;clip-rule:evenodd;fill:none;stroke:#000000;stroke-width:8.5039;stroke-linecap:round;stroke-linejoin:round;stroke-miterlimit:2.6131;" d="M867.603 1293.527c-6.666 40.876-12.204 79.643-16.615 116.301"/><path style="fill-rule:evenodd;clip-rule:evenodd;fill:none;stroke:#000000;stroke-width:8.5039;stroke-linecap:round;stroke-linejoin:round;stroke-miterlimit:2.6131;" d="M1525.676 1561.525c-51.268 27.946-114.836 54.192-190.704 78.737"/><path style="fill-rule:evenodd;clip-rule:evenodd;fill:none;stroke:#000000;stroke-width:8.5039;stroke-linecap:round;stroke-linejoin:round;stroke-miterlimit:2.6131;" d="M1661.48 1575.972c43.172 17.706 78.809 35.524 106.91 53.455"/><path style="fill-rule:evenodd;clip-rule:evenodd;fill:none;stroke:#000000;stroke-width:8.5039;stroke-linecap:round;stroke-linejoin:round;stroke-miterlimit:2.6131;" d="M1899.139 1591.141c-51.724 10.804-107.176 16.714-166.355 17.731"/><path style="fill-rule:evenodd;clip-rule:evenodd;fill:none;stroke:#000000;stroke-width:8.5039;stroke-linecap:round;stroke-linejoin:round;stroke-miterlimit:2.6131;" d="M1153.659 1482.787c60.118 38.148 137.411 57.893 231.879 59.234 39.01-.234 79.221.007 120.635.722 32.19-13.808 57.713-18.865 76.571-15.17 48.169-23.217 60.691-48.499 37.562-75.848"/><path style="fill-rule:evenodd;clip-rule:evenodd;fill:none;stroke:#000000;stroke-width:8.5039;stroke-linecap:round;stroke-linejoin:round;stroke-miterlimit:2.6131;" d="M1455.607 1046.479c34.191 41.927 51.047 84.546 50.566 127.858-162.616-97.202-306.126-95.756-430.529 4.334"/><path style="fill-rule:evenodd;clip-rule:evenodd;fill:none;stroke:#000000;stroke-width:8.5039;stroke-linecap:round;stroke-linejoin:round;stroke-miterlimit:2.6131;" d="M1871.688 1173.615c-13.481 2.256-24.317.329-32.506-5.78-3.124-4.977-8.661-7.145-16.614-6.501-15.036 5.566-26.834 5.807-35.396.723-9.792-4.853-23.998-7.501-42.619-7.946-88.686-4.572-168.146 2.17-238.38 20.226 20.481 29.685 50.58 58.098 90.295 85.239 17.034 9.995 18.72 25.887 5.057 47.676-140.781-70.757-280.197-57.274-418.249 40.452-23.248 12.323-56.235 17.861-98.964 16.615-20.681-3.351-31.758 4.112-33.229 22.393-.159 13.995 10.436 21.459 31.784 22.394 26.147.214 47.337 2.38 63.568 6.501"/><path style="fill-rule:evenodd;clip-rule:evenodd;fill:none;stroke:#000000;stroke-width:8.5039;stroke-linecap:round;stroke-linejoin:round;stroke-miterlimit:2.6131;" d="M1559.124 1231.308c-146.388-18.638-254.816-7.048-325.282 34.77-40.94 36.795-86.93 57.984-137.972 63.568"/><path style="fill-rule:evenodd;clip-rule:evenodd;fill:none;stroke:#000000;stroke-width:8.5039;stroke-linecap:round;stroke-linejoin:round;stroke-miterlimit:2.6131;" d="M1609.225 1290.928c119.034-61.942 254.197-72.633 405.492-32.075"/><path style="fill-rule:evenodd;clip-rule:evenodd;fill:none;stroke:#000000;stroke-width:8.5039;stroke-linecap:round;stroke-linejoin:round;stroke-miterlimit:2.6131;" d="M1618.139 1315.921c160.721-64.233 309.287-62.788 445.699 4.334"/><path style="fill:#568f39;" d="M1449 1046h12l113 38 254 50 38 32 10 15 131.5 69.5 6.5 15.5 46 47-4 22-342 132-96 73-85 4-75 15-247 30-136-49-73-91V1292l49-116 75-106 164-24z"/><path style="fill:#FFFFFF;stroke:#000000;stroke-width:8.5039;" d="M2080.5 1368.5c-129.034-4.408-227.865-92.764-380.906 42.685-34.6 19.167-44.79 19.018-44.79 19.018l-18.407 62.673 13.386 17.68c0 0 90.384 20.894 212.572 17.68s167.274-31.012 196.551-40.381c31.939-10.223 52.623-48.489 40.594-89.355C2096.786 1389.281 2090.107 1376.706 2080.5 1368.5z"
			/><path style="fill:#FFFFFF;stroke:#000000;stroke-width:8.5039;" d="M1571.839 1413.741c-63.878-30.668-133.079-66.447-202.28-81.781-58.742-10.577-112.413 12.888-159.279 46.91-39.469 36.518-60.946 72.222-60.946 72.222s82.878 112.484 218.452 110.876c135.569-1.602 271.954-77.129 271.954-77.129s22.119-48.123 15.153-81.946C1630.222 1419.167 1602.093 1426.654 1571.839 1413.741z"/><path d="M1454.163 1362.588c-54.464-30.758-128.676-22.003-158.639 33.848-29.966 55.865-7.054 121.863 52.888 125.257 59.927 3.384 121.616-8.465 132.195-54.163C1491.191 1421.832 1484.136 1379.514 1454.163 1362.588z"/><path style="fill:#FFFFFF;" d="M1415.383 1418.438c0 10.298-9.861 18.629-22.031 18.629-12.169.0-22.03-8.331-22.03-18.629.0-10.267 9.861-18.613 22.03-18.613C1405.522 1399.824 1415.383 1408.171 1415.383 1418.438z"/><path style="fill:#FFFFFF;" d="M1355.456 1444.673c0 7.951-8.287 14.396-18.512 14.396-10.215.0-18.506-6.444-18.506-14.396.0-7.942 8.291-14.381 18.506-14.381C1347.169 1430.293 1355.456 1436.731 1355.456 1444.673z"/><path style="fill:#FFFFFF;" d="M1358.98 1376.969c0 4.218-5.131 7.627-11.452 7.627-6.331.0-11.468-3.409-11.468-7.627.0-4.198 5.136-7.612 11.468-7.612C1353.849 1369.356 1358.98 1372.771 1358.98 1376.969z"/><path d="M1926.348 1348.886c-46.521-19.851-117.167-19.287-140.596 14.465-23.439 33.753-25.103 89.997-10.043 110.891 15.065 20.895 40.168 25.711 76.993 27.323 36.82 1.597 82.02-3.22 95.406-43.396C1961.494 1417.989 1956.472 1361.744 1926.348 1348.886z"/><ellipse style="fill:#FFFFFF;" cx="1873.622" cy="1398.707" rx="20.921" ry="17.68"/><path style="fill:#FFFFFF;" d="M1837.637 1423.614c0 7.547-7.865 13.667-17.575 13.667-9.7.0-17.571-6.12-17.571-13.667.0-7.542 7.87-13.656 17.571-13.656C1829.772 1409.958 1837.637 1416.072 1837.637 1423.614z"/><path style="fill:#FFFFFF;" d="M1840.985 1359.328c0 3.998-4.865 7.238-10.88 7.238-6.004.0-10.875-3.24-10.875-7.238.0-3.988 4.871-7.232 10.875-7.232C1836.119 1352.096 1840.985 1355.34 1840.985 1359.328z"/><path style="fill:none;stroke:#000000;stroke-width:8.5039;" d="M965 1301.292c0 0 111.786-138.005 186.31-138.005s409.882 163.562 420.529 127.783c10.646-35.779-26.616-71.558-26.616-71.558s-22.915-105.68-91.304-175.511"/><path style="fill:none;stroke:#000000;stroke-width:8.5039;" d="M1874.5 1174.5c0 0-84.412 14.344-148.29 50.123-63.878 35.779-60.71 110.877-155.71 35.877"/><path style="fill:none;stroke:#000000;stroke-width:8.5039;" d="M1575.5 1268.5c0 0 26.5 48.131 54.893 65.167 28.394 17.036 46.136 30.663 24.843 85.185"/><path style="fill:none;stroke:#000000;stroke-width:8.5039;" d="M1659.671 1354.961c0 0 74.478-136.813 361.829-93.461"/><path style="fill:none;stroke:#000000;stroke-width:8.5039;" d="M1664.994 1370.295c0 0 101.984-163.481 400.506-49.795"/><path style="fill:none;stroke:#000000;stroke-width:8.5039;" d="M1641.04 1339.627c0 0-130.417-38.335-236.88-71.558s-231.557-30.668-303.419 48.557"/><path style="fill:none;stroke:#000000;stroke-width:8.5039;" d="M1350.928 1273.18c0 0-109.125.0-162.356 43.446s-69.201 71.558-109.125 89.448c-39.924 17.89-74.524 23.001-47.908 46.002 26.616 23.001 117.795-.983 117.795-.983"/><path style="fill-rule:evenodd;clip-rule:evenodd;fill:#E03825;stroke:#000000;stroke-width:8.5039;stroke-linecap:round;stroke-linejoin:round;stroke-miterlimit:2.6131;" d="M1649.536 1900.573c1.554-10.639 2.773-25.171 3.66-43.599 207.5-137.438 330.729-167.957 369.69-91.557 1.911 38.544-20.051 74.875-65.885 108.996 77.584 80.285 76.974 137.449-1.831 171.488C1818.511 2078.432 1716.633 2029.988 1649.536 1900.573z"/><path style="fill-rule:evenodd;clip-rule:evenodd;stroke:#000000;stroke-width:8.5039;stroke-linecap:round;stroke-linejoin:round;stroke-miterlimit:2.6131;" d="M1968.22 1886.5c-7.556-7-2.519-2-11.22-12.087-27.511-66.372-129.998-57.652-307.464 26.159C1872.207 1984.574 2006.657 1982.127 1968.22 1886.5z"/><path style="fill-rule:evenodd;clip-rule:evenodd;fill:none;stroke:#000000;stroke-width:8.5039;stroke-linecap:round;stroke-linejoin:round;stroke-miterlimit:2.6131;" d="M1585.932 2016.475c66.411-86.751 80.443-173.464 42.095-260.138"/><path style="fill-rule:evenodd;clip-rule:evenodd;fill:none;stroke:#000000;stroke-width:8.5039;stroke-linecap:round;stroke-linejoin:round;stroke-miterlimit:2.6131;" d="M1940.695 1705.592c-36.274-22.979-79.057-15.322-128.349 22.971"/><path style="fill-rule:evenodd;clip-rule:evenodd;fill:#000001;stroke:#000001;stroke-width:2.8797;stroke-miterlimit:2.6131;" d="M1676.763 983.118c-384.829 32.963-663.819 74.06-836.97 123.29-390.217 78.86-93.878 270.49 365.698 245.38C1710.474 1324.194 2285.841 1010.632 1676.763 983.118z"/><path style="fill-rule:evenodd;clip-rule:evenodd;fill:#000001;stroke:#000001;stroke-width:2.8797;stroke-miterlimit:2.6131;" d="M1677.597 1028.319c-6.395-284.887-30.01-488.422-70.844-610.608-52.855-158.159-367.857-128.418-517.277-106.563-131.361 19.215-248.885 63.21-357.994 126.957-134.509 78.58-105.769 60.829-49.278 187.359 99.176 222.146 151.986 397.527 158.422 526.144C1193.578 1199.51 1472.568 1158.413 1677.597 1028.319z"/><path style="fill-rule:evenodd;clip-rule:evenodd;fill:#0086cd;stroke:#000001;stroke-width:2.8797;stroke-miterlimit:2.6131;" d="M1616.211 1065.327c-90.177 47.736-198.961 78.902-326.343 93.497-100.98 11.57-166.1 12.059-338.012 3.473-111.604-5.575-107.044-3.603-119.919-89.05-2.634-17.48-3.925-22.472-8.076-42.825 391.611 8.683 674.696-36.159 849.255-134.52 1.024 24.26 1.883 46.129 2.573 65.605C1678.247 1033.687 1689.781 1026.386 1616.211 1065.327z"/><path style="fill-rule:evenodd;clip-rule:evenodd;fill:#5E5F5F;stroke:#000001;stroke-width:2.8797;stroke-miterlimit:2.6131;" d="M663.651 487.84c-5.855 4.472-12.497 10.757-20.605 17.331 287.604 66.217 565.41 34.997 865.58-96.902C1195.67 518.339 924.507 543.273 663.651 487.84z"/></svg>