<svg xmlns="http://www.w3.org/2000/svg" xmlns:xlink="http://www.w3.org/1999/xlink" viewBox="0 0 2500 2500" style="enable-background:new 0 0 2500 2500;"><path style="fill-rule:evenodd;clip-rule:evenodd;fill:#1f3346;" d="M1634.754 2148.807c1.927 5.057.0.0-5.78-15.17l-26.192 2.763.003.001c-29.47 61.966-189.929 58.995-254.948 60.108-259.599 4.447-472.17-48.054-637.709-157.502C580.824 2055.622 354.002 2296.891 3e2 25e2h1618C1826.858 2320.131 1699.317 2185.588 1634.754 2148.807z"/><path d="M1921.838 2497.953c-52.422-103.453-111.68-182.186-152.16-230.017-47.648-56.301-96.657-101.775-131.49-122.059l-5.24-13.755c-.688-1.804-2.514-2.915-4.42-2.715l-26.191 2.764c-1.548.163-2.844 1.149-3.445 2.517-26.341 54.989-167.671 56.593-235.615 57.365-5.611.064-10.811.123-15.512.204-257.506 4.411-471.255-48.344-635.291-156.798-.851-.562-1.872-.795-2.887-.671-63.114 8.11-151.304 68.642-235.909 161.923-40.95 45.149-78.518 95.538-108.641 145.719-32.805 54.65-56.069 107.297-69.145 156.477-.096.361-.138.728-.138 1.093h8.572l1.925-6.625.01-.005c26.418-92.389 89.352-197.931 173.716-290.945 39.791-43.871 81.821-81.72 121.548-109.454 40.329-28.155 77.485-45.256 107.594-49.536 82.484 54.297 177.882 95.059 283.573 121.162 106.146 26.215 225.66 38.395 355.219 36.163 4.687-.08 9.869-.139 15.464-.202 74.146-.843 211.385-2.402 242.165-60.173l20.627-2.176 4.615 12.111c.028.073.057.148.086.227l.634 1.664.073-.028c.886 1.744 2.336 3.436 5.005 2.635 61.333 37.311 182.281 162.978 272.64 337.181l.032.001.434.897c.471.91.947 1.814 1.416 2.727L1912 2498l1.125 2h9.167C1922.313 2499.301 1922.164 2498.597 1921.838 2497.953z"/><path style="fill-rule:evenodd;clip-rule:evenodd;fill:#569935;stroke:#000000;stroke-width:8.5039;stroke-linecap:round;stroke-linejoin:round;stroke-miterlimit:2.6131;" d="M867.603 1293.527c135.408-338.495 331.41-420.844 588.004-247.048 241.577-117.709 380.271-75.33 416.082 127.137 85.736 16.593 133.412 45.005 143.028 85.238 38.849 13.16 55.222 33.628 49.121 61.401 34.595 16.186 41.096 32.078 19.504 47.676 27.655 37.786 20.431 64.754-21.671 80.905 15.662 25.919-1.675 43.978-52.01 54.177-17.8 44.837-54.641 74.213-110.522 88.128 78.07 53.384 133.361 153.359 109.076 195.761-96.726 186.205-207.247 292.151-331.565 317.84-25.241 2.762-41.134 12.394-47.676 28.895-84.606 9.871-201.87 13.723-351.791 11.557-265.722-14.316-452.573-58.139-560.555-131.47C551.93 1890.923 644.393 1306.53 867.603 1293.527z"/><path style="fill-rule:evenodd;clip-rule:evenodd;fill:#569935;stroke:#000000;stroke-width:8.5039;stroke-linecap:round;stroke-linejoin:round;stroke-miterlimit:2.6131;" d="M1602.782 2136.4l.003.001c-29.47 61.966-189.929 58.995-254.948 60.108-259.599 4.447-472.17-48.054-637.709-157.502-.339-9.494 1.828-17.921 6.501-25.282 107.982 73.33 294.833 117.153 560.555 131.47C1412.208 2147.146 1520.737 2144.214 1602.782 2136.4z"/><path style="fill-rule:evenodd;clip-rule:evenodd;fill:none;stroke:#000000;stroke-width:8.5039;stroke-linecap:round;stroke-linejoin:round;stroke-miterlimit:2.6131;" d="M867.603 1293.527c-6.666 40.876-12.204 79.643-16.615 116.301"/><path style="fill-rule:evenodd;clip-rule:evenodd;fill:none;stroke:#000000;stroke-width:8.5039;stroke-linecap:round;stroke-linejoin:round;stroke-miterlimit:2.6131;" d="M1525.676 1561.525c-51.268 27.946-114.836 54.192-190.704 78.737"/><path style="fill-rule:evenodd;clip-rule:evenodd;fill:none;stroke:#000000;stroke-width:8.5039;stroke-linecap:round;stroke-linejoin:round;stroke-miterlimit:2.6131;" d="M1661.48 1575.972c43.172 17.706 78.809 35.524 106.91 53.455"/><path style="fill-rule:evenodd;clip-rule:evenodd;fill:none;stroke:#000000;stroke-width:8.5039;stroke-linecap:round;stroke-linejoin:round;stroke-miterlimit:2.6131;" d="M1899.139 1591.141c-51.724 10.804-107.176 16.714-166.355 17.731"/><path style="fill-rule:evenodd;clip-rule:evenodd;fill:none;stroke:#000000;stroke-width:8.5039;stroke-linecap:round;stroke-linejoin:round;stroke-miterlimit:2.6131;" d="M1153.659 1482.787c60.118 38.148 137.411 57.893 231.879 59.234 39.01-.234 79.221.007 120.635.722 32.19-13.808 57.713-18.865 76.571-15.17 48.169-23.217 60.691-48.499 37.562-75.848"/><path style="fill-rule:evenodd;clip-rule:evenodd;fill:none;stroke:#000000;stroke-width:8.5039;stroke-linecap:round;stroke-linejoin:round;stroke-miterlimit:2.6131;" d="M1455.607 1046.479c34.191 41.927 51.047 84.546 50.566 127.858-162.616-97.202-306.126-95.756-430.529 4.334"/><path style="fill-rule:evenodd;clip-rule:evenodd;fill:none;stroke:#000000;stroke-width:8.5039;stroke-linecap:round;stroke-linejoin:round;stroke-miterlimit:2.6131;" d="M1871.688 1173.615c-13.481 2.256-24.317.329-32.506-5.78-3.124-4.977-8.661-7.145-16.614-6.501-15.036 5.566-26.834 5.807-35.396.723-9.792-4.853-23.998-7.501-42.619-7.946-88.686-4.572-168.146 2.17-238.38 20.226 20.481 29.685 50.58 58.098 90.295 85.239 17.034 9.995 18.72 25.887 5.057 47.676-140.781-70.757-280.197-57.274-418.249 40.452-23.248 12.323-56.235 17.861-98.964 16.615-20.681-3.351-31.758 4.112-33.229 22.393-.159 13.995 10.436 21.459 31.784 22.394 26.147.214 47.337 2.38 63.568 6.501"/><path style="fill-rule:evenodd;clip-rule:evenodd;fill:none;stroke:#000000;stroke-width:8.5039;stroke-linecap:round;stroke-linejoin:round;stroke-miterlimit:2.6131;" d="M1559.124 1231.308c-146.388-18.638-254.816-7.048-325.282 34.77-40.94 36.795-86.93 57.984-137.972 63.568"/><path style="fill-rule:evenodd;clip-rule:evenodd;fill:none;stroke:#000000;stroke-width:8.5039;stroke-linecap:round;stroke-linejoin:round;stroke-miterlimit:2.6131;" d="M1609.225 1290.928c119.034-61.942 254.197-72.633 405.492-32.075"/><path style="fill-rule:evenodd;clip-rule:evenodd;fill:none;stroke:#000000;stroke-width:8.5039;stroke-linecap:round;stroke-linejoin:round;stroke-miterlimit:2.6131;" d="M1618.139 1315.921c160.721-64.233 309.287-62.788 445.699 4.334"/><path style="fill:#569935;" d="M1449 1046h12l113 38 254 50 38 32 10 15 131.5 69.5 6.5 15.5 46 47-4 22-342 132-96 73-85 4-75 15-247 30-136-49-73-91V1292l49-116 75-106 164-24z"/><path style="fill:#FFFFFF;stroke:#000000;stroke-width:8.5039;" d="M2080.5 1368.5c-129.034-4.408-227.865-92.764-380.906 42.685-34.6 19.167-44.79 19.018-44.79 19.018l-18.407 62.673 13.386 17.68c0 0 90.384 20.894 212.572 17.68s167.274-31.012 196.551-40.381c31.939-10.223 52.623-48.489 40.594-89.355C2096.786 1389.281 2090.107 1376.706 2080.5 1368.5z"
			/><path style="fill:#FFFFFF;stroke:#000000;stroke-width:8.5039;" d="M1571.839 1413.741c-63.878-30.668-133.079-66.447-202.28-81.781-58.742-10.577-112.413 12.888-159.279 46.91-39.469 36.518-60.946 72.222-60.946 72.222s82.878 112.484 218.452 110.876c135.569-1.602 271.954-77.129 271.954-77.129s22.119-48.123 15.153-81.946C1630.222 1419.167 1602.093 1426.654 1571.839 1413.741z"/><path d="M1454.163 1362.588c-54.464-30.758-128.676-22.003-158.639 33.848-29.966 55.865-7.054 121.863 52.888 125.257 59.927 3.384 121.616-8.465 132.195-54.163C1491.191 1421.832 1484.136 1379.514 1454.163 1362.588z"/><path style="fill:#FFFFFF;" d="M1415.383 1418.438c0 10.298-9.861 18.629-22.031 18.629-12.169.0-22.03-8.331-22.03-18.629.0-10.267 9.861-18.613 22.03-18.613C1405.522 1399.824 1415.383 1408.171 1415.383 1418.438z"/><path style="fill:#FFFFFF;" d="M1355.456 1444.673c0 7.951-8.287 14.396-18.512 14.396-10.215.0-18.506-6.444-18.506-14.396.0-7.942 8.291-14.381 18.506-14.381C1347.169 1430.293 1355.456 1436.731 1355.456 1444.673z"/><path style="fill:#FFFFFF;" d="M1358.98 1376.969c0 4.218-5.131 7.627-11.452 7.627-6.331.0-11.468-3.409-11.468-7.627.0-4.198 5.136-7.612 11.468-7.612C1353.849 1369.356 1358.98 1372.771 1358.98 1376.969z"/><path d="M1926.348 1348.886c-46.521-19.851-117.167-19.287-140.596 14.465-23.439 33.753-25.103 89.997-10.043 110.891 15.065 20.895 40.168 25.711 76.993 27.323 36.82 1.597 82.02-3.22 95.406-43.396C1961.494 1417.989 1956.472 1361.744 1926.348 1348.886z"/><ellipse style="fill:#FFFFFF;" cx="1873.622" cy="1398.707" rx="20.921" ry="17.68"/><path style="fill:#FFFFFF;" d="M1837.637 1423.614c0 7.547-7.865 13.667-17.575 13.667-9.7.0-17.571-6.12-17.571-13.667.0-7.542 7.87-13.656 17.571-13.656C1829.772 1409.958 1837.637 1416.072 1837.637 1423.614z"/><path style="fill:#FFFFFF;" d="M1840.985 1359.328c0 3.998-4.865 7.238-10.88 7.238-6.004.0-10.875-3.24-10.875-7.238.0-3.988 4.871-7.232 10.875-7.232C1836.119 1352.096 1840.985 1355.34 1840.985 1359.328z"/><path style="fill:none;stroke:#000000;stroke-width:8.5039;" d="M965 1301.292c0 0 111.786-138.005 186.31-138.005s409.882 163.562 420.529 127.783c10.646-35.779-26.616-71.558-26.616-71.558s-22.915-105.68-91.304-175.511"/><path style="fill:none;stroke:#000000;stroke-width:8.5039;" d="M1874.5 1174.5c0 0-84.412 14.344-148.29 50.123-63.878 35.779-60.71 110.877-155.71 35.877"/><path style="fill:none;stroke:#000000;stroke-width:8.5039;" d="M1575.5 1268.5c0 0 26.5 48.131 54.893 65.167 28.394 17.036 46.136 30.663 24.843 85.185"/><path style="fill:none;stroke:#000000;stroke-width:8.5039;" d="M1659.671 1354.961c0 0 74.478-136.813 361.829-93.461"/><path style="fill:none;stroke:#000000;stroke-width:8.5039;" d="M1664.994 1370.295c0 0 101.984-163.481 400.506-49.795"/><path style="fill:none;stroke:#000000;stroke-width:8.5039;" d="M1641.04 1339.627c0 0-130.417-38.335-236.88-71.558s-231.557-30.668-303.419 48.557"/><path style="fill:none;stroke:#000000;stroke-width:8.5039;" d="M1350.928 1273.18c0 0-109.125.0-162.356 43.446s-69.201 71.558-109.125 89.448c-39.924 17.89-74.524 23.001-47.908 46.002 26.616 23.001 117.795-.983 117.795-.983"/><path d="M1076.551 1702.455c-1.624.862-39.698 21.274-48.393 56.738-5.438 22.199 1.961 45.033 22 67.885 1.159 1.335 3.302 1.371 4.772.072 1.467-1.299 1.704-3.435.53-4.772-18.628-21.249-25.604-42.163-20.711-62.165 7.854-32.162 44.151-51.677 44.518-51.865 1.723-.916 2.501-2.963 1.747-4.581C1080.264 1702.14 1078.269 1701.554 1076.551 1702.455z"/><path style="fill:#FFFFFF;stroke:#000000;stroke-width:8.5039;" d="M2021.965 1759.342c0 0 18.372 78.478 10.193 85.709-8.18 7.231-38.844 2.765-38.844 2.765s-13.533 66.201-42.51 90.199c-28.977 23.998-715.2 30.736-761.75 33.027-46.549 2.291-81.205 20.783-55.716-16.321 25.488-37.104 442.538-194.482 468.539-198.038C1627.879 1753.127 2021.965 1759.342 2021.965 1759.342z"/><path style="fill:#9F4238;stroke:#000000;stroke-width:8.5039;" d="M1999.601 1703.822c-246.997-8.333-626.396 68.003-786.201 150.981-159.802 82.978-170.237 140.773-149.689 142.038 20.548 1.265 430.194-7.887 519.444-5.832 89.25 2.056 331.561 30.726 349.947 11.232s17.701-64.227 17.701-64.227-232.664-17.764-522.233-4.653c-141.321 6.401-283.141 20.385-283.141 20.385s172.704-91.615 383.197-137.98c170.762-37.612 470.015-44.356 484.089-45.821C2054.234 1765.624 2030.652 1704.868 1999.601 1703.822z"/><path d="M1908.161 1830.996c-15.843 2.71-72.54 5.998-127.367 9.174-46.129 2.674-89.707 5.198-107.162 7.275-37.64 4.476-151.132 23.371-205.493 35.585-29.045 6.531-84.483 16.361-133.394 25.038-41.738 7.4-77.778 13.793-87.628 16.414-20.517 5.464-72.124 14.222-72.643 14.311-2.629.448-4.396 2.937-3.953 5.563.445 2.626 2.937 4.396 5.563 3.953 2.137-.362 52.57-8.924 73.511-14.499 9.461-2.519 45.318-8.877 86.832-16.242 49.013-8.695 104.568-18.544 133.832-25.121 54.111-12.163 167.059-30.966 204.517-35.423 17.166-2.04 60.597-4.558 106.575-7.221 55.095-3.194 112.064-6.495 128.441-9.299 28.032-4.8 81.548 11.748 82.087 11.918 2.539.796 5.245-.624 6.041-3.168.796-2.539-.624-5.245-3.168-6.042C1992.469 1842.496 1938.487 1825.803 1908.161 1830.996z"/><path d="M1900.062 1773.686c-2.65.184-4.607 2.275-4.366 4.666l5.34 52.876c.24 2.386 2.588 4.173 5.243 3.989 2.65-.184 4.607-2.275 4.366-4.666l-5.34-52.876C1905.064 1775.288 1902.717 1773.502 1900.062 1773.686z"/><path d="M1747.723 1786.71c-2.637.382-4.465 2.832-4.083 5.469 1.032 7.123 6.438 43.068 11.489 50.746 1.464 2.225 4.458 2.843 6.683 1.378 2.225-1.464 2.842-4.458 1.378-6.683-2.579-3.92-7.111-26.89-9.998-46.827C1752.811 1788.157 1750.36 1786.329 1747.723 1786.71z"/><path d="M1870.673 1837.163c-2.663.058-4.777 2.264-4.72 4.931.424 19.529-21.885 82.204-22.11 82.834-.895 2.508.411 5.272 2.918 6.167 2.508.894 5.272-.411 6.167-2.919.943-2.646 23.131-64.995 22.676-86.294C1875.547 1839.221 1873.341 1837.106 1870.673 1837.163z"/><path d="M1607.822 1804.005c-2.588.641-4.159 3.264-3.513 5.847l12.406 49.75c.641 2.588 3.264 4.159 5.847 3.513 2.588-.641 4.159-3.264 3.513-5.847l-12.406-49.75C1613.027 1804.93 1610.405 1803.359 1607.822 1804.005z"/><path d="M1485.435 1827.344c-2.615.519-4.313 3.058-3.793 5.669l9.838 49.592c.519 2.615 3.058 4.312 5.668 3.793 2.615-.519 4.312-3.058 3.793-5.668l-9.838-49.592C1490.584 1828.522 1488.045 1826.825 1485.435 1827.344z"/><path d="M1722.771 1851.1l-14.702 71.285c-.539 2.611 1.137 5.161 3.748 5.699 2.61.539 5.161-1.137 5.699-3.748l14.702-71.285c.539-2.611-1.137-5.161-3.748-5.699C1725.859 1846.814 1723.309 1848.49 1722.771 1851.1z"/><path d="M1579.595 1863.924c-2.661-.048-4.861 2.072-4.909 4.738l-1.069 59.234c-.048 2.661 2.072 4.861 4.738 4.909 2.661.048 4.861-2.072 4.909-4.738l1.069-59.233C1584.381 1866.172 1582.261 1863.972 1579.595 1863.924z"/><path d="M1377.607 1856.886c-2.57.687-4.102 3.333-3.42 5.907l10.47 39.318c.687 2.57 3.333 4.102 5.908 3.42 2.57-.687 4.102-3.333 3.42-5.908l-10.47-39.318C1382.827 1857.736 1380.181 1856.204 1377.607 1856.886z"/><path d="M1424.036 1898.418c-2.57.687-4.102 3.333-3.42 5.908l6.282 23.591c.688 2.57 3.333 4.102 5.908 3.42 2.57-.687 4.102-3.333 3.42-5.908l-6.282-23.591C1429.256 1899.268 1426.611 1897.736 1424.036 1898.418z"/><path d="M1292.524 1885.527c-2.407 1.146-3.425 4.029-2.274 6.431l11.419 23.907c.272.565.648 1.077 1.111 1.498l24.42 22.129c1.975 1.789 5.025 1.639 6.818-.336.762-.844 1.174-1.886 1.239-2.94.087-1.415-.444-2.853-1.574-3.879.0.0-22.388-20.287-23.719-21.487-.758-1.598-11.009-23.051-11.009-23.051C1297.81 1885.394 1294.927 1884.376 1292.524 1885.527z"/><path style="fill-rule:evenodd;clip-rule:evenodd;fill:#F99F30;stroke:#000000;stroke-width:8.5039;stroke-miterlimit:2.6131;" d="M1166.133 1119.125c90.864-80.249 715.595-241.734 566.367-339.625-343.688-225.453-592.055-334.687-971 123-154 186-175.418 429.991-98 637 33.036-59.87 116.494-187.528 199.534-233.151C1004.668 1234.586 1105.7 1172.176 1166.133 1119.125v0z"/><path style="fill-rule:evenodd;clip-rule:evenodd;fill:#AD661F;stroke:#000000;stroke-width:8.5039;stroke-miterlimit:2.6131;" d="M1530.496 858.574c-171.095 107.636-292.548 194.489-364.363 260.55 134.708-28.247 245.904-11.083 333.589 51.495 136.449-40.485 236.575-66.85 356.778-55.12 142.882-63.51 129.846-130.886 115-186C1898.5 658.5 1655.786 775.896 1530.496 858.574v0z"/><path style="fill-rule:evenodd;clip-rule:evenodd;fill:#F99F30;stroke:#000000;stroke-width:8.5039;stroke-miterlimit:2.6131;" d="M887.5 784.126c0 0 148.886-45.456 230.534-25.569s209.401 74.814 317.944 126.899c108.543 52.086-215.027-150.575-299.694-160.992C1072.767 716.65 887.5 784.126 887.5 784.126z"/></svg>