<svg xmlns="http://www.w3.org/2000/svg" xmlns:xlink="http://www.w3.org/1999/xlink" viewBox="0 0 2500 2500" style="enable-background:new 0 0 2500 2500;"><path style="fill-rule:evenodd;clip-rule:evenodd;fill:#c5c000;" d="M1634.754 2148.807c1.927 5.057.0.0-5.78-15.17l-26.192 2.763.003.001c-29.47 61.966-189.929 58.995-254.948 60.108-259.599 4.447-472.17-48.054-637.709-157.502C580.824 2055.622 354.002 2296.891 3e2 25e2h1618C1826.858 2320.131 1699.317 2185.588 1634.754 2148.807z"/><path d="M1921.838 2497.953c-52.422-103.453-111.68-182.186-152.16-230.017-47.648-56.301-96.657-101.775-131.49-122.059l-5.24-13.755c-.688-1.804-2.514-2.915-4.42-2.715l-26.191 2.764c-1.548.163-2.844 1.149-3.445 2.517-26.341 54.989-167.671 56.593-235.615 57.365-5.611.064-10.811.123-15.512.204-257.506 4.411-471.255-48.344-635.291-156.798-.851-.562-1.872-.795-2.887-.671-63.114 8.11-151.304 68.642-235.909 161.923-40.95 45.149-78.518 95.538-108.641 145.719-32.805 54.65-56.069 107.297-69.145 156.477-.096.361-.138.728-.138 1.093h8.572l1.925-6.625.01-.005c26.418-92.389 89.352-197.931 173.716-290.945 39.791-43.871 81.821-81.72 121.548-109.454 40.329-28.155 77.485-45.256 107.594-49.536 82.484 54.297 177.882 95.059 283.573 121.162 106.146 26.215 225.66 38.395 355.219 36.163 4.687-.08 9.869-.139 15.464-.202 74.146-.843 211.385-2.402 242.165-60.173l20.627-2.176 4.615 12.111c.028.073.057.148.086.227l.634 1.664.073-.028c.886 1.744 2.336 3.436 5.005 2.635 61.333 37.311 182.281 162.978 272.64 337.181l.032.001.434.897c.471.91.947 1.814 1.416 2.727L1912 2498l1.125 2h9.167C1922.313 2499.301 1922.164 2498.597 1921.838 2497.953z"/><path style="fill-rule:evenodd;clip-rule:evenodd;fill:#578c3c;stroke:#000000;stroke-width:8.5039;stroke-linecap:round;stroke-linejoin:round;stroke-miterlimit:2.6131;" d="M867.603 1293.527c135.408-338.495 331.41-420.844 588.004-247.048 241.577-117.709 380.271-75.33 416.082 127.137 85.736 16.593 133.412 45.005 143.028 85.238 38.849 13.16 55.222 33.628 49.121 61.401 34.595 16.186 41.096 32.078 19.504 47.676 27.655 37.786 20.431 64.754-21.671 80.905 15.662 25.919-1.675 43.978-52.01 54.177-17.8 44.837-54.641 74.213-110.522 88.128 78.07 53.384 133.361 153.359 109.076 195.761-96.726 186.205-207.247 292.151-331.565 317.84-25.241 2.762-41.134 12.394-47.676 28.895-84.606 9.871-201.87 13.723-351.791 11.557-265.722-14.316-452.573-58.139-560.555-131.47C551.93 1890.923 644.393 1306.53 867.603 1293.527z"/><path style="fill-rule:evenodd;clip-rule:evenodd;fill:#578c3c;stroke:#000000;stroke-width:8.5039;stroke-linecap:round;stroke-linejoin:round;stroke-miterlimit:2.6131;" d="M1602.782 2136.4l.003.001c-29.47 61.966-189.929 58.995-254.948 60.108-259.599 4.447-472.17-48.054-637.709-157.502-.339-9.494 1.828-17.921 6.501-25.282 107.982 73.33 294.833 117.153 560.555 131.47C1412.208 2147.146 1520.737 2144.214 1602.782 2136.4z"/><path style="fill-rule:evenodd;clip-rule:evenodd;fill:none;stroke:#000000;stroke-width:8.5039;stroke-linecap:round;stroke-linejoin:round;stroke-miterlimit:2.6131;" d="M867.603 1293.527c-6.666 40.876-12.204 79.643-16.615 116.301"/><path style="fill-rule:evenodd;clip-rule:evenodd;fill:none;stroke:#000000;stroke-width:8.5039;stroke-linecap:round;stroke-linejoin:round;stroke-miterlimit:2.6131;" d="M1525.676 1561.525c-51.268 27.946-114.836 54.192-190.704 78.737"/><path style="fill-rule:evenodd;clip-rule:evenodd;fill:none;stroke:#000000;stroke-width:8.5039;stroke-linecap:round;stroke-linejoin:round;stroke-miterlimit:2.6131;" d="M1661.48 1575.972c43.172 17.706 78.809 35.524 106.91 53.455"/><path style="fill-rule:evenodd;clip-rule:evenodd;fill:none;stroke:#000000;stroke-width:8.5039;stroke-linecap:round;stroke-linejoin:round;stroke-miterlimit:2.6131;" d="M1899.139 1591.141c-51.724 10.804-107.176 16.714-166.355 17.731"/><path style="fill-rule:evenodd;clip-rule:evenodd;fill:none;stroke:#000000;stroke-width:8.5039;stroke-linecap:round;stroke-linejoin:round;stroke-miterlimit:2.6131;" d="M1153.659 1482.787c60.118 38.148 137.411 57.893 231.879 59.234 39.01-.234 79.221.007 120.635.722 32.19-13.808 57.713-18.865 76.571-15.17 48.169-23.217 60.691-48.499 37.562-75.848"/><path style="fill-rule:evenodd;clip-rule:evenodd;fill:none;stroke:#000000;stroke-width:8.5039;stroke-linecap:round;stroke-linejoin:round;stroke-miterlimit:2.6131;" d="M1455.607 1046.479c34.191 41.927 51.047 84.546 50.566 127.858-162.616-97.202-306.126-95.756-430.529 4.334"/><path style="fill-rule:evenodd;clip-rule:evenodd;fill:none;stroke:#000000;stroke-width:8.5039;stroke-linecap:round;stroke-linejoin:round;stroke-miterlimit:2.6131;" d="M1871.688 1173.615c-13.481 2.256-24.317.329-32.506-5.78-3.124-4.977-8.661-7.145-16.614-6.501-15.036 5.566-26.834 5.807-35.396.723-9.792-4.853-23.998-7.501-42.619-7.946-88.686-4.572-168.146 2.17-238.38 20.226 20.481 29.685 50.58 58.098 90.295 85.239 17.034 9.995 18.72 25.887 5.057 47.676-140.781-70.757-280.197-57.274-418.249 40.452-23.248 12.323-56.235 17.861-98.964 16.615-20.681-3.351-31.758 4.112-33.229 22.393-.159 13.995 10.436 21.459 31.784 22.394 26.147.214 47.337 2.38 63.568 6.501"/><path style="fill-rule:evenodd;clip-rule:evenodd;fill:none;stroke:#000000;stroke-width:8.5039;stroke-linecap:round;stroke-linejoin:round;stroke-miterlimit:2.6131;" d="M1559.124 1231.308c-146.388-18.638-254.816-7.048-325.282 34.77-40.94 36.795-86.93 57.984-137.972 63.568"/><path style="fill-rule:evenodd;clip-rule:evenodd;fill:none;stroke:#000000;stroke-width:8.5039;stroke-linecap:round;stroke-linejoin:round;stroke-miterlimit:2.6131;" d="M1609.225 1290.928c119.034-61.942 254.197-72.633 405.492-32.075"/><path style="fill-rule:evenodd;clip-rule:evenodd;fill:none;stroke:#000000;stroke-width:8.5039;stroke-linecap:round;stroke-linejoin:round;stroke-miterlimit:2.6131;" d="M1618.139 1315.921c160.721-64.233 309.287-62.788 445.699 4.334"/><path style="fill:#578c3c;" d="M1449 1046h12l113 38 254 50 38 32 10 15 131.5 69.5 6.5 15.5 46 47-4 22-342 132-96 73-85 4-75 15-247 30-136-49-73-91V1292l49-116 75-106 164-24z"/><path style="fill:#FFFFFF;stroke:#000000;stroke-width:8.5039;" d="M1856.83 1199.624c-118.419-20.116-201.968 57.227-256.99 110.299-55.297-73.394-163.012-143.283-280.433-133.173-227.682 19.609-209.201 287.592-209.201 287.592s64.641 101.313 252.483 91.509c118.129-6.166 203.193-45.925 250.084-74.596 50.294 23.979 139.49 64.35 240.453 58.252 162.31-9.804 244.727-79.737 248.875-94.774C2118.333 1385.907 2029.961 1229.037 1856.83 1199.624z"/><path d="M1535.244 1354.378c-52.56-28.016-124.178-20.04-153.1 30.821-28.917 50.874-6.805 110.979 51.039 114.066 57.838 3.088 117.373-7.707 127.581-49.323C1570.976 1408.326 1564.166 1369.793 1535.244 1354.378z"/><path style="fill:#FFFFFF;" d="M1497.821 1405.239c0 9.374-9.516 16.961-21.266 16.961-11.74.0-21.261-7.588-21.261-16.961.0-9.354 9.521-16.952 21.261-16.952C1488.305 1388.287 1497.821 1395.884 1497.821 1405.239z"/><path style="fill:#FFFFFF;" d="M1439.982 1429.127c0 7.243-7.994 13.112-17.863 13.112-9.854.0-17.858-5.869-17.858-13.112.0-7.229 8.005-13.093 17.858-13.093C1431.988 1416.034 1439.982 1421.898 1439.982 1429.127z"/><path style="fill:#FFFFFF;" d="M1443.385 1367.476c0 3.835-4.95 6.942-11.053 6.942-6.108.0-11.064-3.107-11.064-6.942.0-3.825 4.956-6.932 11.064-6.932C1438.434 1360.544 1443.385 1363.651 1443.385 1367.476z"/><path d="M1821.288 1348.217c-47.282-19.039-119.085-18.498-142.898 13.874-23.824 32.372-25.515 86.315-10.208 106.354 15.312 20.04 40.826 24.659 78.254 26.206 37.423 1.532 83.363-3.088 96.969-41.62C1857.01 1414.492 1851.906 1360.549 1821.288 1348.217z"/><ellipse style="fill:#FFFFFF;" cx="1767.699" cy="1395.999" rx="21.264" ry="16.957"/><path style="fill:#FFFFFF;" d="M1731.125 1419.887c0 7.239-7.994 13.108-17.863 13.108-9.859.0-17.858-5.869-17.858-13.108.0-7.233 7.999-13.098 17.858-13.098C1723.131 1406.79 1731.125 1412.654 1731.125 1419.887z"/><path style="fill:#FFFFFF;" d="M1734.527 1358.232c0 3.834-4.945 6.941-11.058 6.941-6.102.0-11.053-3.107-11.053-6.941.0-3.825 4.951-6.937 11.053-6.937C1729.582 1351.295 1734.527 1354.407 1734.527 1358.232z"/><path style="fill:none;stroke:#000000;stroke-width:8.5039;stroke-linecap:round;" d="M1607.956 1491.304c0 0 8.115 36.766-40.577 49.022s-259.695 132.359-438.236-7.353"/><path style="fill:none;stroke:#000000;stroke-width:8.5039;stroke-linecap:round;" d="M1110.206 1464.342c0 0-72.139 55.557-93.78 29.413-21.641-26.143 32.462-52.287 43.283-75.165 10.821-22.879-7.215-215.701 162.31-271.258 169.524-55.556 270.519 58.826 299.372 58.826 28.853.0 84.763 31.05 78.45 103.765.0.0 56.808 120.104 5.41 171.577"/><path style="fill:none;stroke:#000000;stroke-width:8.5039;stroke-linecap:round;" d="M1871.984 1173.117c0 0-184.68-55.193-300.098 49.386"/><path style="fill:none;stroke:#000000;stroke-width:8.5039;stroke-linecap:round;" d="M1450.232 1046c0 0 74.767 35.967 114.441 169.963"/><path style="fill:none;stroke:#000000;stroke-width:8.5039;stroke-linecap:round;" d="M1002 1264.985c0 0 32.462-150.331 191.165-183.013 158.704-32.683 317.405 39.218 339.046 58.826.0.0 144.277-78.435 270.516-29.413"/><path style="fill:none;stroke:#000000;stroke-width:8.5039;stroke-linecap:round;" d="M1609.757 1258.45c0 0 74.579-101.879 230.842-71.9 150.901 28.95 173.901 71.95 173.901 71.95"/><path style="fill-rule:evenodd;clip-rule:evenodd;fill:#AC693C;stroke:#000000;stroke-width:8.5039;stroke-linecap:round;stroke-linejoin:round;stroke-miterlimit:2.6131;" d="M1408.653 1817.963c-89.816-18.32-157.236-29.878-202.262-34.673-88.842-11.63-140.612 19.432-155.308 93.185-.759 35.818 18.504 54.118 57.789 54.9 81.009-4.737 161.673 2.968 241.992 23.115 229.51 41.612 419.25 54.374 569.222 38.286 63.522-24.771 79.896-57.518 49.12-98.242 81.821-49.944 94.824-85.821 39.008-107.632C1850.094 1860.848 1650.24 1871.201 1408.653 1817.963z"/><path style="fill-rule:evenodd;clip-rule:evenodd;fill:none;stroke:#000000;stroke-width:8.5039;stroke-linecap:round;stroke-linejoin:round;stroke-miterlimit:2.6131;" d="M1969.207 1894.534c-127.733 19.224-249.637 26.119-365.711 20.687-138.029-6.46-347.82-75.145-452.727-54.638"/><path style="fill-rule:evenodd;clip-rule:evenodd;fill:none;stroke:#000000;stroke-width:8.5039;stroke-linecap:round;stroke-linejoin:round;stroke-miterlimit:2.6131;" d="M994.739 1919.817c11.104 52.276 43.37 79.967 96.796 83.072"/><path style="fill-rule:evenodd;clip-rule:evenodd;fill:#FFD32F;stroke:#000000;stroke-width:8.5039;stroke-miterlimit:2.6131;" d="M1166.133 1119.125c90.864-80.249 715.595-241.734 566.367-339.625-343.688-225.453-501-573-1060 95-154.972 185.191-86.418 457.991-9 665 33.036-59.87 116.494-187.528 199.534-233.151C1004.668 1234.586 1105.7 1172.176 1166.133 1119.125v0z"/><path style="fill-rule:evenodd;clip-rule:evenodd;fill:#EAB200;" d="M824 760.988c0 0 141.188-55.029 218.613-30.954 77.425 24.075 198.573 90.569 301.504 153.623s-203.908-182.285-284.197-194.895C999.687 679.303 824 760.988 824 760.988z"/><path style="fill-rule:evenodd;clip-rule:evenodd;" d="M1686.062 804.482 1460.872 482.832 1532.794 422.291 1761.159 741.46 1686.062 804.482z"/><path style="fill-rule:evenodd;clip-rule:evenodd;fill:#FFD32F;stroke:#000000;stroke-width:8.5039;stroke-miterlimit:2.6131;" d="M1465.042 522.192c12.699 88.775 72.856 186.18 180.474 292.215C1399.012 977.202 1243.601 587.799 1465.042 522.192v0z"/><path style="fill-rule:evenodd;clip-rule:evenodd;" d="M1460.866 482.836c-45.466 32.85-31.912 131.484 30.272 220.304 62.184 88.822 149.451 134.196 194.917 101.346 45.465-32.849 31.912-131.483-30.272-220.305C1593.598 495.361 1506.331 449.987 1460.866 482.836v0z"/><path style="fill-rule:evenodd;clip-rule:evenodd;fill:#4D4D4D;stroke:#000000;stroke-width:8.5039;stroke-miterlimit:2.6131;" d="M1535.962 419.817c-45.466 32.85-31.912 131.483 30.272 220.304 62.184 88.822 149.451 134.196 194.917 101.346 45.465-32.849 31.911-131.483-30.272-220.305C1668.694 432.341 1581.427 386.967 1535.962 419.817v0z"/><path style="fill-rule:evenodd;clip-rule:evenodd;fill:#af3221;stroke:#000000;stroke-width:8.5039;stroke-miterlimit:2.6131;" d="M1577.061 480.214c-26.127 18.597-15.339 78.585 24.096 133.989 39.434 55.403 92.583 85.24 118.709 66.644 26.127-18.596 15.338-78.584-24.097-133.988C1656.336 491.455 1603.187 461.618 1577.061 480.214v0z"/><path style="fill-rule:evenodd;clip-rule:evenodd;fill:#EAB200;stroke:#000000;stroke-width:8.5039;stroke-miterlimit:2.6131;" d="M1530.496 858.574c-171.095 107.636-292.548 194.489-364.363 260.55 134.708-28.247 245.904-11.083 333.589 51.495 136.449-40.485 236.575-66.85 356.778-55.12 142.882-63.51 129.846-130.886 115-186C1898.5 658.5 1655.786 775.896 1530.496 858.574v0z"/></svg>