<?xml version="1.0" encoding="utf-8"?>
<!-- Generator: Adobe Illustrator 21.1.0, SVG Export Plug-In . SVG Version: 6.00 Build 0)  -->
<svg version="1.1" id="Pepe_Icon" xmlns="http://www.w3.org/2000/svg" xmlns:xlink="http://www.w3.org/1999/xlink" x="0px" y="0px"
	 viewBox="0 0 8000 3000" style="enable-background:new 0 0 8000 3000;" xml:space="preserve">
<style type="text/css">
	.st0{fill:#ffffff;}
	.st1{fill:#ffffff;stroke:#ffffff;stroke-width:120;stroke-miterlimit:10;}
	.st2{fill:#68984E;}
	
		.st3{fill-rule:evenodd;clip-rule:evenodd;fill:#68984E;stroke:#000000;stroke-width:11.3386;stroke-linecap:round;stroke-linejoin:round;stroke-miterlimit:2.6131;}
	
		.st4{fill-rule:evenodd;clip-rule:evenodd;fill:none;stroke:#000000;stroke-width:11.3386;stroke-linecap:round;stroke-linejoin:round;stroke-miterlimit:2.6131;}
	.st5{stroke:#000000;stroke-width:5.6693;stroke-miterlimit:10;}
	.st6{fill:none;stroke:#000000;stroke-width:11.3386;stroke-linecap:round;stroke-linejoin:round;}
	.st7{fill:#9F4238;stroke:#000000;stroke-width:11.339;stroke-linecap:round;stroke-linejoin:round;}
	.st8{fill:#FFFFFF;stroke:#000000;stroke-width:11.3386;}
	.st9{fill:#FFFFFF;}
	.st10{fill:#67994A;stroke:#000000;stroke-width:11.3386;}
	
		.st11{fill-rule:evenodd;clip-rule:evenodd;fill:#68984E;stroke:#000000;stroke-width:11.339;stroke-linecap:round;stroke-linejoin:round;stroke-miterlimit:2.6131;}
	.st12{fill:#E192A5;stroke:#000000;stroke-width:11.339;}
	.st13{fill:#ffffff;stroke:#000000;stroke-width:12;stroke-linecap:round;stroke-linejoin:round;}
	.st14{opacity:0.8;fill:#D7717E;stroke:#000000;stroke-width:11.339;}
	.st15{fill:none;stroke:#000000;stroke-width:11.5;stroke-linecap:round;stroke-linejoin:round;}
</style>
<circle class="st0" cx="1588" cy="1498.5" r="1056"/>
<circle class="st0" cx="4003" cy="1501.5" r="1056"/>
<circle class="st0" cx="6412" cy="1498.5" r="1056"/>
<g>
	<g>
		<path class="st1" d="M3044,1417c0-74.6-60.5-135-135-135c-48.7,0-91.2,25.9-115,64.5c-23.8-38.6-66.3-64.5-115-64.5
			c-74.6,0-135,60.5-135,135c0,40.6,18,76.9,46.3,101.7l191.3,191.3c3.3,3.3,7.7,5.1,12.3,5.1c4.6,0,9.1-1.8,12.3-5.1l191.3-191.3
			C3026,1493.9,3044,1457.6,3044,1417L3044,1417z M3044,1417"/>
	</g>
</g>
<g>
	<g>
		<path class="st1" d="M5032.6,1647.2h346.8c28.5,0,51.6-23.1,51.6-51.6c0-28.5-23.1-51.6-51.6-51.6h-346.8
			c-28.5,0-51.6,23.1-51.6,51.6C4981,1624.1,5004.1,1647.2,5032.6,1647.2L5032.6,1647.2z M5032.6,1647.2"/>
		<path class="st1" d="M5032.6,1454h346.8c28.5,0,51.6-23.1,51.6-51.6c0-28.5-23.1-51.6-51.6-51.6h-346.8
			c-28.5,0-51.6,23.1-51.6,51.6C4981,1430.9,5004.1,1454,5032.6,1454L5032.6,1454z M5032.6,1454"/>
	</g>
</g>
<g>
	<path class="st2" d="M3044,1417c0-74.6-60.5-135-135-135c-48.7,0-91.2,25.9-115,64.5c-23.8-38.6-66.3-64.5-115-64.5
		c-74.6,0-135,60.5-135,135c0,40.6,18,76.9,46.3,101.7l191.3,191.3c3.3,3.3,7.7,5.1,12.3,5.1c4.6,0,9.1-1.8,12.3-5.1l191.3-191.3
		C3026,1493.9,3044,1457.6,3044,1417L3044,1417z M3044,1417"/>
</g>
<g>
	<path class="st2" d="M5032.6,1647.2h346.8c28.5,0,51.6-23.1,51.6-51.6c0-28.5-23.1-51.6-51.6-51.6h-346.8
		c-28.5,0-51.6,23.1-51.6,51.6C4981,1624.1,5004.1,1647.2,5032.6,1647.2L5032.6,1647.2z M5032.6,1647.2"/>
	<path class="st2" d="M5032.6,1454h346.8c28.5,0,51.6-23.1,51.6-51.6c0-28.5-23.1-51.6-51.6-51.6h-346.8
		c-28.5,0-51.6,23.1-51.6,51.6C4981,1430.9,5004.1,1454,5032.6,1454L5032.6,1454z M5032.6,1454"/>
</g>
<path class="st3" d="M1078.1,1232.6c138.4-346.6,338.8-430.9,601.1-252.9c247-120.5,388.8-77.1,425.4,130.2
	c80.4,22.8,109.2,45.4,149.2,82.9c36.3,41.3,50,55.4,43.8,83.8c8.8,10,15,12.5,23.5,32.2c28.3,38.7,12.8,36.6-22.2,82.8
	c16,26.5-3.9,66-55.4,76.4c-18.2,45.9-53.7,55-110.8,69.3c79.8,54.7,136.3,157,111.5,200.4c-98.9,190.6-197,277-339,325.4
	c-30.8,11-83.2,28-175.2,39.3c-94.1,7.2-81.6,6.5-233.2,2.1c-271.7-14.7-462.7-59.5-573.1-134.6
	C755.3,1844.2,849.9,1245.9,1078.1,1232.6z"/>
<path class="st4" d="M1080.6,1226.6c-6.8,41.8-12.5,81.5-17,119.1"/>
<path class="st4" d="M1750.8,1494.7c-52.4,28.6-117.4,55.5-195,80.6"/>
<path class="st4" d="M1889.7,1509.5c44.1,18.1,80.6,36.4,109.3,54.7"/>
<path class="st4" d="M2141.9,1535c-52.9,11.1-118.8,7.2-179.3,8.2"/>
<path class="st4" d="M1679.1,979.7c35,42.9,52.3,74.3,51.8,118.6c-166.2-99.5-313-98-440.1,4.4"/>
<path class="st4" d="M2103.1,1109.5c-10-5-107.5-26.3-153.7-28.8c-90.7-4.7-146.7-1-218.5,17.5c20.9,30.4,51.7,59.5,92.3,87.3
	c20.5,21.4,30.7,53.2,32.7,101.3"/>
<g>
	<path class="st5" d="M1328.1,1841.6c-0.4,1.5-10.4,36.5,8.2,62c11.6,16,31.8,24.4,59.8,25c1.6,0,3-1.3,3-2.9c0-1.6-1.3-3-2.9-3
		c-26.1-0.6-44.6-8.2-55.1-22.5c-16.9-23.1-7.4-56.5-7.3-56.9c0.5-1.6-0.4-3.2-2-3.7C1330.2,1839.1,1328.6,1840,1328.1,1841.6z"/>
</g>
<path class="st6" d="M2118.7,1650.1c0,0,23.6,77.2,83.3,64.6"/>
<path class="st6" d="M1450.5,1594.2c0,0,9,56-18.9,85c-38.5,40.1-110.8,42.5-153.3,16.5"/>
<g>
	<path class="st7" d="M2135.8,1686.5c-42.8,24.7-135.2,67.4-274.1,76.9c-198.1,13.5-423.2-85.7-423.2-85.7c-1.8,0-4.1,0.5-6.7,1.3
		c0,0.1-0.1,0.1-0.1,0.2c-12.3,12.9-28.2,21.8-45.3,27.2c21.6,19.4,234.1,205.7,430.4,205.7c184.8,0,330.2-150.8,359.3-196.1
		C2160.9,1710.8,2147.2,1699.8,2135.8,1686.5z"/>
</g>
<path class="st6" d="M1419.8,1691c0,0,224.1,123.3,386.8,132.3c214.6,11.8,339.6-120.4,339.6-120.4"/>
<path class="st8" d="M1858,1322.6c0,0,79.3-69.7,182.2-90.1c102.9-20.4,212.5,37.4,212.5,37.4s48.9,1.7,67.5,27.2
	c18.5,25.5,27,44.2,3.4,64.6c-23.6,20.4-133.2,61.2-256.4,64.6c-123.1,3.4-190.8-40-190.8-40l-37,2.7L1858,1322.6z"/>
<path class="st8" d="M1348.6,1344.6c0,0,91.1-93.5,214.2-120.6c123.1-27.2,281.7,27.2,293.5,62.9c11.8,35.7-13.5,93.5-13.5,93.5
	s-101.2,59.5-237.8,61.2C1468.4,1443.2,1348.6,1344.6,1348.6,1344.6z"/>
<g>
	<path d="M1687.2,1247c-62.4-37-147.5-26.5-181.8,40.7c-34.3,67.2-8.1,146.5,60.6,150.6c68.7,4.1,139.4-10.2,151.5-65.1
		C1729.6,1318.3,1721.5,1267.4,1687.2,1247z"/>
	<path class="st9" d="M1642.7,1328.5c0,12.4-11.3,22.4-25.3,22.4c-13.9,0-25.3-10-25.3-22.4c0-12.4,11.3-22.4,25.3-22.4
		C1631.5,1306.1,1642.7,1316.2,1642.7,1328.5z"/>
</g>
<g>
	<path d="M2164.5,1243.5c-58.7-26.3-147.7-25.5-177.2,19.1c-29.6,44.6-31.7,119-12.7,146.7c19,27.6,50.6,34,97.1,36.1
		c46.4,2.1,103.4-4.3,120.3-57.4C2208.8,1334.9,2202.5,1260.5,2164.5,1243.5z"/>
	<path class="st9" d="M2124.4,1323.7c0,12.9-11.8,23.4-26.4,23.4c-14.6,0-26.4-10.5-26.4-23.4c0-12.9,11.8-23.4,26.4-23.4
		C2112.6,1300.3,2124.4,1310.8,2124.4,1323.7z"/>
</g>
<path class="st10" d="M1859.3,1313.9c0.4-9.5-0.3-18.9-3-27c-11.8-35.7-171.7-132.7-294.8-105.5c-96,21.2-171.3,125.3-200.3,151.4
	C1516.3,1258.5,1646.4,1221.3,1859.3,1313.9z"/>
<path class="st10" d="M1851.3,1346.7l-11.8,42.2l0.1,0.4c0,0,108.9,81.2,232.1,77.8c123.1-3.4,228.3-85,251.9-105.4
	c15-13,15.1-24.1,9.8-37.9C2181.2,1399.6,2007,1410.8,1851.3,1346.7z"/>
<path class="st10" d="M2328.3,1319.6c-3.1-7.6-1.6-13.6-8.1-22.5c-18.5-25.5-60.2-60.5-60.2-60.5s-55-53.8-209.8-42.9
	c-104.6,7.4-192.2,128.9-192.2,128.9l-3.6,12.8C2072.7,1197.8,2170.3,1269.4,2328.3,1319.6z"/>
<path class="st10" d="M1351.4,1341.9c-1.8,1.8-2.8,2.8-2.8,2.8s117.2,142.5,253.8,140.8c136.6-1.7,240.4-105.1,240.4-105.1
	s7.5-17.2,12.4-38.7C1587.1,1441.4,1514.8,1386.5,1351.4,1341.9z"/>
<path class="st11" d="M4509.9,1232.6c-138.4-346.6-338.8-430.9-601.1-252.9c-247-120.5-388.8-77.1-425.4,130.2
	c-80.4,22.8-109.2,45.4-149.2,82.9c-36.3,41.3-50,55.4-43.8,83.8c-8.8,10-15,12.5-23.5,32.2c-28.3,38.7-12.8,36.6,22.2,82.8
	c-16,26.5,3.9,66,55.4,76.4c18.2,45.9,53.7,55,110.8,69.3c-79.8,54.7-136.3,157-111.5,200.4c98.9,190.6,197,277,339,325.4
	c30.8,11,83.2,28,175.2,39.3c94.1,7.2,81.6,6.5,233.2,2.1c271.7-14.7,462.7-59.5,573.1-134.6
	C4832.7,1844.2,4738.1,1245.9,4509.9,1232.6z"/>
<path class="st4" d="M4507.4,1226.6c6.8,41.8,12.5,81.5,17,119.1"/>
<path class="st4" d="M3837.2,1494.7c52.4,28.6,117.4,55.5,195,80.6"/>
<path class="st4" d="M3698.3,1509.5c-44.1,18.1-80.6,36.4-109.3,54.7"/>
<path class="st4" d="M3446.1,1535c52.9,11.1,118.8,7.2,179.3,8.2"/>
<path class="st4" d="M3908.9,979.7c-35,42.9-52.3,74.3-51.8,118.6c166.2-99.5,313-98,440.1,4.4"/>
<path class="st4" d="M3484.9,1109.5c10-5,107.5-26.3,153.8-28.8c90.7-4.7,146.7-1,218.5,17.5c-20.9,30.4-51.7,59.5-92.3,87.3
	c-20.5,21.4-30.7,53.2-32.7,101.3"/>
<g>
	<path class="st5" d="M4259.9,1841.6c0.4,1.5,10.4,36.5-8.2,62c-11.6,16-31.8,24.4-59.8,25c-1.6,0-3-1.3-3-2.9c0-1.6,1.3-3,2.9-3
		c26.1-0.6,44.6-8.2,55.1-22.5c16.9-23.1,7.4-56.5,7.3-56.9c-0.5-1.6,0.4-3.2,2-3.7C4257.8,1839.1,4259.4,1840,4259.9,1841.6z"/>
</g>
<path class="st6" d="M3469.3,1650.1c0,0-23.6,77.2-83.3,64.6"/>
<path class="st6" d="M4137.5,1594.2c0,0-9,56,18.9,85c38.5,40.1,110.8,42.5,153.3,16.5"/>
<g>
	<g>
		<path class="st12" d="M3452.2,1686.5c42.8,24.7,135.2,67.4,274.1,76.9c198.1,13.5,423.2-85.7,423.2-85.7c1.8,0,4.1,0.5,6.7,1.3
			c0,0.1,0.1,0.1,0.1,0.2c12.3,12.9,28.2,21.8,45.3,27.2c-21.6,19.4-234.1,205.7-430.4,205.7c-184.8,0-330.2-150.8-359.3-196.1
			C3427.1,1710.8,3440.8,1699.8,3452.2,1686.5z"/>
	</g>
</g>
<path class="st6" d="M4168.2,1691c0,0-224.1,123.3-386.8,132.3c-214.6,11.8-339.6-120.4-339.6-120.4"/>
<path class="st8" d="M3730,1322.6c0,0-79.3-69.7-182.2-90.1c-102.9-20.4-212.5,37.4-212.5,37.4s-48.9,1.7-67.5,27.2
	c-18.5,25.5-27,44.2-3.4,64.6c23.6,20.4,133.2,61.2,256.4,64.6c123.1,3.4,190.8-40,190.8-40l37,2.7L3730,1322.6z"/>
<path class="st8" d="M4239.4,1344.6c0,0-91.1-93.5-214.2-120.6c-123.1-27.2-281.7,27.2-293.5,62.9c-11.8,35.7,13.5,93.5,13.5,93.5
	s101.2,59.5,237.8,61.2C4119.6,1443.2,4239.4,1344.6,4239.4,1344.6z"/>
<g>
	<path d="M3900.8,1247c62.4-37,147.5-26.5,181.8,40.7c34.3,67.2,8.1,146.5-60.6,150.6c-68.7,4.1-139.4-10.2-151.5-65.1
		C3858.4,1318.3,3866.5,1267.4,3900.8,1247z"/>
	<path class="st9" d="M3945.3,1328.5c0,12.4,11.3,22.4,25.3,22.4c13.9,0,25.3-10,25.3-22.4c0-12.4-11.3-22.4-25.3-22.4
		C3956.5,1306.1,3945.3,1316.2,3945.3,1328.5z"/>
</g>
<g>
	<path d="M3423.5,1243.5c58.7-26.3,147.7-25.5,177.2,19.1c29.6,44.6,31.7,119,12.7,146.7c-19,27.6-50.6,34-97.1,36.1
		c-46.4,2.1-103.4-4.3-120.3-57.4C3379.2,1334.9,3385.5,1260.5,3423.5,1243.5z"/>
	<path class="st9" d="M3463.6,1323.7c0,12.9,11.8,23.4,26.4,23.4c14.6,0,26.4-10.5,26.4-23.4c0-12.9-11.8-23.4-26.4-23.4
		C3475.4,1300.3,3463.6,1310.8,3463.6,1323.7z"/>
</g>
<path class="st10" d="M3728.7,1313.9c-0.4-9.5,0.3-18.9,3-27c11.8-35.7,171.7-132.7,294.8-105.5c96,21.2,171.3,125.3,200.3,151.4
	C4071.7,1258.5,3941.6,1221.3,3728.7,1313.9z"/>
<path class="st10" d="M3736.7,1346.7l11.8,42.2l-0.1,0.4c0,0-108.9,81.2-232.1,77.8c-123.1-3.4-228.3-85-251.9-105.4
	c-15-13-15.1-24.1-9.8-37.9C3406.8,1399.6,3581,1410.8,3736.7,1346.7z"/>
<path class="st10" d="M3259.7,1319.6c3.1-7.6,1.6-13.6,8.1-22.5c18.5-25.5,60.2-60.5,60.2-60.5s55-53.8,209.8-42.9
	c104.6,7.4,192.2,128.9,192.2,128.9l3.6,12.8C3515.3,1197.8,3417.7,1269.4,3259.7,1319.6z"/>
<path class="st10" d="M4236.6,1341.9c1.8,1.8,2.8,2.8,2.8,2.8s-117.2,142.5-253.8,140.8c-136.6-1.7-240.4-105.1-240.4-105.1
	s-7.5-17.2-12.4-38.7C4000.9,1441.4,4073.2,1386.5,4236.6,1341.9z"/>
<circle class="st13" cx="6128.5" cy="1557" r="165"/>
<circle cx="6128.5" cy="1557" r="50"/>
<circle class="st9" cx="6051.5" cy="1489" r="50"/>
<circle class="st13" cx="6282.5" cy="1282" r="165"/>
<circle cx="6282.5" cy="1282" r="50"/>
<circle class="st9" cx="6205.5" cy="1214" r="50"/>
<circle class="st13" cx="6438.5" cy="1489" r="165"/>
<circle cx="6438.5" cy="1489" r="50"/>
<circle class="st9" cx="6361.5" cy="1421" r="50"/>
<circle class="st13" cx="6557.5" cy="1225" r="165"/>
<circle cx="6557.5" cy="1225" r="50"/>
<circle class="st9" cx="6480.5" cy="1157" r="50"/>
<circle class="st13" cx="6319.5" cy="1751" r="165"/>
<circle cx="6319.5" cy="1751" r="50"/>
<circle class="st9" cx="6242.5" cy="1683" r="50"/>
<circle class="st13" cx="6695.5" cy="1518" r="165"/>
<circle cx="6695.5" cy="1518" r="50"/>
<circle class="st9" cx="6618.5" cy="1450" r="50"/>
<circle class="st13" cx="6579.5" cy="1772" r="165"/>
<circle cx="6579.5" cy="1772" r="50"/>
<circle class="st9" cx="6502.5" cy="1704" r="50"/>
<circle class="st14" cx="4323" cy="1534.5" r="134"/>
<g>
	<path class="st15" d="M3613.1,1275.1c0,0-30.1-2.8-67.9-57.2"/>
	<path class="st15" d="M3527.8,1257.9c0,0-38.6-0.6-66.3-44.7"/>
	<path class="st15" d="M3456.9,1255.9c0,0-35.4-12.2-54.9-34.3"/>
	<path class="st15" d="M3398,1267.5c0,0-17.8-11.3-35.8-30.8"/>
	<path class="st15" d="M3351.1,1283.8c0,0-27.6-5.3-45.9-26.3"/>
</g>
<g>
	<path class="st15" d="M4108.4,1283.8c0,0-29.9-4.5-64.6-61"/>
	<path class="st15" d="M4025.3,1265.2c0,0-37.6-8.4-56-57.2"/>
	<path class="st15" d="M3951.9,1260c0,0-31.7-19.9-45.7-45.7"/>
	<path class="st15" d="M3894,1260c0,0-17.1-12.3-34-32.8"/>
	<path class="st15" d="M3846.3,1273.6c0,0-27.2-6.9-44.3-28.8"/>
</g>
</svg>
