<?xml version="1.0" encoding="UTF-8" standalone="no"?><!DOCTYPE svg PUBLIC "-//W3C//DTD SVG 1.1//EN" "http://www.w3.org/Graphics/SVG/1.1/DTD/svg11.dtd"><svg width="100%" height="100%" viewBox="0 0 360 275" version="1.1" xmlns="http://www.w3.org/2000/svg" xmlns:xlink="http://www.w3.org/1999/xlink" xml:space="preserve" xmlns:serif="http://www.serif.com/" style="fill-rule:evenodd;clip-rule:evenodd;stroke-linecap:round;stroke-linejoin:round;stroke-miterlimit:2.6131;"><g><g id="Basic_Lips"><path d="M259.586,245.847l24.77,-2.191c13.535,-5.393 16.581,-14.236 10.286,-23.252c17.994,-10.984 21.912,-18.392 9.636,-23.189" style="fill:none;stroke:#fff;stroke-width:13px;"/><path d="M294.642,220.404c-15.985,16.287 -98.774,7.903 -147.924,-6.817c-20.147,-6.033 -39.326,-13.545 -35.946,-20.229" style="fill:none;stroke:#fff;stroke-width:13px;"/></g><g id="Head"><path d="M264.822,245.429c-7.439,8.845 -35.396,18.841 -39.23,19.62c-18.607,2.171 -44.397,3.018 -77.369,2.542c-58.44,-3.149 -99.534,-12.787 -123.283,-28.914c-36.222,-27.008 -15.886,-155.533 33.204,-158.393c29.78,-74.445 72.887,-92.556 129.32,-54.333c53.13,-25.888 83.633,-16.567 91.509,27.961c72.732,8.991 51.645,98.093 6.037,91.826c17.17,11.741 29.33,33.728 23.989,43.054c-1.682,3.238 -5.078,5.909 -5.103,9.382c-0.011,1.603 -76.743,17.156 -129.853,2.282c-19.753,-4.029 -33.854,-13.539 -55.893,-25.631c-16.002,-8.78 -40.717,9.854 -29.373,30.565c2.529,4.594 6.399,8.307 11.093,10.644c29.78,13.468 125.44,38.885 164.952,29.395Z" style="fill:none;stroke:#fff;stroke-width:13px;"/><path d="M58.144,78.169c-1.466,8.99 -2.684,17.516 -3.654,25.578" style="fill:none;stroke:#fff;stroke-width:13px;"/><path d="M187.464,23.836c7.519,9.221 11.226,18.594 11.121,28.12c-35.764,-21.378 -67.327,-21.06 -94.686,0.953" style="fill:none;stroke:#fff;stroke-width:13px;"/><path d="M278.972,51.797c-2.662,-0.251 -23.865,-4.192 -27.96,-4.29c-19.505,-1.005 -36.981,0.478 -52.427,4.449" style="fill:none;stroke:#fff;stroke-width:13px;"/></g><path d="M224.311,112.787c-40.347,18.835 -75.086,16.187 -104.218,-7.943c18.014,-20.505 42.003,-29.084 71.968,-25.737c19.722,2.983 31.637,7.643 35.745,13.981c0.741,5.529 -0.424,12.095 -3.495,19.699Z" style="fill:none;stroke:#fff;stroke-width:13px;"/><path d="M226.59,116.92c-1.325,-1.265 -2.465,-2.467 -3.424,-3.607c0.382,-0.175 0.763,-0.347 1.145,-0.526c2.034,-5.036 3.231,-9.617 3.593,-13.743l0,0c26.906,-21.413 53.668,-28.08 81.771,-13.71c15.472,-0.203 23.202,21.493 11.705,26.818c-30.893,11.131 -62.49,12.72 -94.79,4.768Z" style="fill:none;stroke:#fff;stroke-width:13px;"/><path d="M188.247,110.881c3.734,-10.341 2.516,-18.602 -3.654,-24.784c-17.995,-6.063 -29.328,-2.514 -33.998,10.644c-3.111,13.301 0.014,20.927 9.374,22.878c15.408,2.186 24.834,-0.726 28.278,-8.738Z" style="fill:none;stroke:#fff;stroke-width:13px;stroke-linecap:butt;stroke-linejoin:miter;stroke-miterlimit:10;"/><path d="M291.908,109.851c3.734,-10.34 2.516,-18.601 -3.654,-24.783c-17.995,-6.063 -29.328,-2.515 -33.998,10.644c-3.111,13.301 0.013,20.926 9.373,22.877c15.408,2.187 24.835,-0.726 28.279,-8.738Z" style="fill:none;stroke:#fff;stroke-width:13px;stroke-linecap:butt;stroke-linejoin:miter;stroke-miterlimit:10;"/></g></svg>