<?xml version="1.0" encoding="UTF-8"?>
<svg version="1.1" id="Layer_1" xmlns="http://www.w3.org/2000/svg"  x="0px" y="0px" preserveAspectRatio="xMinYMax meet" viewBox="0 0 192 258">
<g>
	<path fill="#fff" d="M-0.1,0v8.4l0,0l13.7,32.3l-13.7,4.2l0,0v2.7l13.6-4.2L-0.1,99.2l0,0v14.5l0,0l38.7-79.5L-0.1,0L-0.1,0z    M6.3,86.1l10.2-43.5l13.2-4.4L6.3,86.1z M30.2,35.2l-14.1,4.7L5.2,13.1L30.2,35.2z"/>
	<path fill="#fff" d="M56.7,201.5L95.4,258l38.7-56.5l-38.7-56.6L56.7,201.5z M105.3,200.1H85.1l10.1-42.9L105.3,200.1z M91.3,162.1   l-8.9,38.1H65.3L91.3,162.1z M65.3,202.8h17.1h0l8.9,38.1L65.3,202.8z M95.2,245.7l-10.1-42.9h20.2v0L95.2,245.7z M98.9,241.8   l9.2-39h17.5L98.9,241.8z M125.5,200.1H108l-9.2-39L125.5,200.1z"/>
	<path fill="#fff" d="M192,0.1l-38.6,34.1l38.6,79.3V98.8l-13.3-55.3l13.3,4.1v-2.7l-13.3-4.1L192,8.6V0.1z M186.2,87.1L162.3,38   l13.5,4.5L186.2,87.1z M176.2,39.9l-14.3-4.8l25.3-22.3L176.2,39.9z"/>
</g>
</svg>