<?xml version="1.0" encoding="UTF-8"?>
<svg preserveAspectRatio="none" xmlns="http://www.w3.org/2000/svg" width="170px" height="190px" version="1.1"
viewBox="0 0 170 190">
    <path fill="#fff" d="M67 114c0,0 13,10 24,20l-1 0 6 6 0 -1c10,11 20,24 20,24l0 0c0,-1 0,-16 -13,-30l1 -1 -6 -6 -1 1c-14,-13 -29,-13 -30,-13l0 0zm22 21l-34 34c-1,1 -1,2 -1,3 0,1 0,2 1,3 1,1 2,1 3,1 1,0 2,0 3,-1l34 -34 -6 -6zm15 -4l3 -2 -6 -6 -2 3 5 5z"/>
    <rect fill="#fff" transform="matrix(-0.151282 -0.151284 -0.14728 0.147282 104.405 132.807)" width="47.0957" height="53.958" rx="5" ry="5"/>
    <path fill="#fff" d="M-18 8l0 0 0 0 0 0 0 0zm18 14c2,2 4,4 6,6l-1 0 6 6 0 -1c10,10 20,24 20,24l0 0c0,-1 0,-16 -13,-31l1 0 -6 -6 -1 1c-4,-4 -8,-7 -12,-8l0 9zm4 7l-4 4 0 11 10 -10 -6 -5zm-35 37l0 0 0 0 0 0zm4 4l0 0 0 0 0 0zm46 -45l3 -2 -6 -6 -2 3 5 5z"/>
    <path fill="#fff" d="M19 26l-6 -6c0,0 -1,0 -1,0l-7 7c0,0 0,1 0,1l6 6c0,0 1,0 1,0l7 -7c0,0 0,-1 0,-1z"/>
    <path fill="#fff" d="M152 8c0,0 9,7 18,14l0 -9c-10,-5 -17,-5 -18,-5l0 0zm18 25l-30 30c-1,1 -1,2 -1,3 0,1 0,2 1,3 1,0 2,1 3,1 1,0 2,-1 3,-1l24 -25 0 -11z"/>
</svg>