<?xml version="1.0" encoding="UTF-8" standalone="no"?><!DOCTYPE svg PUBLIC "-//W3C//DTD SVG 1.1//EN" "http://www.w3.org/Graphics/SVG/1.1/DTD/svg11.dtd"><svg width="100%" height="100%" viewBox="0 0 636 688" version="1.1" xmlns="http://www.w3.org/2000/svg" xmlns:xlink="http://www.w3.org/1999/xlink" xml:space="preserve" xmlns:serif="http://www.serif.com/" style="fill-rule:evenodd;clip-rule:evenodd;stroke-miterlimit:10;"><g id="eyes"><path d="M98.491,361.477c2.779,-99.274 51.206,-315.545 238.912,-311.036c183.363,4.405 214.118,234.825 214.118,308.78c0,92.408 -58.182,288.573 -238.823,277.226c-180.641,-11.346 -216.7,-185.986 -214.207,-274.97Z" style="fill:#68984e;fill-rule:nonzero;stroke:#000;stroke-width:10px;"/><path d="M62.43,359.221c-1.687,-48.935 56.572,-191.656 274.972,-180.31c218.404,11.345 247.929,135.233 244.077,188.375c-6.096,84.173 -88.558,194.783 -263.785,192.876c-142.263,-1.549 -250.756,-70.215 -255.264,-200.941" style="fill:#68984e;fill-rule:nonzero;"/><path d="M62.43,359.221c-1.687,-48.935 56.572,-191.656 274.972,-180.31c218.404,11.345 247.929,135.233 244.077,188.375c-6.096,84.173 -88.558,194.783 -263.785,192.876c-142.263,-1.549 -250.756,-70.215 -255.264,-200.941Z" style="fill:none;stroke:#000;stroke-width:10px;"/><path d="M585.039,354.994c0,-35.571 -35.035,-45.849 -64.551,-48.209c-39.063,-30.459 -110.07,-58.895 -201.049,-60.693c-91.724,-1.811 -156.571,26.956 -191.215,58.837c-33.224,7.48 -77.207,22.891 -77.207,50.064c0,29.732 31.325,48.192 61.632,51.414c29.965,49.395 106.527,81.161 201.138,85.409c79.542,3.574 155.56,-37.427 200.04,-77.669c28.463,-4.54 71.212,-18.166 71.212,-59.153" style="fill:#f1f2f2;fill-rule:nonzero;"/><path d="M585.039,354.108c0,-37.811 -35.035,-48.737 -64.551,-51.247c-39.063,-32.378 -110.07,-62.606 -201.049,-64.516c-91.724,-1.926 -156.571,28.655 -191.215,62.545c-33.224,7.951 -77.207,24.334 -77.207,53.217c0,31.609 31.325,51.23 61.632,54.655c29.965,52.508 106.527,86.275 201.138,90.792c79.542,3.799 155.56,-39.786 200.04,-82.564c28.463,-4.826 71.212,-19.31 71.212,-62.882Z" style="fill:none;stroke:#000;stroke-width:10px;"/><path d="M320.808,261.774c-151.015,0.385 -164.511,212.26 0,203.75c164.51,-8.508 124.271,-204.067 0,-203.75" style="fill-rule:nonzero;"/><path d="M284.83,290.248c-46.661,0.12 -50.832,65.589 0,62.96c50.836,-2.631 38.402,-63.057 0,-62.96" style="fill:#fff;fill-rule:nonzero;"/></g></svg>