<?xml version="1.0" encoding="UTF-8" standalone="no"?><!DOCTYPE svg PUBLIC "-//W3C//DTD SVG 1.1//EN" "http://www.w3.org/Graphics/SVG/1.1/DTD/svg11.dtd"><svg width="100%" height="100%" viewBox="0 0 347 618" version="1.1" xmlns="http://www.w3.org/2000/svg" xmlns:xlink="http://www.w3.org/1999/xlink" xml:space="preserve" xmlns:serif="http://www.serif.com/" style="fill-rule:evenodd;clip-rule:evenodd;stroke-miterlimit:10;"><g id="neck"><path d="M139.477,167.449c0,0 -84.73,260.807 -88.336,287.042c-3.602,26.234 102.498,109.57 119.477,112.656c16.976,3.086 115.812,-77.222 124.822,-94.198c9.016,-16.976 -82.055,-294.698 -82.055,-305.5c0,-10.802 -73.908,0 -73.908,0Z" style="fill:#da1c29;stroke:#000;stroke-width:10px;"/><path d="M88.549,62.759c0,0 27.748,129.968 47.035,129.968c19.287,0 78.559,12.078 86.272,2.172c7.716,-9.907 45.67,-129.117 45.67,-139.024c0,-9.907 -151.973,-3.025 -178.977,6.884Z" style="fill:#da1c29;stroke:#000;stroke-width:10px;"/></g></svg>