<?xml version="1.0" encoding="UTF-8" standalone="no"?><!DOCTYPE svg PUBLIC "-//W3C//DTD SVG 1.1//EN" "http://www.w3.org/Graphics/SVG/1.1/DTD/svg11.dtd"><svg width="100%" height="100%" viewBox="0 0 873 406" version="1.1" xmlns="http://www.w3.org/2000/svg" xmlns:xlink="http://www.w3.org/1999/xlink" xml:space="preserve" xmlns:serif="http://www.serif.com/" style="fill-rule:evenodd;clip-rule:evenodd;stroke-miterlimit:10;"><g id="sunglasses"><path d="M770.753,250.665c-7.48,14.969 -67.355,77.334 -142.189,64.86c-74.84,-12.472 -97.75,-35.132 -107.727,-55.089c-9.979,-19.958 -21.65,-151.955 -1.695,-154.451c19.955,-2.493 216.689,-9.983 241.634,-4.995c24.944,4.989 17.461,134.708 9.977,149.675Zm-418.754,9.771c-9.978,19.957 -32.887,42.617 -107.723,55.089c-74.837,12.476 -134.71,-49.891 -142.189,-64.86c-7.484,-14.967 -14.971,-144.686 9.977,-149.674c24.943,-4.989 221.675,2.501 241.632,4.994c19.953,2.496 8.282,134.493 -1.697,154.451Zm443.795,-205.369c-33.459,-6.693 -299.102,-5.047 -325.873,-1.698c-6.143,0.768 -9.811,11.681 -11.658,28.342c-6.887,-2.285 -15.051,-3.44 -24.793,-2.884c-6.987,0.399 -13.209,1.83 -18.781,3.898c-1.807,-17.24 -5.502,-28.575 -11.772,-29.356c-26.769,-3.349 -292.414,-4.995 -325.877,1.698c-33.461,6.692 -29.314,191.114 -19.273,211.192c10.037,20.078 73.689,92.302 175.425,89.224c95.002,-2.874 149.551,-49.604 162.936,-76.376c7.721,-15.446 17.701,-87.085 19.625,-145.583c6.336,-5.896 14.66,-12.265 21.109,-12.265c10.7,0 16.725,3.269 20.079,7.38c1.505,59.327 11.83,134.59 19.769,150.468c13.385,26.772 67.934,73.502 162.938,76.376c101.732,3.078 165.388,-69.146 175.425,-89.224c10.037,-20.078 14.188,-204.5 -19.279,-211.192Z" style="fill:#754c29;fill-rule:nonzero;stroke:#000;stroke-width:10px;"/></g></svg>